<?xml version="1.0" encoding="UTF-8"?>
<!DOCTYPE svg PUBLIC "-//W3C//DTD SVG 1.1//EN" "http://www.w3.org/Graphics/SVG/1.1/DTD/svg11.dtd">
<!-- Creator: CorelDRAW X7 -->
<svg xmlns="http://www.w3.org/2000/svg" xml:space="preserve" width="32.6812mm" height="67.8178mm" version="1.1" style="shape-rendering:geometricPrecision; text-rendering:geometricPrecision; image-rendering:optimizeQuality; fill-rule:evenodd; clip-rule:evenodd"
viewBox="0 0 3268 6782"
 xmlns:xlink="http://www.w3.org/1999/xlink">
 <defs>
  <style type="text/css">
   <![CDATA[
    .fil0 {fill:#4D4D4D;fill-rule:nonzero;fill-opacity:0.200000}
   ]]>
  </style>
 </defs>
 <g id="Layer_x0020_1">
  <metadata id="CorelCorpID_0Corel-Layer"/>
  <path class="fil0" d="M819 1140l0 -718 793 0c387,0 567,67 567,335 0,278 -198,383 -567,383l-793 0zm0 422c946,0 1216,0 1549,411 280,355 424,910 424,1667 0,1935 -892,2595 -1973,2720l0 -4798zm-271 5219c1253,0 2721,-517 2721,-3141 0,-1571 -630,-2107 -955,-2337 180,-67 343,-249 343,-575 0,-555 -442,-728 -1127,-728l-1531 0 0 364c369,39 369,96 369,374l0 5306c0,278 0,326 -369,373l0 364 549 0z"/>
 </g>
</svg>
