<?xml version="1.0" encoding="UTF-8"?>
<!DOCTYPE svg PUBLIC "-//W3C//DTD SVG 1.1//EN" "http://www.w3.org/Graphics/SVG/1.1/DTD/svg11.dtd">
<!-- Creator: CorelDRAW X7 -->
<svg xmlns="http://www.w3.org/2000/svg" xml:space="preserve" width="28.5326mm" height="72.5592mm" version="1.1" style="shape-rendering:geometricPrecision; text-rendering:geometricPrecision; image-rendering:optimizeQuality; fill-rule:evenodd; clip-rule:evenodd"
viewBox="0 0 2853 7256"
 xmlns:xlink="http://www.w3.org/1999/xlink">
 <defs>
  <style type="text/css">
   <![CDATA[
    .fil0 {fill:#3793BA;fill-rule:nonzero;fill-opacity:0.200000}
   ]]>
  </style>
 </defs>
 <g id="Layer_x0020_1">
  <metadata id="CorelCorpID_0Corel-Layer"/>
  <path class="fil0" d="M2539 6089c-126,307 -432,709 -883,709 -837,0 -1180,-1322 -1180,-3084 0,-1954 550,-3007 1216,-3007 262,0 469,143 658,373l288 -124 -378 -958 -261 105c0,125 -45,144 -307,144 -1279,0 -1693,1762 -1693,3391 0,2078 432,3620 1657,3620 748,0 1063,-603 1199,-891l-316 -278z"/>
 </g>
</svg>
