<?xml version="1.0" encoding="UTF-8"?>
<!DOCTYPE svg PUBLIC "-//W3C//DTD SVG 1.1//EN" "http://www.w3.org/Graphics/SVG/1.1/DTD/svg11.dtd">
<!-- Creator: CorelDRAW X7 -->
<svg xmlns="http://www.w3.org/2000/svg" xml:space="preserve" width="26.8392mm" height="70.3578mm" version="1.1" style="shape-rendering:geometricPrecision; text-rendering:geometricPrecision; image-rendering:optimizeQuality; fill-rule:evenodd; clip-rule:evenodd"
viewBox="0 0 2684 7036"
 xmlns:xlink="http://www.w3.org/1999/xlink">
 <defs>
  <style type="text/css">
   <![CDATA[
    .fil0 {fill:#1C8AB5;fill-rule:nonzero;fill-opacity:0.168627}
   ]]>
  </style>
 </defs>
 <g id="Layer_x0020_1">
  <metadata id="CorelCorpID_0Corel-Layer"/>
  <path class="fil0" d="M1153 6923c162,0 378,0 594,19 226,19 442,48 613,96l324 -747 -270 -192c-153,201 -216,402 -631,402l-928 0 0 -4693 865 0c253,0 289,125 316,268l270 0 0 -957 -270 0c-9,162 -36,268 -334,268l-847 0 0 -824 667 0c297,0 370,125 514,249l270 -163 -324 -651c-325,144 -676,144 -892,144l-1090 0 0 364c405,38 405,95 405,373l0 5306c0,278 0,326 -405,374l0 364 1153 0z"/>
 </g>
</svg>
