<?xml version="1.0" encoding="UTF-8"?>
<!DOCTYPE svg PUBLIC "-//W3C//DTD SVG 1.1//EN" "http://www.w3.org/Graphics/SVG/1.1/DTD/svg11.dtd">
<!-- Creator: CorelDRAW X7 -->
<svg xmlns="http://www.w3.org/2000/svg" xml:space="preserve" width="50.2766mm" height="130.3266mm" version="1.1" style="shape-rendering:geometricPrecision; text-rendering:geometricPrecision; image-rendering:optimizeQuality; fill-rule:evenodd; clip-rule:evenodd"
viewBox="0 0 1228 3133"
 xmlns:xlink="http://www.w3.org/1999/xlink">
 <defs>
  <style type="text/css">
   <![CDATA[
    .fil0 {fill:#4D4D4D;fill-rule:nonzero;fill-opacity:0.200000}
   ]]>
  </style>
 </defs>
 <g id="Layer_x0020_1">
  <metadata id="CorelCorpID_0Corel-Layer"/>
  <path class="fil0" d="M379 526l0 -331 378 0c138,0 250,48 250,163 0,129 -83,168 -250,168l-378 0zm0 195l370 0c333,0 479,-124 479,-358 0,-208 -108,-363 -471,-363l-757 0 0 168c171,18 171,44 171,173l0 2451c0,128 0,151 -171,173l0 168 549 0 0 -168c-170,-22 -170,-53 -170,-173l0 -2071z"/>
 </g>
</svg>
