<svg xmlns="http://www.w3.org/2000/svg" xmlns:xlink="http://www.w3.org/1999/xlink" viewBox="0 0 307.82 307.99" width="307.82000732421875" height="307.989990234375"><defs><style>.cls-1{fill:url(#_Áåçûìÿííûé_ãðàäèåíò_208-5);}.cls-2{filter:url(#luminosity-noclip-11);}.cls-3{fill:url(#_Áåçûìÿííûé_ãðàäèåíò_5-2);}.cls-3,.cls-4,.cls-5,.cls-6,.cls-7,.cls-8,.cls-9,.cls-10,.cls-11,.cls-12{mix-blend-mode:multiply;}.cls-13{fill:#252734;}.cls-14{fill:#fff;}.cls-15{fill:#2d2987;}.cls-16{fill:url(#_Áåçûìÿííûé_ãðàäèåíò_208-3);}.cls-17{fill:url(#_Áåçûìÿííûé_ãðàäèåíò_143);}.cls-17,.cls-18,.cls-19,.cls-20,.cls-21,.cls-22,.cls-23,.cls-24,.cls-25,.cls-26{mix-blend-mode:screen;}.cls-27{fill:#ad852c;}.cls-28{mask:url(#mask-10);}.cls-29{fill:url(#_Áåçûìÿííûé_ãðàäèåíò_1832-2);}.cls-30{fill:#95e5ff;}.cls-31{fill:#7c633c;}.cls-32{fill:url(#_Áåçûìÿííûé_ãðàäèåíò_118);}.cls-33,.cls-8{fill:#cb89f0;}.cls-34{filter:url(#luminosity-noclip-7);}.cls-35{fill:#8b3dce;}.cls-18{fill:url(#_Áåçûìÿííûé_ãðàäèåíò_143-5);}.cls-36{opacity:.9;}.cls-37{fill:url(#_Áåçûìÿííûé_ãðàäèåíò_1832-3);}.cls-38{filter:url(#luminosity-noclip-5);}.cls-39{fill:#282a35;}.cls-4{fill:#50197c;}.cls-4,.cls-5{opacity:.6;}.cls-40,.cls-19{fill:#ffffd7;}.cls-41,.cls-23{fill:#eff6f6;}.cls-41,.cls-42{opacity:.1;}.cls-43{mask:url(#mask-2);}.cls-20{fill:url(#_Áåçûìÿííûé_ãðàäèåíò_143-4);}.cls-44{clip-path:url(#clippath-2);}.cls-45{isolation:isolate;}.cls-21{fill:url(#_Áåçûìÿííûé_ãðàäèåíò_143-2);}.cls-46{fill:#c0f3ff;}.cls-47{mask:url(#mask-3);}.cls-48{fill:url(#_Áåçûìÿííûé_ãðàäèåíò_208-4);}.cls-49{fill:#1e1f27;}.cls-50{fill:#313440;}.cls-51{fill:url(#_Áåçûìÿííûé_ãðàäèåíò_208-2);}.cls-52{mask:url(#mask-9);}.cls-53{fill:url(#_Áåçûìÿííûé_ãðàäèåíò_208);}.cls-54{clip-path:url(#clippath-1);}.cls-55,.cls-56{fill:#3d3292;}.cls-55,.cls-8{opacity:.4;}.cls-57{fill:url(#_Áåçûìÿííûé_ãðàäèåíò_1847-4);}.cls-58{fill:#9f52d8;}.cls-59{fill:url(#_Áåçûìÿííûé_ãðàäèåíò_24-2);}.cls-59,.cls-23,.cls-60,.cls-24,.cls-11{opacity:.2;}.cls-61{fill:url(#_Áåçûìÿííûé_ãðàäèåíò_222-3);}.cls-62{mask:url(#mask-5);}.cls-63{fill:url(#_Áåçûìÿííûé_ãðàäèåíò_118-2);}.cls-64{fill:#4888f9;}.cls-65{fill:url(#_Áåçûìÿííûé_ãðàäèåíò_1847-3);}.cls-66{fill:url(#_Áåçûìÿííûé_ãðàäèåíò_222-4);}.cls-22,.cls-67{fill:#3d72e8;}.cls-60{fill:url(#_Áåçûìÿííûé_ãðàäèåíò_24);}.cls-68{fill:url(#_Áåçûìÿííûé_ãðàäèåíò_8);}.cls-69{fill:#8e8e8e;}.cls-70{fill:url(#_Áåçûìÿííûé_ãðàäèåíò_1821-2);}.cls-71{fill:#f9b6ff;}.cls-72{filter:url(#luminosity-noclip-9);}.cls-73{fill:#b879d9;}.cls-5{fill:#55128a;}.cls-74{fill:url(#_Áåçûìÿííûé_ãðàäèåíò_108);}.cls-75{fill:url(#_Áåçûìÿííûé_ãðàäèåíò_222-2);}.cls-6{fill:url(#_Áåçûìÿííûé_ãðàäèåíò_5-5);}.cls-76{mask:url(#mask-8);}.cls-77{fill:#191414;}.cls-78{mask:url(#mask-4);}.cls-24,.cls-42{fill:#d0d6d6;}.cls-79{fill:#35384a;}.cls-80{fill:#171a22;}.cls-81{clip-path:url(#clippath);}.cls-82{fill:#3a1147;}.cls-83{fill:url(#_Áåçûìÿííûé_ãðàäèåíò_48);}.cls-7{fill:url(#_Áåçûìÿííûé_ãðàäèåíò_5);}.cls-84{fill:url(#_Áåçûìÿííûé_ãðàäèåíò_1832);}.cls-85{fill:url(#_Áåçûìÿííûé_ãðàäèåíò_1847-2);}.cls-86{mask:url(#mask-6);}.cls-87{fill:#2d2b2a;}.cls-25{fill:url(#_Áåçûìÿííûé_ãðàäèåíò_143-6);}.cls-26{fill:url(#_Áåçûìÿííûé_ãðàäèåíò_143-3);}.cls-88{fill:#a85bdb;}.cls-89{fill:url(#_Áåçûìÿííûé_ãðàäèåíò_3-2);}.cls-90{fill:#4b45c4;}.cls-91{fill:#f7f7f7;}.cls-92{fill:url(#_Áåçûìÿííûé_ãðàäèåíò_222);}.cls-9{fill:url(#_Áåçûìÿííûé_ãðàäèåíò_5-4);}.cls-93{fill:url(#_Áåçûìÿííûé_ãðàäèåíò_1821);}.cls-94{filter:url(#luminosity-noclip);}.cls-10{fill:url(#_Áåçûìÿííûé_ãðàäèåíò_5-3);}.cls-95{mask:url(#mask-1);}.cls-96{mask:url(#mask);}.cls-97{fill:#ffc9ff;}.cls-98{fill:url(#_Áåçûìÿííûé_ãðàäèåíò_1847);}.cls-99{fill:#181a23;}.cls-100{fill:url(#_Áåçûìÿííûé_ãðàäèåíò_1832-4);}.cls-101{fill:url(#_Áåçûìÿííûé_ãðàäèåíò_3);}.cls-102{mask:url(#mask-7);}.cls-11{fill:#e9eaeb;}.cls-103{fill:url(#_Áåçûìÿííûé_ãðàäèåíò_1837);}.cls-104{fill:url(#_Áåçûìÿííûé_ãðàäèåíò_101);}.cls-105{fill:#44e0f0;}.cls-106{fill:#a35dd4;}.cls-107{fill:url(#_Áåçûìÿííûé_ãðàäèåíò_1821-3);}.cls-108{fill:#120c0c;}.cls-109{mask:url(#mask-11);}.cls-12{fill:url(#_Áåçûìÿííûé_ãðàäèåíò_5-6);}.cls-110{filter:url(#luminosity-noclip-3);}.cls-111{fill:#cccdce;opacity:.5;}.cls-112{fill:#fffff7;}</style><linearGradient id="_Áåçûìÿííûé_ãðàäèåíò_1832" x1="65.12" y1="129" x2="157.91" y2="129" gradientUnits="userSpaceOnUse"><stop offset="0" stop-color="#8b3dce"></stop><stop offset="1" stop-color="#cb89f0"></stop></linearGradient><linearGradient id="_Áåçûìÿííûé_ãðàäèåíò_1832-2" x1="63.64" y1="157.23" x2="65.79" y2="157.23" xlink:href="#_Áåçûìÿííûé_ãðàäèåíò_1832"></linearGradient><linearGradient id="_Áåçûìÿííûé_ãðàäèåíò_1832-3" x1="150.1" y1="253.38" x2="156.54" y2="253.38" xlink:href="#_Áåçûìÿííûé_ãðàäèåíò_1832"></linearGradient><linearGradient id="_Áåçûìÿííûé_ãðàäèåíò_1821" x1="86.1" y1="232.86" x2="245.95" y2="232.86" gradientUnits="userSpaceOnUse"><stop offset="0" stop-color="#f5abff"></stop><stop offset=".46" stop-color="#ffc5ff"></stop><stop offset="1" stop-color="#ffdeff"></stop></linearGradient><clipPath id="clippath"><path class="cls-80 svg-elem-1" d="m132.28,270.09l3.65,2.11c.43.25.77.1.77-.33s-.35-.97-.77-1.22l-3.65-2.11c-.43-.25-.77-.1-.77.33s.35.97.77,1.22Z"></path></clipPath><linearGradient id="_Áåçûìÿííûé_ãðàäèåíò_108" x1="268.3" y1="208.65" x2="260.05" y2="208.65" gradientUnits="userSpaceOnUse"><stop offset="0" stop-color="#cb89f0"></stop><stop offset="1" stop-color="#8b3dce"></stop></linearGradient><linearGradient id="_Áåçûìÿííûé_ãðàäèåíò_1847" x1="208.65" y1="193.83" x2="211.44" y2="198.66" gradientUnits="userSpaceOnUse"><stop offset=".62" stop-color="#ffbfff"></stop><stop offset=".86" stop-color="#e09cff"></stop><stop offset="1" stop-color="#cb89f0"></stop></linearGradient><linearGradient id="_Áåçûìÿííûé_ãðàäèåíò_1847-2" x1="214.81" y1="198.05" x2="216.44" y2="200.88" xlink:href="#_Áåçûìÿííûé_ãðàäèåíò_1847"></linearGradient><clipPath id="clippath-1"><path class="cls-87 svg-elem-2" d="m287.39,214.47l-1.51.87c-.18.1-.32.04-.32-.13s.14-.4.32-.5l1.51-.87c.18-.1.32-.04.32.14s-.14.4-.32.5Z"></path></clipPath><linearGradient id="_Áåçûìÿííûé_ãðàäèåíò_1832-4" x1="88.06" y1="277.51" x2="95.48" y2="277.51" xlink:href="#_Áåçûìÿííûé_ãðàäèåíò_1832"></linearGradient><linearGradient id="_Áåçûìÿííûé_ãðàäèåíò_1847-3" x1="49.9" y1="267.26" x2="52.36" y2="271.52" xlink:href="#_Áåçûìÿííûé_ãðàäèåíò_1847"></linearGradient><linearGradient id="_Áåçûìÿííûé_ãðàäèåíò_1847-4" x1="55.18" y1="270.3" x2="57.63" y2="274.56" xlink:href="#_Áåçûìÿííûé_ãðàäèåíò_1847"></linearGradient><clipPath id="clippath-2"><path class="cls-50 svg-elem-3" d="m106.17,284.24l-2.45,1.41c-.29.16-.52.07-.52-.22s.23-.65.52-.82l2.45-1.41c.29-.16.52-.07.52.22s-.23.65-.52.82Z"></path></clipPath><linearGradient id="_Áåçûìÿííûé_ãðàäèåíò_101" x1="-204.15" y1="281.69" x2="-201.71" y2="285.92" gradientTransform="translate(-142.9) rotate(-180) scale(1 -1)" gradientUnits="userSpaceOnUse"><stop offset="0" stop-color="#1c1e29"></stop><stop offset=".52" stop-color="#252734"></stop><stop offset=".76" stop-color="#1c1e28"></stop><stop offset=".85" stop-color="#181a23"></stop></linearGradient><linearGradient id="_Áåçûìÿííûé_ãðàäèåíò_1821-2" x1="513.12" y1="274.68" x2="526.18" y2="274.68" gradientTransform="translate(567.83) rotate(-180) scale(1 -1)" xlink:href="#_Áåçûìÿííûé_ãðàäèåíò_1821"></linearGradient><linearGradient id="_Áåçûìÿííûé_ãðàäèåíò_1821-3" x1="145.21" y1="273.97" x2="173.67" y2="273.97" xlink:href="#_Áåçûìÿííûé_ãðàäèåíò_1821"></linearGradient><linearGradient id="_Áåçûìÿííûé_ãðàäèåíò_1837" x1="146.71" y1="273.97" x2="172.17" y2="273.97" gradientUnits="userSpaceOnUse"><stop offset="0" stop-color="#b879d9"></stop><stop offset="1" stop-color="#8b3dce"></stop></linearGradient><linearGradient id="_Áåçûìÿííûé_ãðàäèåíò_3" x1="145.21" y1="289.91" x2="173.67" y2="289.91" gradientUnits="userSpaceOnUse"><stop offset="0" stop-color="#8b3dce"></stop><stop offset="1" stop-color="#b879d9"></stop></linearGradient><linearGradient id="_Áåçûìÿííûé_ãðàäèåíò_24" x1="155.72" y1="289.88" x2="172.64" y2="289.88" gradientUnits="userSpaceOnUse"><stop offset="0" stop-color="#9246d0"></stop><stop offset=".31" stop-color="#bd78e2"></stop><stop offset=".62" stop-color="#e0a1f2"></stop><stop offset=".86" stop-color="#f6bbfb"></stop><stop offset="1" stop-color="#ffc5ff"></stop></linearGradient><linearGradient id="_Áåçûìÿííûé_ãðàäèåíò_24-2" x1="160.58" y1="288.07" x2="173.71" y2="288.07" xlink:href="#_Áåçûìÿííûé_ãðàäèåíò_24"></linearGradient><linearGradient id="_Áåçûìÿííûé_ãðàäèåíò_3-2" x1="144.8" y1="301.29" x2="150.94" y2="272.77" xlink:href="#_Áåçûìÿííûé_ãðàäèåíò_3"></linearGradient><linearGradient id="_Áåçûìÿííûé_ãðàäèåíò_8" x1="148.3" y1="280.7" x2="141.9" y2="294.65" gradientUnits="userSpaceOnUse"><stop offset="0" stop-color="#f6afff"></stop><stop offset="1" stop-color="#b879d9"></stop></linearGradient><linearGradient id="_Áåçûìÿííûé_ãðàäèåíò_48" x1="146.94" y1="300.64" x2="150.17" y2="284.98" gradientUnits="userSpaceOnUse"><stop offset="0" stop-color="#b26ddb"></stop><stop offset="1" stop-color="#d490eb"></stop></linearGradient><linearGradient id="_Áåçûìÿííûé_ãðàäèåíò_208" x1="214.86" y1="7.5" x2="206.31" y2="22.31" gradientTransform="translate(-33.81)" gradientUnits="userSpaceOnUse"><stop offset="0" stop-color="#ffd2ff"></stop><stop offset=".2" stop-color="#ffcaff"></stop><stop offset=".48" stop-color="#ffc5ff"></stop><stop offset="1" stop-color="#f5abff"></stop></linearGradient><linearGradient id="_Áåçûìÿííûé_ãðàäèåíò_208-2" x1="193.85" y1="13.61" x2="190.4" y2="19.6" xlink:href="#_Áåçûìÿííûé_ãðàäèåíò_208"></linearGradient><linearGradient id="_Áåçûìÿííûé_ãðàäèåíò_208-3" x1="176.46" y1="4.82" x2="158.41" y2="36.08" xlink:href="#_Áåçûìÿííûé_ãðàäèåíò_208"></linearGradient><linearGradient id="_Áåçûìÿííûé_ãðàäèåíò_222" x1="127.55" y1="20.72" x2="120.16" y2="33.53" gradientUnits="userSpaceOnUse"><stop offset="0" stop-color="#c579e9"></stop><stop offset="1" stop-color="#8b3dce"></stop></linearGradient><linearGradient id="_Áåçûìÿííûé_ãðàäèåíò_208-4" x1="151.49" y1="32.02" x2="132.44" y2="65" xlink:href="#_Áåçûìÿííûé_ãðàäèåíò_208"></linearGradient><linearGradient id="_Áåçûìÿííûé_ãðàäèåíò_222-2" x1="104.87" y1="49.32" x2="96.52" y2="63.78" xlink:href="#_Áåçûìÿííûé_ãðàäèåíò_222"></linearGradient><linearGradient id="_Áåçûìÿííûé_ãðàäèåíò_208-5" x1="131.1" y1="64.15" x2="109.01" y2="102.4" xlink:href="#_Áåçûìÿííûé_ãðàäèåíò_208"></linearGradient><linearGradient id="_Áåçûìÿííûé_ãðàäèåíò_222-3" x1="83.77" y1="88.23" x2="75.49" y2="102.56" xlink:href="#_Áåçûìÿííûé_ãðàäèåíò_222"></linearGradient><linearGradient id="_Áåçûìÿííûé_ãðàäèåíò_118" x1="353.87" y1="28.19" x2="323.55" y2="80.71" gradientTransform="translate(477.12) rotate(-180) scale(1 -1)" gradientUnits="userSpaceOnUse"><stop offset="0" stop-color="#cb89f0"></stop><stop offset="1" stop-color="#b973e6"></stop></linearGradient><linearGradient id="_Áåçûìÿííûé_ãðàäèåíò_222-4" x1="126.6" y1="124.26" x2="146.34" y2="67.17" xlink:href="#_Áåçûìÿííûé_ãðàäèåíò_222"></linearGradient><linearGradient id="_Áåçûìÿííûé_ãðàäèåíò_118-2" x1="157.72" y1="34.86" x2="150.75" y2="94.42" gradientTransform="matrix(1, 0, 0, 1, 0, 0)" xlink:href="#_Áåçûìÿííûé_ãðàäèåíò_118"></linearGradient><filter id="luminosity-noclip" x="155.93" y="0" width="59" height="59" color-interpolation-filters="sRGB" filterUnits="userSpaceOnUse"></filter><filter id="luminosity-noclip-2" x="155.93" y="-8383.61" width="59" height="32766" color-interpolation-filters="sRGB" filterUnits="userSpaceOnUse"></filter><mask id="mask-1" x="155.93" y="-8383.61" width="59" height="32766" maskUnits="userSpaceOnUse"></mask><radialGradient id="_Áåçûìÿííûé_ãðàäèåíò_5" cx="106.64" cy="-77.44" fx="106.64" fy="-77.44" r="29.49" gradientTransform="translate(179.06 161.13) rotate(-51.25)" gradientUnits="userSpaceOnUse"><stop offset="0" stop-color="#fff"></stop><stop offset=".14" stop-color="#fff"></stop><stop offset=".27" stop-color="#fff"></stop><stop offset="1" stop-color="#fff"></stop></radialGradient><mask id="mask" x="155.93" y="0" width="59" height="59" maskUnits="userSpaceOnUse"><g class="cls-94"><g class="cls-95"><circle class="cls-7 svg-elem-4" cx="185.42" cy="29.5" r="29.49" transform="translate(-2.33 28.56) rotate(-8.75)"></circle></g></g></mask><radialGradient id="_Áåçûìÿííûé_ãðàäèåíò_143" cx="106.64" cy="-77.44" fx="106.64" fy="-77.44" r="29.49" gradientTransform="translate(179.06 161.13) rotate(-51.25)" gradientUnits="userSpaceOnUse"><stop offset="0" stop-color="#00faff"></stop><stop offset=".03" stop-color="#00d8e2"></stop><stop offset=".08" stop-color="#00a0b1"></stop><stop offset=".12" stop-color="#007d92"></stop><stop offset=".14" stop-color="#007087"></stop><stop offset=".16" stop-color="#00677c"></stop><stop offset=".22" stop-color="#004b5b"></stop><stop offset=".29" stop-color="#00343e"></stop><stop offset=".36" stop-color="#002027"></stop><stop offset=".45" stop-color="#001215"></stop><stop offset=".55" stop-color="#000709"></stop><stop offset=".69" stop-color="#000102"></stop><stop offset="1" stop-color="#000"></stop></radialGradient><filter id="luminosity-noclip-3" x="152.21" y="4.01" width="59" height="59" color-interpolation-filters="sRGB" filterUnits="userSpaceOnUse"></filter><filter id="luminosity-noclip-4" x="152.21" y="-8383.61" width="59" height="32766" color-interpolation-filters="sRGB" filterUnits="userSpaceOnUse"></filter><mask id="mask-3" x="152.21" y="-8383.61" width="59" height="32766" maskUnits="userSpaceOnUse"></mask><radialGradient id="_Áåçûìÿííûé_ãðàäèåíò_5-2" cx="101.31" cy="-78.65" fx="101.31" fy="-78.65" r="29.49" gradientTransform="translate(61.31 77.72) rotate(17.66)" xlink:href="#_Áåçûìÿííûé_ãðàäèåíò_5"></radialGradient><mask id="mask-2" x="152.21" y="4.01" width="59" height="59" maskUnits="userSpaceOnUse"><g class="cls-110"><g class="cls-47"><circle class="cls-3 svg-elem-5" cx="181.7" cy="33.51" r="29.49" transform="translate(110.14 203.85) rotate(-77.66)"></circle></g></g></mask><radialGradient id="_Áåçûìÿííûé_ãðàäèåíò_143-2" cx="101.31" cy="-78.65" fx="101.31" fy="-78.65" r="29.49" gradientTransform="translate(61.31 77.72) rotate(17.66)" xlink:href="#_Áåçûìÿííûé_ãðàäèåíò_143"></radialGradient><filter id="luminosity-noclip-5" x="146.83" y="5.25" width="59" height="59" color-interpolation-filters="sRGB" filterUnits="userSpaceOnUse"></filter><filter id="luminosity-noclip-6" x="146.83" y="-8383.61" width="59" height="32766" color-interpolation-filters="sRGB" filterUnits="userSpaceOnUse"></filter><mask id="mask-5" x="146.83" y="-8383.61" width="59" height="32766" maskUnits="userSpaceOnUse"></mask><radialGradient id="_Áåçûìÿííûé_ãðàäèåíò_5-3" cx="97.55" cy="-82.69" fx="97.55" fy="-82.69" r="29.49" gradientTransform="translate(127.64 152.99) rotate(-27.33)" xlink:href="#_Áåçûìÿííûé_ãðàäèåíò_5"></radialGradient><mask id="mask-4" x="146.83" y="5.25" width="59" height="59" maskUnits="userSpaceOnUse"><g class="cls-38"><g class="cls-62"><circle class="cls-10 svg-elem-6" cx="176.33" cy="34.75" r="29.49" transform="translate(9.14 100.67) rotate(-32.67)"></circle></g></g></mask><radialGradient id="_Áåçûìÿííûé_ãðàäèåíò_143-3" cx="97.55" cy="-82.69" fx="97.55" fy="-82.69" r="29.49" gradientTransform="translate(127.64 152.99) rotate(-27.33)" xlink:href="#_Áåçûìÿííûé_ãðàäèåíò_143"></radialGradient><filter id="luminosity-noclip-7" x="137.18" y="201.91" width="59" height="59" color-interpolation-filters="sRGB" filterUnits="userSpaceOnUse"></filter><filter id="luminosity-noclip-8" x="137.18" y="-8383.61" width="59" height="32766" color-interpolation-filters="sRGB" filterUnits="userSpaceOnUse"></filter><mask id="mask-7" x="137.18" y="-8383.61" width="59" height="32766" maskUnits="userSpaceOnUse"></mask><radialGradient id="_Áåçûìÿííûé_ãðàäèåíò_5-4" cx="-77.59" cy="7.28" fx="-77.59" fy="7.28" r="29.49" gradientTransform="translate(216.27 171.29) rotate(-45.12)" xlink:href="#_Áåçûìÿííûé_ãðàäèåíò_5"></radialGradient><mask id="mask-6" x="137.18" y="201.91" width="59" height="59" maskUnits="userSpaceOnUse"><g class="cls-34"><g class="cls-102"><circle class="cls-9 svg-elem-7" cx="166.67" cy="231.41" r="29.49" transform="translate(-53.85 50.58) rotate(-14.88)"></circle></g></g></mask><radialGradient id="_Áåçûìÿííûé_ãðàäèåíò_143-4" cx="-77.59" cy="7.28" fx="-77.59" fy="7.28" r="29.49" gradientTransform="translate(216.27 171.29) rotate(-45.12)" xlink:href="#_Áåçûìÿííûé_ãðàäèåíò_143"></radialGradient><filter id="luminosity-noclip-9" x="205.3" y="151.88" width="59" height="59" color-interpolation-filters="sRGB" filterUnits="userSpaceOnUse"></filter><filter id="luminosity-noclip-10" x="205.3" y="-8383.61" width="59" height="32766" color-interpolation-filters="sRGB" filterUnits="userSpaceOnUse"></filter><mask id="mask-9" x="205.3" y="-8383.61" width="59" height="32766" maskUnits="userSpaceOnUse"></mask><radialGradient id="_Áåçûìÿííûé_ãðàäèåíò_5-5" cx="-.2" cy="41.27" fx="-.2" fy="41.27" r="29.49" gradientTransform="translate(205.89 151.93) rotate(-44.76)" xlink:href="#_Áåçûìÿííûé_ãðàäèåíò_5"></radialGradient><mask id="mask-8" x="205.3" y="151.88" width="59" height="59" maskUnits="userSpaceOnUse"><g class="cls-72"><g class="cls-52"><circle class="cls-6 svg-elem-8" cx="234.8" cy="181.38" r="29.49" transform="translate(-39.42 68.09) rotate(-15.24)"></circle></g></g></mask><radialGradient id="_Áåçûìÿííûé_ãðàäèåíò_143-5" cx="-.2" cy="41.27" fx="-.2" fy="41.27" r="29.49" gradientTransform="translate(205.89 151.93) rotate(-44.76)" xlink:href="#_Áåçûìÿííûé_ãðàäèåíò_143"></radialGradient><filter id="luminosity-noclip-11" x="50.75" y="216.8" width="59" height="59" color-interpolation-filters="sRGB" filterUnits="userSpaceOnUse"></filter><filter id="luminosity-noclip-12" x="50.75" y="-8383.61" width="59" height="32766" color-interpolation-filters="sRGB" filterUnits="userSpaceOnUse"></filter><mask id="mask-11" x="50.75" y="-8383.61" width="59" height="32766" maskUnits="userSpaceOnUse"></mask><radialGradient id="_Áåçûìÿííûé_ãðàäèåíò_5-6" cx="-133.71" cy="-60.12" fx="-133.71" fy="-60.12" r="29.49" gradientTransform="translate(217.48 194.73) rotate(-44.8)" xlink:href="#_Áåçûìÿííûé_ãðàäèåíò_5"></radialGradient><mask id="mask-10" x="50.75" y="216.8" width="59" height="59" maskUnits="userSpaceOnUse"><g class="cls-2"><g class="cls-109"><circle class="cls-12 svg-elem-9" cx="80.25" cy="246.3" r="29.49" transform="translate(-61.75 29.64) rotate(-15.19)"></circle></g></g></mask><radialGradient id="_Áåçûìÿííûé_ãðàäèåíò_143-6" cx="-133.71" cy="-60.12" fx="-133.71" fy="-60.12" r="29.49" gradientTransform="translate(217.48 194.73) rotate(-44.8)" xlink:href="#_Áåçûìÿííûé_ãðàäèåíò_143"></radialGradient></defs><g class="cls-45"><g id="Layer_2"><g id="_0"><g id="_1"><g><path class="cls-5 svg-elem-10" d="m245.81,227.04l-75.31-41.11-59.74,34.49-19.52-22.91L0,248.98l2.65,1.53h88.96l55.05,31.78c.87.5,6.05.5,6.92,0l92.23-53.25c.77-.45.77-1.56,0-2.01Z"></path><g><g><g class="cls-45"><path class="cls-84 svg-elem-11" d="m157.23,102.58c-.38-.08-.79,0-1.19.22l-90.93,52.5.67.14,90.93-52.5c.4-.23.81-.3,1.19-.22l-.67-.14Z"></path><path class="cls-35 svg-elem-12" d="m84.37,240.36l-19.96-81.2-.67-.14,19.96,81.2c.22.9.78,1.48,1.45,1.62l.67.14c-.67-.13-1.23-.72-1.45-1.62Z"></path><path class="cls-29 svg-elem-13" d="m65.79,155.44l-.67-.14c-1.11.64-1.73,2.3-1.38,3.72l.67.14c-.35-1.41.27-3.08,1.38-3.72Z"></path><path class="cls-13 svg-elem-14" d="m179.32,185.54l-19.96-81.2c-.35-1.41-1.53-2.04-2.64-1.4l-90.93,52.5c-1.11.64-1.73,2.3-1.38,3.72l19.96,81.2c.35,1.41,1.53,2.04,2.64,1.4l90.93-52.5c1.11-.64,1.73-2.3,1.38-3.72Z"></path><polygon class="cls-67 svg-elem-15" points="175.4 179.33 157.21 105.34 66.42 157.75 84.64 231.73 175.4 179.33"></polygon></g><g class="cls-45"><path class="cls-37 svg-elem-16" d="m86.1,240.67v2.52c0,.42.27.85.83,1.17l63.85,36.86c1.11.64,2.91.64,4.02,0l90.33-52.5c.55-.32.82-.73.82-1.15v-2.52s-159.85,15.62-159.85,15.62Z"></path><path class="cls-93 svg-elem-17" d="m245.11,223.88l-63.85-36.86c-1.11-.64-2.9-.64-4.01,0l-90.33,52.5c-1.1.64-1.1,1.68,0,2.32l63.85,36.86c1.11.64,2.91.64,4.02,0l90.33-52.5c1.1-.64,1.09-1.68-.02-2.32Z"></path></g><g><path class="cls-80 svg-elem-18" d="m171.3,198.23s-.01-.1,0-.14c-.01-.05-.01-.1,0-.14-.04-.18.05-.36.28-.5l4.23-2.44c.41-.24,1.08-.24,1.49,0l3.56,2.05c.24.14.32.32.28.5.01.05.01.1,0,.14.01.05.01.1,0,.14.04.18-.05.36-.28.5l-4.23,2.44c-.41.24-1.08.24-1.49,0l-3.56-2.05c-.24-.14-.32-.32-.28-.5Zm7.11-3.44l3.56,2.05c.41.24,1.08.24,1.49,0l4.23-2.44c.24-.14.32-.32.28-.5.01-.05.01-.1,0-.14.01-.05.01-.1,0-.14.04-.18-.05-.36-.28-.5l-3.56-2.05c-.41-.24-1.08-.24-1.49,0l-4.23,2.44c-.24.14-.32.32-.28.5-.01.05-.01.1,0,.14-.01.05-.01.1,0,.14-.04.18.05.36.28.5Zm-13.65,7.88l3.56,2.05c.41.24,1.08.24,1.49,0l4.23-2.44c.24-.14.32-.32.28-.5.01-.05.01-.1,0-.14.01-.05.01-.1,0-.14.04-.18-.05-.36-.28-.5l-3.56-2.05c-.41-.24-1.08-.24-1.49,0l-4.23,2.44c-.24.14-.32.32-.28.5-.01.05-.01.1,0,.14-.01.05-.01.1,0,.14-.04.18.05.36.28.5Zm-51.36,43.93l3.56,2.05c.41.24,1.08.24,1.49,0l4.23-2.44c.24-.14.32-.32.28-.5.01-.05.01-.1,0-.14.01-.05.01-.1,0-.14.04-.18-.05-.36-.28-.5l-3.56-2.05c-.41-.24-1.08-.24-1.49,0l-4.23,2.44c-.24.14-.32.32-.28.5-.01.05-.01.1,0,.14-.01.05-.01.1,0,.14-.04.18.05.36.28.5Zm14.9-22.93l3.56,2.05c.41.24,1.08.24,1.49,0l4.23-2.44c.24-.14.32-.32.28-.5.01-.05.01-.1,0-.14.01-.05.01-.1,0-.14.04-.18-.05-.36-.28-.5l-3.56-2.05c-.41-.24-1.08-.24-1.49,0l-4.23,2.44c-.24.14-.32.32-.28.5-.01.05-.01.1,0,.14-.01.05-.01.1,0,.14-.04.18.05.36.28.5Zm13.65-7.88l3.56,2.05c.41.24,1.08.24,1.49,0l4.23-2.44c.24-.14.32-.32.28-.5.01-.05.01-.1,0-.14.01-.05.01-.1,0-.14.04-.18-.05-.36-.28-.5l-3.56-2.05c-.41-.24-1.08-.24-1.49,0l-4.23,2.44c-.24.14-.32.32-.28.5-.01.05-.01.1,0,.14-.01.05-.01.1,0,.14-.04.18.05.36.28.5Zm13.65-7.88l3.56,2.05c.41.24,1.08.24,1.49,0l6.43-3.71c.24-.14.32-.32.28-.5.01-.05.01-.1,0-.14.01-.05.01-.1,0-.14.04-.18-.05-.36-.28-.5l-3.56-2.05c-.41-.24-1.08-.24-1.49,0l-6.43,3.71c-.24.14-.32.32-.28.5-.01.05-.01.1,0,.14-.01.05-.01.1,0,.14-.04.18.05.36.28.5Zm-6.83,3.94l3.56,2.05c.41.24,1.08.24,1.49,0l4.23-2.44c.24-.14.32-.32.28-.5.01-.05.01-.1,0-.14.01-.05.01-.1,0-.14.04-.18-.05-.36-.28-.5l-3.56-2.05c-.41-.24-1.08-.24-1.49,0l-4.23,2.44c-.24.14-.32.32-.28.5-.01.05-.01.1,0,.14-.01.05-.01.1,0,.14-.04.18.05.36.28.5Zm-13.65,7.88l3.56,2.05c.41.24,1.08.24,1.49,0l4.23-2.44c.24-.14.32-.32.28-.5.01-.05.01-.1,0-.14.01-.05.01-.1,0-.14.04-.18-.05-.36-.28-.5l-3.56-2.05c-.41-.24-1.08-.24-1.49,0l-4.23,2.44c-.24.14-.32.32-.28.5-.01.05-.01.1,0,.14-.01.05-.01.1,0,.14-.04.18.05.36.28.5Zm29.04-9.53l3.56,2.05c.41.24,1.08.24,1.49,0l4.23-2.44c.24-.14.32-.32.28-.5.01-.05.01-.1,0-.14.01-.05.01-.1,0-.14.04-.18-.05-.36-.28-.5l-3.56-2.05c-.41-.24-1.08-.24-1.49,0l-4.23,2.44c-.24.14-.32.32-.28.5-.01.05-.01.1,0,.14-.01.05-.01.1,0,.14-.04.18.05.36.28.5Zm-54.61,31.53l3.56,2.05c.41.24,1.08.24,1.49,0l4.23-2.44c.24-.14.32-.32.28-.5.01-.05.01-.1,0-.14.01-.05.01-.1,0-.14.04-.18-.05-.36-.28-.5l-3.56-2.05c-.41-.24-1.08-.24-1.49,0l-4.23,2.44c-.24.14-.32.32-.28.5-.01.05-.01.1,0,.14-.01.05-.01.1,0,.14-.04.18.05.36.28.5Zm47.78-27.59l3.56,2.05c.41.24,1.08.24,1.49,0l4.23-2.44c.24-.14.32-.32.28-.5.01-.05.01-.1,0-.14.01-.05.01-.1,0-.14.04-.18-.05-.36-.28-.5l-3.56-2.05c-.41-.24-1.08-.24-1.49,0l-4.23,2.44c-.24.14-.32.32-.28.5-.01.05-.01.1,0,.14-.01.05-.01.1,0,.14-.04.18.05.36.28.5Zm-6.83,3.94l3.56,2.05c.41.24,1.08.24,1.49,0l4.23-2.44c.24-.14.32-.32.28-.5.01-.05.01-.1,0-.14.01-.05.01-.1,0-.14.04-.18-.05-.36-.28-.5l-3.56-2.05c-.41-.24-1.08-.24-1.49,0l-4.23,2.44c-.24.14-.32.32-.28.5-.01.05-.01.1,0,.14-.01.05-.01.1,0,.14-.04.18.05.36.28.5Zm-6.83,3.94l3.56,2.05c.41.24,1.08.24,1.49,0l4.23-2.44c.24-.14.32-.32.28-.5.01-.05.01-.1,0-.14.01-.05.01-.1,0-.14.04-.18-.05-.36-.28-.5l-3.56-2.05c-.41-.24-1.08-.24-1.49,0l-4.23,2.44c-.24.14-.32.32-.28.5-.01.05-.01.1,0,.14-.01.05-.01.1,0,.14-.04.18.05.36.28.5Zm-27.3,15.76l3.56,2.05c.41.24,1.08.24,1.49,0l4.23-2.44c.24-.14.32-.32.28-.5.01-.05.01-.1,0-.14.01-.05.01-.1,0-.14.04-.18-.05-.36-.28-.5l-3.56-2.05c-.41-.24-1.08-.24-1.49,0l-4.23,2.44c-.24.14-.32.32-.28.5-.01.05-.01.1,0,.14-.01.05-.01.1,0,.14-.04.18.05.36.28.5Zm6.83-3.94l3.56,2.05c.41.24,1.08.24,1.49,0l4.23-2.44c.24-.14.32-.32.28-.5.01-.05.01-.1,0-.14.01-.05.01-.1,0-.14.04-.18-.05-.36-.28-.5-5.23-3.02-3.46-2.96-9.27.39-.24.14-.32.32-.28.5-.01.05-.01.1,0,.14-.01.05-.01.1,0,.14-.04.18.05.36.28.5Zm6.83-3.94l3.56,2.05c.41.24,1.08.24,1.49,0l4.23-2.44c.24-.14.32-.32.28-.5.01-.05.01-.1,0-.14.01-.05.01-.1,0-.14.04-.18-.05-.36-.28-.5l-3.56-2.05c-.41-.24-1.08-.24-1.49,0l-4.23,2.44c-.24.14-.32.32-.28.5-.01.05-.01.1,0,.14-.01.05-.01.1,0,.14-.04.18.05.36.28.5Zm6.83-3.94c3.49,2.01,4.09,2.6,5.04,2.05l4.23-2.44c.24-.14.32-.32.28-.5.01-.05.01-.1,0-.14.01-.05.01-.1,0-.14.04-.18-.05-.36-.28-.5l-3.56-2.05c-.41-.24-1.08-.24-1.49,0l-4.23,2.44c-.24.14-.32.32-.28.5-.01.05-.01.1,0,.14-.01.05-.01.1,0,.14-.04.18.05.36.28.5Zm-12.17,25.98s.01-.1,0-.14c.01-.05.01-.1,0-.14.04-.18-.05-.36-.28-.5l-3.56-2.05c-.41-.24-1.08-.24-1.49,0l-6.43,3.71c-.24.14-.32.32-.28.5-.01.05-.01.1,0,.14-.01.05-.01.1,0,.14-.04.18.05.36.28.5l3.56,2.05c.41.24,1.08.24,1.49,0l6.43-3.71c.24-.14.32-.32.28-.5Zm-8.56-2.29s.01-.1,0-.14c.01-.05.01-.1,0-.14.04-.18-.05-.36-.28-.5l-3.56-2.05c-.41-.24-1.08-.24-1.49,0l-4.23,2.44c-.24.14-.32.32-.28.5-.01.05-.01.1,0,.14-.01.05-.01.1,0,.14-.04.18.05.36.28.5l3.56,2.05c.41.24,1.08.24,1.49,0l4.23-2.44c.24-.14.32-.32.28-.5Zm5.35-22.04c5.12,2.96,3.35,3.03,9.27-.39.24-.14.32-.32.28-.5.01-.05.01-.1,0-.14.01-.05.01-.1,0-.14.04-.18-.05-.36-.28-.5l-3.56-2.05c-.41-.24-1.08-.24-1.49,0l-4.23,2.44c-.24.14-.32.32-.28.5-.01.05-.01.1,0,.14-.01.05-.01.1,0,.14-.04.18.05.36.28.5Zm71.52-15.05s.01-.1,0-.14c.01-.05.01-.1,0-.14.04-.18-.05-.36-.28-.5l-3.56-2.05c-.41-.24-1.08-.24-1.49,0l-4.23,2.44c-.24.14-.32.32-.28.5-.01.05-.01.1,0,.14-.01.05-.01.1,0,.14-.04.18.05.36.28.5l3.56,2.05c.41.24,1.08.24,1.49,0l4.23-2.44c.24-.14.32-.32.28-.5Zm-80.71,32.22s.01-.1,0-.14c.01-.05.01-.1,0-.14.04-.18-.05-.36-.28-.5l-3.56-2.05c-.41-.24-1.08-.24-1.49,0l-6.43,3.71c-.24.14-.32.32-.28.5-.01.05-.01.1,0,.14-.01.05-.01.1,0,.14-.04.18.05.36.28.5l3.56,2.05c.41.24,1.08.24,1.49,0l6.43-3.71c.24-.14.32-.32.28-.5Zm2.37-13.23l3.56,2.05c.41.24,1.08.24,1.49,0l4.23-2.44c.24-.14.32-.32.28-.5.01-.05.01-.1,0-.14.01-.05.01-.1,0-.14.04-.18-.05-.36-.28-.5l-3.56-2.05c-.41-.24-1.08-.24-1.49,0l-4.23,2.44c-.24.14-.32.32-.28.5-.01.05-.01.1,0,.14-.01.05-.01.1,0,.14-.04.18.05.36.28.5Zm-6.83,3.94l3.56,2.05c.41.24,1.08.24,1.49,0l4.23-2.44c.24-.14.32-.32.28-.5.01-.05.01-.1,0-.14.01-.05.01-.1,0-.14.04-.18-.05-.36-.28-.5l-3.56-2.05c-.41-.24-1.08-.24-1.49,0l-4.23,2.44c-.24.14-.32.32-.28.5-.01.05-.01.1,0,.14-.01.05-.01.1,0,.14-.04.18.05.36.28.5Zm-4.1,6.99s.01-.1,0-.14c.01-.05.01-.1,0-.14.04-.18-.05-.36-.28-.5l-3.56-2.05c-.41-.24-1.08-.24-1.49,0l-4.23,2.44c-.24.14-.32.32-.28.5-.01.05-.01.1,0,.14-.01.05-.01.1,0,.14-.04.18.05.36.28.5l3.56,2.05c.41.24,1.08.24,1.49,0l4.23-2.44c.24-.14.32-.32.28-.5Zm-2.73-3.05l3.56,2.05c.41.24,1.08.24,1.49,0l4.23-2.44c.24-.14.32-.32.28-.5.01-.05.01-.1,0-.14.01-.05.01-.1,0-.14.04-.18-.05-.36-.28-.5l-3.56-2.05c-.41-.24-1.08-.24-1.49,0l-4.23,2.44c-.24.14-.32.32-.28.5-.01.05-.01.1,0,.14-.01.05-.01.1,0,.14-.04.18.05.36.28.5Zm111.89-31.44c.04-.18-.05-.36-.28-.5l-3.56-2.05c-.41-.24-1.08-.24-1.49,0l-4.23,2.44c-.24.14-.32.32-.28.5-.01.05-.01.1,0,.14-.01.05-.01.1,0,.14-.04.18.05.36.28.5l3.56,2.05c.41.24,1.08.24,1.49,0l4.23-2.44c.24-.14.32-.32.28-.5.01-.05.01-.1,0-.14.01-.05.01-.1,0-.14Zm-27.05,7.69l-3.56-2.05c-.41-.24-1.08-.24-1.49,0l-4.23,2.44c-.24.14-.32.32-.28.5-.01.05-.01.1,0,.14-.01.05-.01.1,0,.14-.04.18.05.36.28.5l3.56,2.05c.41.24,1.08.24,1.49,0l4.23-2.44c.24-.14.32-.32.28-.5.01-.05.01-.1,0-.14.01-.05.01-.1,0-.14.04-.18-.05-.36-.28-.5Zm13.7-7.85l-3.56-2.05c-.41-.24-1.08-.24-1.49,0l-4.23,2.44c-.24.14-.32.32-.28.5-.01.05-.01.1,0,.14-.01.05-.01.1,0,.14-.04.18.05.36.28.5l3.56,2.05c.41.24,1.08.24,1.49,0l4.23-2.44c.24-.14.32-.32.28-.5.01-.05.01-.1,0-.14.01-.05.01-.1,0-.14.04-.18-.05-.36-.28-.5Zm-27.35,15.73l-3.56-2.05c-.41-.24-1.08-.24-1.49,0l-4.23,2.44c-.24.14-.32.32-.28.5-.01.05-.01.1,0,.14-.01.05-.01.1,0,.14-.04.18.05.36.28.5l3.56,2.05c.41.24,1.08.24,1.49,0l4.23-2.44c.24-.14.32-.32.28-.5.01-.05.01-.1,0-.14.01-.05.01-.1,0-.14.04-.18-.05-.36-.28-.5Zm24.63-18.79s-.01.1,0,.14c-.01.05-.01.1,0,.14-.04.18.05.36.28.5l3.56,2.05c.41.24,1.08.24,1.49,0l4.23-2.44c.24-.14.32-.32.28-.5.01-.05.01-.1,0-.14.01-.05.01-.1,0-.14.04-.18-.05-.36-.28-.5l-3.56-2.05c-.41-.24-1.08-.24-1.49,0l-4.23,2.44c-.24.14-.32.32-.28.5Zm-51.93,34.55l-3.56-2.05c-.41-.24-1.08-.24-1.49,0l-4.23,2.44c-.24.14-.32.32-.28.5-.01.05-.01.1,0,.14-.01.05-.01.1,0,.14-.04.18.05.36.28.5l3.56,2.05c.41.24,1.08.24,1.49,0l4.23-2.44c.24-.14.32-.32.28-.5.01-.05.01-.1,0-.14.01-.05.01-.1,0-.14.04-.18-.05-.36-.28-.5Zm13.65-7.88l-3.56-2.05c-.41-.24-1.08-.24-1.49,0l-4.23,2.44c-.24.14-.32.32-.28.5-.01.05-.01.1,0,.14-.01.05-.01.1,0,.14-.04.18.05.36.28.5l3.56,2.05c.41.24,1.08.24,1.49,0l4.23-2.44c.24-.14.32-.32.28-.5.01-.05.01-.1,0-.14.01-.05.01-.1,0-.14.04-.18-.05-.36-.28-.5Zm-6.83,3.94l-3.56-2.05c-.41-.24-1.08-.24-1.49,0l-4.23,2.44c-.24.14-.32.32-.28.5-.01.05-.01.1,0,.14-.01.05-.01.1,0,.14-.04.18.05.36.28.5l3.56,2.05c.41.24,1.08.24,1.49,0l4.23-2.44c.24-.14.32-.32.28-.5.01-.05.01-.1,0-.14.01-.05.01-.1,0-.14.04-.18-.05-.36-.28-.5Zm-13.65,7.88l-3.56-2.05c-.41-.24-1.08-.24-1.49,0l-4.23,2.44c-.24.14-.32.32-.28.5-.01.05-.01.1,0,.14-.01.05-.01.1,0,.14-.04.18.05.36.28.5l3.56,2.05c.41.24,1.08.24,1.49,0l4.23-2.44c.24-.14.32-.32.28-.5.01-.05.01-.1,0-.14.01-.05.01-.1,0-.14.04-.18-.05-.36-.28-.5Zm-6.83,3.94l-3.56-2.05c-.41-.24-1.08-.24-1.49,0l-4.23,2.44c-.24.14-.32.32-.28.5-.01.05-.01.1,0,.14-.01.05-.01.1,0,.14-.04.18.05.36.28.5l3.56,2.05c.41.24,1.08.24,1.49,0l4.23-2.44c.24-.14.32-.32.28-.5.01-.05.01-.1,0-.14.01-.05.01-.1,0-.14.04-.18-.05-.36-.28-.5Zm34.13-19.7l-3.56-2.05c-.41-.24-1.08-.24-1.49,0l-4.23,2.44c-.24.14-.32.32-.28.5-.01.05-.01.1,0,.14-.01.05-.01.1,0,.14-.04.18.05.36.28.5l3.56,2.05c.41.24,1.08.24,1.49,0l4.23-2.44c.24-.14.32-.32.28-.5.01-.05.01-.1,0-.14.01-.05.01-.1,0-.14.04-.18-.05-.36-.28-.5Zm13.65-7.88l-3.56-2.05c-.41-.24-1.08-.24-1.49,0l-4.23,2.44c-.24.14-.32.32-.28.5-.01.05-.01.1,0,.14-.01.05-.01.1,0,.14-.04.18.05.36.28.5l3.56,2.05c.41.24,1.08.24,1.49,0l4.23-2.44c.24-.14.32-.32.28-.5.01-.05.01-.1,0-.14.01-.05.01-.1,0-.14.04-.18-.05-.36-.28-.5Zm-37.13,28.5l-3.56-2.05c-.41-.24-1.08-.24-1.49,0l-4.23,2.44c-.24.14-.32.32-.28.5-.01.05-.01.1,0,.14-.01.05-.01.1,0,.14-.04.18.05.36.28.5l3.56,2.05c.41.24,1.08.24,1.49,0l4.23-2.44c.24-.14.32-.32.28-.5.01-.05.01-.1,0-.14.01-.05.01-.1,0-.14.04-.18-.05-.36-.28-.5Zm6.83-3.94l-3.56-2.05c-.41-.24-1.08-.24-1.49,0l-4.23,2.44c-.24.14-.32.32-.28.5-.01.05-.01.1,0,.14-.01.05-.01.1,0,.14-.04.18.05.36.28.5l3.56,2.05c.41.24,1.08.24,1.49,0l4.23-2.44c.24-.14.32-.32.28-.5.01-.05.01-.1,0-.14.01-.05.01-.1,0-.14.04-.18-.05-.36-.28-.5Zm-13.65,7.88l-3.56-2.05c-.41-.24-1.08-.24-1.49,0l-4.23,2.44c-.24.14-.32.32-.28.5-.01.05-.01.1,0,.14-.01.05-.01.1,0,.14-.04.18.05.36.28.5l3.56,2.05c.41.24,1.08.24,1.49,0l4.23-2.44c.24-.14.32-.32.28-.5.01-.05.01-.1,0-.14.01-.05.01-.1,0-.14.04-.18-.05-.36-.28-.5Zm-6.83,3.94l-3.56-2.05c-.41-.24-1.08-.24-1.49,0l-4.23,2.44c-.24.14-.32.32-.28.5-.01.05-.01.1,0,.14-.01.05-.01.1,0,.14-.04.18.05.36.28.5l3.56,2.05c.41.24,1.08.24,1.49,0l4.23-2.44c.24-.14.32-.32.28-.5.01-.05.01-.1,0-.14.01-.05.01-.1,0-.14.04-.18-.05-.36-.28-.5Zm51.26-43.89l-3.56-2.05c-.41-.24-1.08-.24-1.49,0l-6.43,3.71c-.24.14-.32.32-.28.5-.01.05-.01.1,0,.14-.01.05-.01.1,0,.14-.04.18.05.36.28.5l3.56,2.05c.41.24,1.08.24,1.49,0l6.43-3.71c.24-.14.32-.32.28-.5.01-.05.01-.1,0-.14.01-.05.01-.1,0-.14.04-.18-.05-.36-.28-.5Zm12.34,7.17l-3.56-2.05c-.41-.24-1.08-.24-1.49,0l-6.43,3.71c-.24.14-.32.32-.28.5-.01.05-.01.1,0,.14-.01.05-.01.1,0,.14-.04.18.05.36.28.5l3.56,2.05c.41.24,1.08.24,1.49,0l6.43-3.71c.24-.14.32-.32.28-.5.01-.05.01-.1,0-.14.01-.05.01-.1,0-.14.04-.18-.05-.36-.28-.5Zm13.96-7.86l-3.56-2.05c-.41-.24-1.08-.24-1.49,0l-4.23,2.44c-.24.14-.32.32-.28.5-.01.05-.01.1,0,.14-.01.05-.01.1,0,.14-.04.18.05.36.28.5l3.56,2.05c.41.24,1.08.24,1.49,0l4.23-2.44c.24-.14.32-.32.28-.5.01-.05.01-.1,0-.14.01-.05.01-.1,0-.14.04-.18-.05-.36-.28-.5Zm-6.83,3.94l-3.56-2.05c-.41-.24-1.08-.24-1.49,0l-4.23,2.44c-.24.14-.32.32-.28.5-.01.05-.01.1,0,.14-.01.05-.01.1,0,.14-.04.18.05.36.28.5l3.56,2.05c.41.24,1.08.24,1.49,0l4.23-2.44c.24-.14.32-.32.28-.5.01-.05.01-.1,0-.14.01-.05.01-.1,0-.14.04-.18-.05-.36-.28-.5Zm-16.01,9.11l-3.56-2.05c-.41-.24-1.08-.24-1.49,0l-31.61,18.25c-.24.14-.32.32-.28.5-.01.05-.01.1,0,.14-.01.05-.01.1,0,.14-.04.18.05.36.28.5l3.56,2.05c.41.24,1.08.24,1.49,0l31.61-18.25c.24-.14.32-.32.28-.5.01-.05.01-.1,0-.14.01-.05.01-.1,0-.14.04-.18-.05-.36-.28-.5Zm-26.14.73l-3.56-2.05c-.41-.24-1.08-.24-1.49,0l-4.23,2.44c-.24.14-.32.32-.28.5-.01.05-.01.1,0,.14-.01.05-.01.1,0,.14-.04.18.05.36.28.5l3.56,2.05c.41.24,1.08.24,1.49,0l4.23-2.44c.24-.14.32-.32.28-.5.01-.05.01-.1,0-.14.01-.05.01-.1,0-.14.04-.18-.05-.36-.28-.5Zm-6.83,3.94l-3.56-2.05c-.41-.24-1.08-.24-1.49,0l-4.23,2.44c-.24.14-.32.32-.28.5-.01.05-.01.1,0,.14-.01.05-.01.1,0,.14-.04.18.05.36.28.5l3.56,2.05c.41.24,1.08.24,1.49,0l4.23-2.44c.24-.14.32-.32.28-.5.01-.05.01-.1,0-.14.01-.05.01-.1,0-.14.04-.18-.05-.36-.28-.5Zm13.65-7.88l-3.56-2.05c-.41-.24-1.08-.24-1.49,0l-4.23,2.44c-.24.14-.32.32-.28.5-.01.05-.01.1,0,.14-.01.05-.01.1,0,.14-.04.18.05.36.28.5l3.56,2.05c.41.24,1.08.24,1.49,0l4.23-2.44c.24-.14.32-.32.28-.5.01-.05.01-.1,0-.14.01-.05.01-.1,0-.14.04-.18-.05-.36-.28-.5Zm20.72-23.69s-.01.1,0,.14c-.01.05-.01.1,0,.14-.04.18.05.36.28.5l3.56,2.05c.41.24,1.08.24,1.49,0l4.23-2.44c.24-.14.32-.32.28-.5.01-.05.01-.1,0-.14.01-.05.01-.1,0-.14.04-.18-.05-.36-.28-.5l-3.56-2.05c-.41-.24-1.08-.24-1.49,0l-4.23,2.44c-.24.14-.32.32-.28.5Zm-13.9,19.74l-3.56-2.05c-.41-.24-1.08-.24-1.49,0l-4.23,2.44c-.24.14-.32.32-.28.5-.01.05-.01.1,0,.14-.01.05-.01.1,0,.14-.04.18.05.36.28.5l3.56,2.05c.41.24,1.08.24,1.49,0l4.23-2.44c.24-.14.32-.32.28-.5.01-.05.01-.1,0-.14.01-.05.01-.1,0-.14.04-.18-.05-.36-.28-.5Zm-27.3,15.76l-3.56-2.05c-.41-.24-1.08-.24-1.49,0l-4.23,2.44c-.24.14-.32.32-.28.5-.01.05-.01.1,0,.14-.01.05-.01.1,0,.14-.04.18.05.36.28.5l3.56,2.05c.41.24,1.08.24,1.49,0l4.23-2.44c.24-.14.32-.32.28-.5.01-.05.01-.1,0-.14.01-.05.01-.1,0-.14.04-.18-.05-.36-.28-.5Zm-13.65,7.88l-3.56-2.05c-.41-.24-1.08-.24-1.49,0l-4.23,2.44c-.24.14-.32.32-.28.5-.01.05-.01.1,0,.14-.01.05-.01.1,0,.14-.04.18.05.36.28.5l3.56,2.05c.41.24,1.08.24,1.49,0l4.23-2.44c.24-.14.32-.32.28-.5.01-.05.01-.1,0-.14.01-.05.01-.1,0-.14.04-.18-.05-.36-.28-.5Zm6.83-3.94l-3.56-2.05c-.41-.24-1.08-.24-1.49,0l-4.23,2.44c-.24.14-.32.32-.28.5-.01.05-.01.1,0,.14-.01.05-.01.1,0,.14-.04.18.05.36.28.5l3.56,2.05c.41.24,1.08.24,1.49,0l4.23-2.44c.24-.14.32-.32.28-.5.01-.05.01-.1,0-.14.01-.05.01-.1,0-.14.04-.18-.05-.36-.28-.5Z"></path><path class="cls-79 svg-elem-19" d="m103.45,242.38l-4.23,2.44c-.41.24-1.08.24-1.49,0l-3.56-2.05c-.41-.24-.41-.62,0-.86l4.23-2.44c.41-.24,1.08-.24,1.49,0l3.56,2.05c.41.24.41.62,0,.86Zm6.83-4.8l-3.56-2.05c-.41-.24-1.08-.24-1.49,0l-4.23,2.44c-.41.24-.41.62,0,.86l3.56,2.05c.41.24,1.08.24,1.49,0l4.23-2.44c.41-.24.41-.62,0-.86Zm6.83-3.94l-3.56-2.05c-.41-.24-1.08-.24-1.49,0l-4.23,2.44c-.41.24-.41.62,0,.86l3.56,2.05c.41.24,1.08.24,1.49,0l4.23-2.44c.41-.24.41-.62,0-.86Zm6.83-3.94l-3.56-2.05c-.41-.24-1.08-.24-1.49,0l-4.23,2.44c-.41.24-.41.62,0,.86l3.56,2.05c.41.24,1.08.24,1.49,0l4.23-2.44c.41-.24.41-.62,0-.86Zm6.83-3.94l-3.56-2.05c-.41-.24-1.08-.24-1.49,0l-4.23,2.44c-.41.24-.41.62,0,.86l3.56,2.05c.41.24,1.08.24,1.49,0l4.23-2.44c.41-.24.41-.62,0-.86Zm6.83-3.94l-3.56-2.05c-.41-.24-1.08-.24-1.49,0l-4.23,2.44c-.41.24-.41.62,0,.86l3.56,2.05c.41.24,1.08.24,1.49,0l4.23-2.44c.41-.24.41-.62,0-.86Zm6.83-3.94l-3.56-2.05c-.41-.24-1.08-.24-1.49,0l-4.23,2.44c-.41.24-.41.62,0,.86l3.56,2.05c.41.24,1.08.24,1.49,0l4.23-2.44c.41-.24.41-.62,0-.86Zm6.83-3.94l-3.56-2.05c-.41-.24-1.08-.24-1.49,0l-4.23,2.44c-.41.24-.41.62,0,.86l3.56,2.05c.41.24,1.08.24,1.49,0l4.23-2.44c.41-.24.41-.62,0-.86Zm6.83-3.94l-3.56-2.05c-.41-.24-1.08-.24-1.49,0l-4.23,2.44c-.41.24-.41.62,0,.86l3.56,2.05c.41.24,1.08.24,1.49,0l4.23-2.44c.41-.24.41-.62,0-.86Zm9.03-5.21l-3.56-2.05c-.41-.24-1.08-.24-1.49,0l-6.43,3.71c-.41.24-.41.62,0,.86l3.56,2.05c.41.24,1.08.24,1.49,0l6.43-3.71c.41-.24.41-.62,0-.86Zm25.64,6.81l-3.56-2.05c-.41-.24-1.08-.24-1.49,0l-4.23,2.44c-.41.24-.41.62,0,.86l3.56,2.05c.41.24,1.08.24,1.49,0l4.23-2.44c.41-.24.41-.62,0-.86Zm6.83-3.94l-3.56-2.05c-.41-.24-1.08-.24-1.49,0l-4.23,2.44c-.41.24-.41.62,0,.86l3.56,2.05c.41.24,1.08.24,1.49,0l4.23-2.44c.41-.24.41-.62,0-.86Zm6.83-3.94l-3.56-2.05c-.41-.24-1.08-.24-1.49,0l-4.23,2.44c-.41.24-.41.62,0,.86l3.56,2.05c.41.24,1.08.24,1.49,0l4.23-2.44c.41-.24.41-.62,0-.86Zm-7.41,11.48l-3.56-2.05c-.41-.24-1.08-.24-1.49,0l-4.23,2.44c-.41.24-.41.62,0,.86l3.56,2.05c.41.24,1.08.24,1.49,0l4.23-2.44c.41-.24.41-.62,0-.86Zm6.83-3.94l-3.56-2.05c-.41-.24-1.08-.24-1.49,0l-4.23,2.44c-.41.24-.41.62,0,.86l3.56,2.05c.41.24,1.08.24,1.49,0l4.23-2.44c.41-.24.41-.62,0-.86Zm6.83-3.94l-3.56-2.05c-.41-.24-1.08-.24-1.49,0l-4.23,2.44c-.41.24-.41.62,0,.86l3.56,2.05c.41.24,1.08.24,1.49,0l4.23-2.44c.41-.24.41-.62,0-.86Zm-100.61,36.5l-3.56-2.05c-.41-.24-1.08-.24-1.49,0l-6.43,3.71c-.41.24-.41.62,0,.86l3.56,2.05c.41.24,1.08.24,1.49,0l6.43-3.71c.41-.24.41-.62,0-.86Zm6.83-3.94l-3.56-2.05c-.41-.24-1.08-.24-1.49,0l-4.23,2.44c-.41.24-.41.62,0,.86l3.56,2.05c.41.24,1.08.24,1.49,0l4.23-2.44c.41-.24.41-.62,0-.86Zm6.83-3.94l-3.56-2.05c-.41-.24-1.08-.24-1.49,0l-4.23,2.44c-.41.24-.41.62,0,.86l3.56,2.05c.41.24,1.08.24,1.49,0l4.23-2.44c.41-.24.41-.62,0-.86Zm6.83-3.94l-3.56-2.05c-.41-.24-1.08-.24-1.49,0l-4.23,2.44c-.41.24-.41.62,0,.86l3.56,2.05c.41.24,1.08.24,1.49,0l4.23-2.44c.41-.24.41-.62,0-.86Zm6.83-3.94l-3.56-2.05c-.41-.24-1.08-.24-1.49,0l-4.23,2.44c-.41.24-.41.62,0,.86l3.56,2.05c.41.24,1.08.24,1.49,0l4.23-2.44c.41-.24.41-.62,0-.86Zm6.83-3.94l-3.56-2.05c-.41-.24-1.08-.24-1.49,0l-4.23,2.44c-.41.24-.41.62,0,.86l3.56,2.05c.41.24,1.08.24,1.49,0l4.23-2.44c.41-.24.41-.62,0-.86Zm6.83-3.94l-3.56-2.05c-.41-.24-1.08-.24-1.49,0l-4.23,2.44c-.41.24-.41.62,0,.86l3.56,2.05c.41.24,1.08.24,1.49,0l4.23-2.44c.41-.24.41-.62,0-.86Zm6.83-3.94l-3.56-2.05c-.41-.24-1.08-.24-1.49,0l-4.23,2.44c-.41.24-.41.62,0,.86l3.56,2.05c.41.24,1.08.24,1.49,0l4.23-2.44c.41-.24.41-.62,0-.86Zm6.83-3.94l-3.56-2.05c-.41-.24-1.08-.24-1.49,0l-4.23,2.44c-.41.24-.41.62,0,.86l3.56,2.05c.41.24,1.08.24,1.49,0l4.23-2.44c.41-.24.41-.62,0-.86Zm6.83-3.94l-3.56-2.05c-.41-.24-1.08-.24-1.49,0l-4.23,2.44c-.41.24-.41.62,0,.86l3.56,2.05c.41.24,1.08.24,1.49,0l4.23-2.44c.41-.24.41-.62,0-.86Zm-57.59,40.34l-3.56-2.05c-.41-.24-1.08-.24-1.49,0l-4.23,2.44c-.41.24-.41.62,0,.86l3.56,2.05c.41.24,1.08.24,1.49,0l4.23-2.44c.41-.24.41-.62,0-.86Zm6.83-3.94l-3.56-2.05c-.41-.24-1.08-.24-1.49,0l-4.23,2.44c-.41.24-.41.62,0,.86l3.56,2.05c.41.24,1.08.24,1.49,0l4.23-2.44c.41-.24.41-.62,0-.86Zm6.83-3.94l-3.56-2.05c-.41-.24-1.08-.24-1.49,0l-4.23,2.44c-.41.24-.41.62,0,.86l3.56,2.05c.41.24,1.08.24,1.49,0l4.23-2.44c.41-.24.41-.62,0-.86Zm6.83-3.94l-3.56-2.05c-.41-.24-1.08-.24-1.49,0l-4.23,2.44c-.41.24-.41.62,0,.86l3.56,2.05c.41.24,1.08.24,1.49,0l4.23-2.44c.41-.24.41-.62,0-.86Zm-8.1,18.97l-3.56-2.05c-.41-.24-1.08-.24-1.49,0l-4.23,2.44c-.41.24-.41.62,0,.86l3.56,2.05c.41.24,1.08.24,1.49,0l4.23-2.44c.41-.24.41-.62,0-.86Zm6.83-3.94l-3.56-2.05c-.41-.24-1.08-.24-1.49,0l-4.23,2.44c-.41.24-.41.62,0,.86l3.56,2.05c.41.24,1.08.24,1.49,0l4.23-2.44c.41-.24.41-.62,0-.86Zm6.83-3.94l-3.56-2.05c-.41-.24-1.08-.24-1.49,0l-4.23,2.44c-.41.24-.41.62,0,.86l3.56,2.05c.41.24,1.08.24,1.49,0l4.23-2.44c.41-.24.41-.62,0-.86Zm6.83-3.94l-3.56-2.05c-.41-.24-1.08-.24-1.49,0l-4.23,2.44c-.41.24-.41.62,0,.86l3.56,2.05c.41.24,1.08.24,1.49,0l4.23-2.44c.41-.24.41-.62,0-.86Zm43.11-24.89l-3.56-2.05c-.41-.24-1.08-.24-1.49,0l-6.43,3.71c-.41.24-.41.62,0,.86l3.56,2.05c.41.24,1.08.24,1.49,0l6.43-3.71c.41-.24.41-.62,0-.86Zm-48.67,13.81l-3.56-2.05c-.41-.24-1.08-.24-1.49,0l-4.23,2.44c-.41.24-.41.62,0,.86l3.56,2.05c.41.24,1.08.24,1.49,0l4.23-2.44c.41-.24.41-.62,0-.86Zm6.83-3.94l-3.56-2.05c-.41-.24-1.08-.24-1.49,0l-4.23,2.44c-.41.24-.41.62,0,.86l3.56,2.05c.41.24,1.08.24,1.49,0l4.23-2.44c.41-.24.41-.62,0-.86Zm6.83-3.94l-3.56-2.05c-.41-.24-1.08-.24-1.49,0l-4.23,2.44c-.41.24-.41.62,0,.86l3.56,2.05c.41.24,1.08.24,1.49,0l4.23-2.44c.41-.24.41-.62,0-.86Zm6.83-3.94l-3.56-2.05c-.41-.24-1.08-.24-1.49,0l-4.23,2.44c-.41.24-.41.62,0,.86l3.56,2.05c.41.24,1.08.24,1.49,0l4.23-2.44c.41-.24.41-.62,0-.86Zm6.83-3.94l-3.56-2.05c-.41-.24-1.08-.24-1.49,0l-4.23,2.44c-.41.24-.41.62,0,.86l3.56,2.05c.41.24,1.08.24,1.49,0l4.23-2.44c.41-.24.41-.62,0-.86Zm9.03-5.21l-3.56-2.05c-.41-.24-1.08-.24-1.49,0l-6.43,3.71c-.41.24-.41.62,0,.86l3.56,2.05c.41.24,1.08.24,1.49,0l6.43-3.71c.41-.24.41-.62,0-.86Zm-55.08,39.03l-3.56-2.05c-.41-.24-1.08-.24-1.49,0l-6.43,3.71c-.41.24-.41.62,0,.86l3.56,2.05c.41.24,1.08.24,1.49,0l6.43-3.71c.41-.24.41-.62,0-.86Zm6.83-3.94l-3.56-2.05c-.41-.24-1.08-.24-1.49,0l-4.23,2.44c-.41.24-.41.62,0,.86l3.56,2.05c.41.24,1.08.24,1.49,0l4.23-2.44c.41-.24.41-.62,0-.86Zm6.83-3.94l-3.56-2.05c-.41-.24-1.08-.24-1.49,0l-4.23,2.44c-.41.24-.41.62,0,.86l3.56,2.05c.41.24,1.08.24,1.49,0l4.23-2.44c.41-.24.41-.62,0-.86Zm6.83-3.94l-3.56-2.05c-.41-.24-1.08-.24-1.49,0l-4.23,2.44c-.41.24-.41.62,0,.86l3.56,2.05c.41.24,1.08.24,1.49,0l4.23-2.44c.41-.24.41-.62,0-.86Zm6.83-3.94l-3.56-2.05c-.41-.24-1.08-.24-1.49,0l-4.23,2.44c-.41.24-.41.62,0,.86l3.56,2.05c.41.24,1.08.24,1.49,0l4.23-2.44c.41-.24.41-.62,0-.86Zm31.24-10.91l-3.56-2.05c-.41-.24-1.08-.24-1.49,0l-31.61,18.25c-.41.24-.41.62,0,.86l3.56,2.05c.41.24,1.08.24,1.49,0l31.61-18.25c.41-.24.41-.62,0-.86Zm-24.41,6.96l-3.56-2.05c-.41-.24-1.08-.24-1.49,0l-4.23,2.44c-.41.24-.41.62,0,.86l3.56,2.05c.41.24,1.08.24,1.49,0l4.23-2.44c.41-.24.41-.62,0-.86Zm6.83-3.94l-3.56-2.05c-.41-.24-1.08-.24-1.49,0l-4.23,2.44c-.41.24-.41.62,0,.86l3.56,2.05c.41.24,1.08.24,1.49,0l4.23-2.44c.41-.24.41-.62,0-.86Zm6.83-3.94l-3.56-2.05c-.41-.24-1.08-.24-1.49,0l-4.23,2.44c-.41.24-.41.62,0,.86l3.56,2.05c.41.24,1.08.24,1.49,0l4.23-2.44c.41-.24.41-.62,0-.86Zm6.83-3.94l-3.56-2.05c-.41-.24-1.08-.24-1.49,0l-4.23,2.44c-.41.24-.41.62,0,.86l3.56,2.05c.41.24,1.08.24,1.49,0l4.23-2.44c.41-.24.41-.62,0-.86Zm6.83-3.94l-3.56-2.05c-.41-.24-1.08-.24-1.49,0l-4.23,2.44c-.41.24-.41.62,0,.86l3.56,2.05c.41.24,1.08.24,1.49,0l4.23-2.44c.41-.24.41-.62,0-.86Zm-11.81-14.7l-3.56-2.05c-.41-.24-1.08-.24-1.49,0l-4.23,2.44c-.41.24-.41.62,0,.86l3.56,2.05c.41.24,1.08.24,1.49,0l4.23-2.44c.41-.24.41-.62,0-.86Zm6.83-3.94l-3.56-2.05c-.41-.24-1.08-.24-1.49,0l-4.23,2.44c-.41.24-.41.62,0,.86l3.56,2.05c.41.24,1.08.24,1.49,0l4.23-2.44c.41-.24.41-.62,0-.86Zm6.83-3.94l-3.56-2.05c-.41-.24-1.08-.24-1.49,0l-4.23,2.44c-.41.24-.41.62,0,.86l3.56,2.05c.41.24,1.08.24,1.49,0l4.23-2.44c.41-.24.41-.62,0-.86Zm6.22,3.59l-3.56-2.05c-.41-.24-1.08-.24-1.49,0l-4.23,2.44c-.41.24-.41.62,0,.86l3.56,2.05c.41.24,1.08.24,1.49,0l4.23-2.44c.41-.24.41-.62,0-.86Z"></path></g><path class="cls-11 svg-elem-20" d="m212.16,240.48l-31.36,18.11c-.7.41-1.85.41-2.55,0l-20.79-12c-.7-.41-.7-1.07,0-1.47l31.36-18.11c.7-.41,1.85-.41,2.55,0l20.79,12c.7.41.7,1.07,0,1.47Z"></path><path class="cls-8 svg-elem-21" d="m157.45,245.48l31.36-18.11c.7-.41,1.85-.41,2.55,0l20.79,12c.27.16.43.35.5.55.1-.33-.06-.67-.5-.93l-20.79-12c-.7-.41-1.85-.41-2.55,0l-31.36,18.11c-.44.25-.6.6-.5.93.06-.2.23-.39.5-.55Z"></path><path class="cls-111 svg-elem-22" d="m178.23,188.12l-88.84,51.29-.15.08,3.03,1.75,88.84-51.29.15-.08-3.03-1.75Zm-85.95,52.9l-2.65-1.53,88.59-51.15,2.65,1.53-88.59,51.15Z"></path><g><path class="cls-80 svg-elem-23" d="m188.24,201.41l-4.68-2.7c-.51-.29-1.34-.29-1.85,0l-10.71,6.18c-.29.17-.4.39-.36.61,0,.05,0,.1,0,.14,0,.05,0,.1,0,.14-.04.22.07.44.36.61l9.34,5.39c.51.29,1.34.29,1.85,0l17.77-10.26c.29-.17.4-.39.36-.61,0-.05,0-.1,0-.14,0-.05,0-.1,0-.14.04-.22-.07-.44-.36-.61l-3.48-2.01c-.34-.2-.89-.2-1.23,0l-5.97,3.4c-.29.16-.75.16-1.04,0Z"></path><path class="cls-79 svg-elem-24" d="m199.96,199.83l-3.48-2.01c-.34-.2-.89-.2-1.23,0l-5.97,3.4c-.29.16-.75.16-1.04,0l-4.68-2.7c-.51-.29-1.34-.29-1.85,0l-10.71,6.19c-.51.29-.51.77,0,1.07l9.34,5.39c.51.29,1.34.29,1.85,0l17.77-10.26c.51-.29.51-.77,0-1.07Z"></path></g></g><g><path class="cls-80 svg-elem-25" d="m132.28,270.09l3.65,2.11c.43.25.77.1.77-.33s-.35-.97-.77-1.22l-3.65-2.11c-.43-.25-.77-.1-.77.33s.35.97.77,1.22Z"></path><g class="cls-81"><path class="cls-27 svg-elem-26" d="m135.52,271.71l.51.29,1.81-1.04-.51-.29-1.81,1.04Zm-1.12-.65l.51.29,1.8-1.04-.51-.29-1.81,1.04Zm-1.12-.65l.51.29,1.8-1.04-.51-.29-1.81,1.04Zm-1.12-.65l.51.29,1.8-1.04-.51-.29-1.8,1.04Z"></path></g></g><polygon class="cls-80 svg-elem-27" points="94.22 247.82 89.67 245.19 89.67 244.22 94.22 246.85 94.22 247.82"></polygon></g><path class="cls-30 svg-elem-28" d="m136.33,153.39c-1.06.61-2,1.46-2.8,2.46-1.28-1.56-3.35-1.97-5.36-.81-.21.12-.41.26-.6.4-1.17-3.66-4.59-5.1-7.88-3.2-3.1,1.79-5.01,5.93-4.64,9.69-.87.07-1.78.35-2.68.86-3.47,2-5.52,6.79-4.79,10.93-.79.08-1.61.34-2.43.8-3.44,1.98-5.43,6.87-4.43,10.92.99,4.05,4.59,5.72,8.04,3.73l31.85-18.34c4.09-2.36,6.46-8.18,5.27-12.99-1.18-4.82-5.46-6.81-9.56-4.45Z"></path><path class="cls-67 svg-elem-29" d="m112.39,175.38l1.38,5.61,20.4-11.77-1.38-5.61-20.4,11.78Zm21.24-6.41l-19.57,11.29-1.14-4.63,19.57-11.3,1.14,4.64Zm-5.87-1.09l.77,3.15-14.09,8.12-.77-3.14,14.09-8.12Zm-14.65,3.97l1.56-.9.09.36-1.9,1.1-1.07-4.34.34-.2.98,3.98Zm3.69-3.48l.03.13c.2.82.04,1.65-.69,2.08-.74.43-1.22-.04-1.42-.86l-.03-.13c-.2-.82-.04-1.65.7-2.08.74-.43,1.22.04,1.42.86Zm-.34.19c-.17-.67-.5-.99-.99-.7-.5.29-.61.86-.45,1.53l.03.13c.17.67.5.99,1,.7.5-.29.61-.86.44-1.53l-.03-.13Zm2.87-.84l.23.82-.28.16-.15-.38c-.1.35-.33.73-.77.98-.46.27-.81.08-.92-.39v-.06c-.17-.64.2-1.06.59-1.37l.72-.58-.02-.08c-.12-.51-.33-.69-.77-.43-.47.27-.5.66-.41,1.04l-.32.18v-.05c-.12-.45-.09-1.08.65-1.51.7-.4,1.02-.08,1.18.57l.27,1.08Zm-.51-.53l-.7.56c-.31.25-.45.55-.37.88v.05c.08.26.28.42.61.23.46-.27.6-.69.65-.91l-.2-.81Zm3.06-.94l.23.82-.28.16-.14-.37c-.07.32-.25.67-.63.89-.69.4-1.12-.1-1.32-.92l-.03-.13c-.2-.82-.09-1.63.6-2.02.35-.2.62-.15.81,0l-.45-1.84.33-.19.89,3.62Zm-.67-1.18c-.15-.13-.41-.28-.75-.09-.47.27-.59.84-.42,1.52l.03.13c.17.69.5.99.97.72.34-.2.47-.57.53-.83l-.36-1.46Zm.59-1.99l.43-.25-.12-.5-.43.25.12.5Zm.94,3.62l.33-.19-.73-2.95-.33.19.73,2.95Zm1.39-4.24c-.43.25-.64.62-.73.97l-.15-.39-.27.16.23.82.52,2.12.33-.19-.54-2.21c.06-.25.19-.63.58-.86.33-.19.6-.11.71.34l.49,2.01.33-.19-.51-2.07c-.14-.55-.5-.79-1-.51Zm3.06-1.69l.27-.16.18.85.53,2.14c.16.66.01,1.3-.7,1.72-.72.42-1.09.06-1.24-.54l-.02-.07.32-.18c.14.56.39.73.85.46.48-.28.59-.67.45-1.21l-.13-.55c-.08.3-.26.6-.61.8-.68.39-1.11-.06-1.3-.82l-.03-.12c-.18-.74-.06-1.53.63-1.92.38-.22.67-.15.86.03l-.05-.42Zm.1.8c-.15-.13-.41-.29-.75-.09-.47.27-.6.81-.45,1.42l.03.12c.15.62.48.89.95.62.35-.2.47-.57.53-.82l-.31-1.25Zm1.48,1.67l.43-.25-.12-.5-.43.25.12.5Zm1.02-.59l.43-.25-.12-.5-.43.25.12.5Zm.9-1.09l.12.5.43-.25-.12-.5-.43.25Z"></path><g><g><path class="cls-4 svg-elem-30" d="m306.48,200.53l-56.54-32.73c-.76-.45-1.77-.67-2.77-.67h-3.62c-1,0-1.99.23-2.76.67l-39.61,22.82c-1.54.89-1.55,2.34-.02,3.23l56.54,32.73c.72.42,1.65.64,2.6.67.06,0,3.7,0,3.76,0,1.01,0,2.02-.22,2.79-.67l39.61-22.82c1.54-.89,1.55-2.34.02-3.23Z"></path><g><g><path class="cls-67 svg-elem-31" d="m203.58,191.4l59.07,34.25,42.04-24.27c1.08-.62,3.04-1.41,1.96-2.04l-58.69-33.91c-.43-.25-3.45-.17-3.88.08l-40.94,23.66c-.85.83-.1,1.91.45,2.23Z"></path><path class="cls-74 svg-elem-32" d="m307.82,200.75c0,.59-.39,1.18-1.16,1.62l-39.61,22.82c-1.54.89-4.04.89-5.57,0l-57.88-33.5c-.76-.44-1.14-1.02-1.14-1.6v1.36c0,.58.39,1.16,1.15,1.6l57.88,33.5c1.53.89,4.03.9,5.57,0l39.61-22.82c.78-.45,1.17-1.04,1.16-1.62v-1.36Z"></path><path class="cls-39 svg-elem-33" d="m306.67,199.15l-57.88-33.5c-1.53-.89-4.03-.9-5.57,0l-39.61,22.82c-1.54.89-1.55,2.34-.02,3.23l57.88,33.5c1.53.89,4.03.9,5.57,0l39.61-22.82c1.54-.89,1.55-2.34.02-3.23Zm-45.81,25.02l-57.3-33.15c-.71-.41-.71-1.44,0-1.86l39.81-22.93c1.65-.95,3.69-.95,5.34,0l56.27,32.56c.22.13.22.44,0,.57l-43.07,24.81c-.32.19-.72.19-1.05,0Z"></path></g><g><path class="cls-35 svg-elem-34" d="m211.95,197.2l-4.4-2.55c-.21-.12-.38-.02-.38.22v.12c0,.24.17.53.38.65l4.4,2.55c.21.12.38.02.38-.22v-.12c0-.24-.17-.53-.38-.65Z"></path><path class="cls-98 svg-elem-35" d="m212.56,197.48c-.03-.08-.07-.17-.13-.24-.06-.08-.13-.15-.21-.2l-4.4-2.55c-.1-.06-.2-.07-.27-.03l-.27.16c.07-.04.16-.03.27.03l4.4,2.55c.08.05.15.12.21.2.05.07.1.16.13.24.02.07.04.14.04.21v.12c0,.12-.04.21-.11.25l.27-.16c.07-.04.11-.12.11-.25v-.12c0-.07-.01-.14-.04-.21Z"></path><path class="cls-85 svg-elem-36" d="m216.99,200.03c-.03-.08-.07-.17-.13-.24-.06-.08-.13-.15-.21-.2l-2.09-1.21c-.1-.06-.2-.07-.27-.03l-.27.16c.07-.04.16-.03.27.03l2.09,1.21c.08.05.15.12.21.2.05.07.1.16.13.24.02.07.04.14.04.21v.12c0,.12-.04.21-.11.25l.27-.16c.07-.04.11-.12.11-.25v-.12c0-.07-.01-.14-.04-.21Z"></path><path class="cls-35 svg-elem-37" d="m216.37,199.74l-2.09-1.21c-.21-.12-.38-.02-.38.22v.12c0,.24.17.53.38.65l2.09,1.21c.21.12.38.02.38-.22v-.12c0-.24-.17-.53-.38-.65Z"></path></g><polygon class="cls-39 svg-elem-38" points="233.13 173.45 218.77 181.73 216.56 181.53 232.77 172.17 233.13 173.45"></polygon><path class="cls-49 svg-elem-39" d="m287.7,211.78l-.74-.43c-.37-.22-1-.19-1.42.05l-2.66,1.53c-.14.08-.25.18-.31.29-.14.25-.06.53.22.69l.75.43c.37.22,1,.19,1.42-.05l2.66-1.53c.14-.08.25-.18.31-.29.14-.25.06-.53-.22-.69Z"></path><path class="cls-39 svg-elem-40" d="m287.7,212.03l-.74-.43c-.37-.22-1-.19-1.42.05l-2.66,1.53c-.14.08-.25.18-.31.29-.02.04-.03.09-.04.13.04.12.13.23.27.3l.75.43c.37.22,1,.19,1.42-.05l2.66-1.53c.14-.08.25-.18.31-.29.02-.04.03-.09.04-.13-.04-.12-.13-.23-.27-.3Z"></path><g><path class="cls-77 svg-elem-41" d="m225.77,177.1c-.24.14-.62.14-.86,0-.24-.14-.24-.36,0-.5.24-.14.62-.14.86,0s.24.36,0,.5Z"></path><g><path class="cls-42 svg-elem-42" d="m225.03,177.04c.18.1.46.09.64-.02.17-.11.17-.27-.01-.37-.18-.1-.46-.09-.64.02-.17.11-.17.27.01.37Z"></path><path class="cls-42 svg-elem-43" d="m225.17,176.94c.1.05.25.05.35,0,.09-.06.09-.15,0-.2-.1-.05-.25-.05-.35,0s-.09.15,0,.2Z"></path><path class="cls-24 svg-elem-44" d="m225.27,176.87s.09.02.13,0,.03-.05,0-.07-.09-.02-.13,0-.03.05,0,.07Z"></path></g></g><path class="cls-77 svg-elem-45" d="m231.36,173.18l-2.76,1.59c-.17.1-.19.25-.04.33.15.09.41.07.58-.02l2.76-1.59c.17-.1.19-.25.04-.33-.15-.09-.41-.07-.58.02Z"></path><path class="cls-77 svg-elem-46" d="m221.39,178.94l-2.76,1.59c-.17.1-.19.25-.04.33s.41.07.58-.02l2.76-1.59c.17-.1.19-.25.04-.33-.15-.09-.41-.07-.58.02Z"></path><g><path class="cls-87 svg-elem-47" d="m287.39,214.47l-1.51.87c-.18.1-.32.04-.32-.13s.14-.4.32-.5l1.51-.87c.18-.1.32-.04.32.14s-.14.4-.32.5Z"></path><g class="cls-54"><path class="cls-31 svg-elem-48" d="m285.31,214.71l-.21.12.75.43.21-.12-.75-.43Zm.46-.27l-.21.12.75.43.21-.12-.75-.43Zm.46-.27l-.21.12.75.43.21-.12-.75-.43Zm.46-.27l-.21.12.75.43.21-.12-.75-.43Z"></path></g></g></g></g><g><path class="cls-46 svg-elem-49" d="m259.41,184.51c-.76.44-1.31.95-1.66,1.5-1.83-.41-3.95-.2-5.38.62-.15.09-.28.18-.41.27-2.56-1.28-6.37-1.25-8.72.1-2.21,1.28-2.37,3.3-.51,4.76-.8.18-1.54.46-2.19.83-2.48,1.43-2.51,3.74-.16,5.29-.72.17-1.39.42-1.97.76-2.46,1.42-2.38,3.76.17,5.22,2.55,1.47,6.62,1.51,9.08.09l22.76-13.11c2.93-1.69,2.83-4.47-.21-6.21-3.04-1.75-7.87-1.79-10.8-.11Z"></path><g><path class="cls-67 svg-elem-50" d="m245.57,197.69l3.54,2.03,14.56-8.41-3.54-2.03-14.56,8.41Zm17.5-6.38l-13.97,8.06-2.92-1.68,13.97-8.07,2.93,1.68Z"></path><polygon class="cls-67 svg-elem-51" points="257.09 191.91 259.07 193.05 249.01 198.85 247.02 197.71 257.09 191.91"></polygon></g><path class="cls-67 svg-elem-52" d="m244.84,196.13l1.12-.64.23.13-1.36.78-2.74-1.57.24-.14,2.51,1.44Zm2.1-2.07l.08.05c.52.3.7.66.17.97-.53.3-1.17.2-1.68-.1l-.08-.05c-.52-.3-.7-.66-.17-.97.53-.3,1.17-.2,1.68.1Zm-.24.14c-.43-.24-.87-.31-1.22-.11-.36.2-.23.46.19.7l.08.05c.43.24.87.31,1.22.11.36-.2.23-.46-.19-.7l-.08-.05Zm2.37-.85l.55.29-.2.11-.3-.13c.04.16-.02.36-.33.54-.33.19-.73.18-1.03,0-.44-.25-.26-.49-.02-.68l.45-.36-.05-.03c-.32-.18-.58-.22-.9-.04-.34.19-.21.36.03.5l-.23.13c-.31-.18-.54-.44,0-.75.5-.29.93-.21,1.34.02l.68.39Zm-.69-.12l-.43.35c-.19.16-.21.3,0,.42.2.11.45.14.69,0,.33-.19.3-.39.25-.49l-.51-.29Zm2.51-.93l.55.29-.2.12-.28-.12c.07.14.03.32-.24.47-.49.28-1.1.16-1.62-.14l-.08-.05c-.52-.3-.73-.65-.24-.93.25-.14.52-.17.76-.15l-1.16-.67.24-.14,2.29,1.31Zm-1.1-.36c-.2-.03-.5-.04-.74.1-.34.2-.22.44.21.69l.08.05c.43.25.87.31,1.2.12.24-.14.22-.32.17-.43l-.92-.53Zm-.24-.91l.3-.18-.32-.18-.3.18.32.18Zm2.34,1.3l.24-.14-1.86-1.07-.24.14,1.86,1.07Zm-.38-1.97c-.31.18-.36.37-.3.52l-.3-.13-.2.11.55.29,1.34.77.24-.14-1.39-.8c-.05-.11-.07-.29.21-.45.24-.14.52-.15.8.01l1.27.73.24-.14-1.3-.75c-.35-.2-.79-.23-1.14-.03Zm2.21-1.23l.2-.11.51.31,1.35.78c.42.24.53.53.02.82-.52.3-1.01.22-1.39,0l-.05-.03.23-.13c.35.2.66.23.99.04.35-.2.29-.38-.05-.57l-.34-.2c.04.14-.01.29-.26.43-.49.28-1.08.17-1.55-.1l-.08-.04c-.47-.27-.67-.61-.18-.89.27-.16.57-.18.82-.14l-.22-.16Zm.41.31c-.2-.03-.5-.04-.74.1-.34.19-.24.44.15.66l.08.04c.39.22.81.28,1.14.08.25-.14.22-.32.17-.43l-.79-.45Zm2.06.41l.3-.18-.32-.18-.3.18.32.18Zm.73-.42l.3-.18-.32-.18-.3.18.32.18Zm.41-.6l.32.18.3-.18-.32-.18-.3.18Z"></path></g></g><path class="cls-5 svg-elem-53" d="m115.72,275.01l-39.31-22.68c-1.03-.6-2.38-.9-3.73-.9h-4.7c-1.42-.02-2.85.28-3.94.91l-20.94,12.09c-2.1,1.21-2.11,3.17-.02,4.38l39.31,22.68c1.06.62,2.47.92,3.86.9h4.76c1.35,0,2.71-.31,3.74-.91l20.94-12.09c2.1-1.21,2.11-3.17.02-4.38Z"></path><path class="cls-5 svg-elem-54" d="m40.33,270.73c1.39.35,28.83,17.21,34.83,21.14,4.43,2.88,6.4,4.37,7.63,5.41,0,0,.1.1.16.15l1.13.9s-.08-.03-.12-.04c.04,0,.08.01.12.04.1.09.16.2.17.33.31.29.88.83,1.01.96.12.11.2.18.23.28.04.16-.08.23-.09.24-.11.06-.23.02-.41-.04-.18-.05-.94-.3-1.34-.42-.15.05-.27.04-.35.02q-.13-.05,0,0l-1.35-.56s-.16-.05-.19-.06c-.22-.08-.48-.18-.81-.31-1.08-.43-2.82-1.21-6.25-3-3.24-1.68-7.98-4.26-15.05-8.27-.68-.39-22.97-13.6-23.65-13.99-1.49-.86,2.74-3.69,4.36-2.76Z"></path><g><g><path class="cls-67 svg-elem-55" d="m112.68,276.13l-22.95,13.25c-.37.21-.81.21-1.18,0l-42.97-24.81c-.79-.45-1.77-1.55-.57-2.9l21.32-12.45c1.41-.85,3.46-1.37,5.09-1.16.72.09,1.62.27,2.03.51l40.27,23.2c1.69.98.65,3.4-1.04,4.38Z"></path><path class="cls-100 svg-elem-56" d="m117.49,274.9c0,.8-.52,1.6-1.58,2.21l-20.94,12.09c-2.1,1.21-5.48,1.21-7.57,0,0,0-41.61-24-41.61-24-1.03-.6-1.55-1.39-1.55-2.18v1.89c.01.79.53,1.58,1.56,2.18l41.61,24c2.09,1.21,5.47,1.21,7.57,0,0,0,20.94-12.09,20.94-12.09,1.05-.61,1.58-1.41,1.58-2.21v-1.89Z"></path><path class="cls-13 svg-elem-57" d="m115.93,272.72l-41.61-24c-2.08-1.21-5.47-1.21-7.57,0l-20.94,12.09c-2.1,1.21-2.11,3.17-.02,4.38l41.61,24c2.08,1.21,5.47,1.21,7.57,0l20.94-12.09c2.1-1.21,2.11-3.17.02-4.38Zm-29.18,15.34l-41.29-23.83c-.99-.57-.99-2,0-2.57l4.78-2.76,3.82-.45,8.71-5.03,1.47-2.61,2.95-1.7c2.1-1.22,4.7-1.22,6.8,0l39.85,23c.34.2.34.69,0,.88l-26.1,15.07c-.31.18-.7.18-1.01,0Z"></path><path class="cls-99 svg-elem-58" d="m106.29,280.4l-.96-.56c-.48-.28-1.29-.25-1.83.07l-3.44,1.99c-.18.11-.32.24-.41.38-.19.32-.07.68.29.89l.96.56c.48.28,1.29.25,1.83-.07l3.44-1.99c.18-.11.32-.24.41-.38.19-.32.07-.68-.29-.89Z"></path><g class="cls-36"><path class="cls-13 svg-elem-59" d="m106.29,280.76l-.96-.56c-.48-.28-1.29-.25-1.83.07l-3.44,1.99c-.18.11-.32.24-.41.38-.03.05-.04.1-.05.15.05.15.17.28.34.38l.96.56c.48.28,1.29.25,1.83-.07l3.44-1.99c.18-.11.32-.24.41-.38.03-.05.04-.1.05-.15-.05-.15-.17-.28-.34-.38Z"></path></g><path class="cls-108 svg-elem-60" d="m59.47,253.77l-4.25,2.46c-.21.12-.23.3-.05.4s.49.09.7-.03l4.25-2.46c.21-.12.23-.3.05-.4s-.49-.09-.7.03Z"></path><g><g><path class="cls-65 svg-elem-61" d="m53.25,270.33c-.04-.11-.09-.21-.16-.3-.08-.1-.17-.19-.27-.25l-3.46-2c-.13-.07-.25-.08-.33-.03l-.34.2c.08-.05.2-.04.33.03l3.46,2c.1.06.19.14.27.25.07.09.12.2.16.3.03.09.05.18.05.27v.15c0,.15-.05.26-.14.31l.34-.2c.09-.05.14-.16.14-.31v-.15c0-.09-.02-.18-.05-.27Z"></path><path class="cls-35 svg-elem-62" d="m52.49,269.98l-3.46-2c-.26-.15-.47-.03-.47.28v.15c0,.3.21.67.47.81l3.46,2c.26.15.47.02.47-.28v-.15c0-.3-.21-.67-.47-.81Z"></path></g><g><path class="cls-57 svg-elem-63" d="m58.53,273.38c-.04-.11-.09-.21-.16-.3-.08-.1-.17-.19-.27-.25l-3.46-2c-.13-.07-.25-.08-.33-.03l-.34.2c.08-.05.2-.04.33.03l3.46,2c.1.06.19.14.27.25.07.09.12.2.16.3.03.09.05.18.05.27v.15c0,.15-.05.26-.14.31l.34-.2c.09-.05.14-.16.14-.31v-.15c0-.09-.02-.18-.05-.27Z"></path><path class="cls-35 svg-elem-64" d="m57.76,273.03l-3.46-2c-.26-.15-.47-.03-.47.28v.15c0,.3.21.67.47.81l3.46,2c.26.15.47.02.47-.28v-.15c0-.3-.21-.67-.47-.81Z"></path></g></g><g><path class="cls-108 svg-elem-65" d="m53.58,257.97c-.24.14-.62.14-.85,0-.23-.14-.23-.36,0-.49.24-.14.62-.14.85,0,.23.14.23.36,0,.49Z"></path><g><path class="cls-41 svg-elem-66" d="m52.86,257.91c.18.1.46.09.63-.02s.17-.27-.01-.36c-.18-.1-.46-.09-.63.02-.17.11-.17.27.01.36Z"></path><path class="cls-41 svg-elem-67" d="m52.99,257.81c.1.05.25.05.34,0,.09-.06.09-.15,0-.2-.1-.05-.25-.05-.34,0-.09.06-.09.15,0,.2Z"></path><path class="cls-23 svg-elem-68" d="m53.09,257.74s.09.02.13,0c.03-.02.03-.05,0-.07-.04-.02-.09-.02-.13,0-.03.02-.03.05,0,.07Z"></path></g></g><g><path class="cls-50 svg-elem-69" d="m106.17,284.24l-2.45,1.41c-.29.16-.52.07-.52-.22s.23-.65.52-.82l2.45-1.41c.29-.16.52-.07.52.22s-.23.65-.52.82Z"></path><g class="cls-44"><path class="cls-27 svg-elem-70" d="m102.78,284.63l-.34.2,1.21.7.34-.2-1.21-.7Zm.75-.43l-.34.2,1.21.7.34-.2-1.21-.7Zm.75-.43l-.34.2,1.21.7.34-.2-1.21-.7Zm.75-.43l-.34.2,1.21.7.34-.2-1.21-.7Z"></path></g></g></g><g><g><polygon class="cls-22 svg-elem-71" points="109.94 271.72 86.04 285.52 53.66 266.83 77.56 253.03 109.94 271.72"></polygon><polygon class="cls-90 svg-elem-72" points="77.7 253.1 53.8 266.9 51.24 265.43 75.14 251.63 77.7 253.1"></polygon></g><g><polygon class="cls-22 svg-elem-73" points="109.94 266.35 86.04 280.15 53.66 261.46 77.56 247.66 109.94 266.35"></polygon><polygon class="cls-90 svg-elem-74" points="77.7 247.74 53.8 261.53 51.24 260.06 75.14 246.26 77.7 247.74"></polygon></g><g><g><polygon class="cls-22 svg-elem-75" points="109.94 261.03 86.04 274.82 53.66 256.13 77.56 242.33 109.94 261.03"></polygon><polygon class="cls-64 svg-elem-76" points="77.7 242.41 53.8 256.21 51.24 254.73 75.14 240.93 77.7 242.41"></polygon></g><path class="cls-112 svg-elem-77" d="m90.5,254.02l-2.14,1.23-.29-.17,2.14-1.23.29.17Zm.08.94l-2.37,1.37.29.17,2.37-1.37-.29-.17Zm-.37,1.53l-1.85,1.07.29.17,1.85-1.07-.29-.17Zm-5.18.69l3.05-1.76-.29-.17-3.05,1.76.29.17Zm2.9-.69l-1.58.91.29.17,1.58-.91-.29-.17Zm-6.84,2.96l3.66-2.11-.29-.17-3.66,2.11.29.17Zm4.97-1.88l-3.61,2.08.29.17,3.61-2.08-.29-.17Zm2.02.15l-2.03,1.17.29.17,2.03-1.17-.29-.17Zm-3.63-1.53l3.68-2.12-.29-.17-3.68,2.12.29.17Zm4.78-3.09l-1.1.63.29.17,1.1-.63-.29-.17Zm-1.36,6.49l-1.63.94.29.17,1.63-.94-.29-.17Zm7.19-2.83l-2.32,1.34.29.17,2.32-1.34-.29-.17Zm-.91-.8l-2.03,1.17.29.17,2.03-1.17-.29-.17Zm-3.62,3.41l-3.05,1.76.29.17,3.05-1.76-.29-.17Zm-2.96,3.36l1.63-.94-.29-.17-1.63.94.29.17Zm4.88-4.47l-1.63.94.29.17,1.63-.94-.29-.17Zm.43,1.07l-3.68,2.12.29.17,3.68-2.12-.29-.17Zm-1.05-2.03l-3.68,2.12.29.17,3.68-2.12-.29-.17Zm-7.96-1.11l-1.63.94.29.17,1.63-.94-.29-.17Zm2.36,4.67l-.29-.17-2.03,1.17.29.17,2.03-1.17Zm-.48-1.81l-4.68,2.7.29.17,4.68-2.7-.29-.17Zm-3.6.76l-4.62,2.67.29.17,4.62-2.67-.29-.17Zm-1.08,2.27l-.29-.17-.93.54.29.17.93-.54Zm9.81,3.05l-4.68,2.7.29.17,4.68-2.7-.29-.17Zm1.17.98l-.29-.17-3.61,2.08.29.17,3.61-2.08Zm-12.49-3.49l-4.15,2.4.29.17,4.15-2.4-.29-.17Zm3.71,6.91l.29.17,2.65-1.53-.29-.17-2.65,1.53Zm1.42.83l3.46-2-.29-.17-3.46,2,.29.17Zm-11.26-6.5l3.46-2-.29-.17-3.46,2,.29.17Zm5.51,1.21l-.29-.17-1.71.99.29.17,1.71-.99Zm1.85-5.46l-.29-.17-3.61,2.08.29.17,3.61-2.08Zm-6.23,4.91l2.97-1.72-.29-.17-2.97,1.72.29.17Zm5.63-5.89l2.03-1.17-.29-.17-2.03,1.17.29.17Zm-7.9,4.56l2.65-1.53-.29-.17-2.65,1.53.29.17Zm2.93-1.69l4.68-2.7-.29-.17-4.68,2.7.29.17Zm9.43,2.56l-5.49,3.17.29.17,5.49-3.17-.29-.17Zm11.88-6.86l-3.39,1.96.29.17,3.39-1.96-.29-.17Zm-.27,6.46l3.05-1.76-.29-.17-3.05,1.76.29.17Zm3.34-1.93l2.14-1.23-.29-.17-2.14,1.23.29.17Zm.04-1.34l1.1-.63-.29-.17-1.1.63.29.17Zm-14.11,4.48l-5.22,3.01.29.17,5.22-3.01-.29-.17Zm13.68-5.55l1.38-.8-.29-.17-1.38.8.29.17Zm-9.78,5.31l-7.37,4.26.29.17,7.37-4.26-.29-.17Zm-3.63,6.38l2.97-1.72-.29-.17-2.97,1.72.29.17Zm3.26-1.88l4.62-2.67-.29-.17-4.62,2.67.29.17Zm4.9-2.83l3.61-2.08-.29-.17-3.61,2.08.29.17Zm3.9-2.25l1.58-.91-.29-.17-1.58.91.29.17Zm-10.7-2.77l-3.66,2.11.29.17,3.66-2.11-.29-.17Zm8.52,2.37l-3.66,2.11.29.17,3.66-2.11-.29-.17Zm-.59-.98l-1.63.94.29.17,1.63-.94-.29-.17Zm-1.63,1.27l-.29-.17-2.03,1.17.29.17,2.03-1.17Zm5.6-3.56l-3.68,2.12.29.17,3.68-2.12-.29-.17Zm-2.35.04l-3.05,1.76.29.17,3.05-1.76-.29-.17Zm-7.25,2.16l-3.66,2.11.29.17,3.66-2.11-.29-.17Zm9.17-3.27l-1.63.94.29.17,1.63-.94-.29-.17Zm-15.04,2.71l-4.68,2.7.29.17,4.68-2.7-.29-.17Zm9.78.33l-3.66,2.11.29.17,3.66-2.11-.29-.17Zm-10.16,1.21l-5.18,2.99.29.17,5.18-2.99-.29-.17Zm4.03-.68l-.29-.17-2.03,1.17.29.17,2.03-1.17Z"></path><g><polygon class="cls-55 svg-elem-78" points="73.05 244.42 71.62 245.25 70.19 244.42 71.62 243.6 73.05 244.42"></polygon><polygon class="cls-55 svg-elem-79" points="74.82 243.4 73.39 244.23 71.96 243.4 73.39 242.57 74.82 243.4"></polygon><path class="cls-112 svg-elem-80" d="m72.41,243.4l.98.56.98-.56-.98-.56-.98.56Zm1.62,0l-.64.37-.64-.37.64-.37.64.37Z"></path><polygon class="cls-55 svg-elem-81" points="76.6 242.38 75.17 243.2 73.73 242.38 75.17 241.55 76.6 242.38"></polygon><polygon class="cls-112 svg-elem-82" points="74.32 242.45 75.09 242.45 75.09 242.89 75.33 242.89 75.33 242.45 76.1 242.45 76.1 242.3 75.33 242.3 75.33 241.86 75.09 241.86 75.09 242.3 74.32 242.3 74.32 242.45"></polygon><polygon class="cls-112 svg-elem-83" points="72.58 244.44 71.66 244.97 71.48 244.87 72.4 244.34 72.58 244.44"></polygon></g></g></g><g><path class="cls-112 svg-elem-84" d="m77.93,249.24c-.39.22-.67.48-.85.76-.93-.21-2.01-.1-2.74.32-.08.04-.14.09-.21.14-1.31-.65-3.25-.64-4.44.05-1.13.65-1.21,1.68-.26,2.42-.41.09-.79.23-1.11.42-1.26.73-1.28,1.9-.08,2.7-.37.09-.71.22-1,.39-1.25.72-1.21,1.91.09,2.66s3.37.77,4.63.04l11.6-6.68c1.49-.86,1.44-2.28-.1-3.17-1.55-.89-4.01-.91-5.5-.06Z"></path><path class="cls-67 svg-elem-85" d="m70.88,255.96l1.8,1.04,7.42-4.28-1.8-1.04-7.42,4.28Zm8.92-3.25l-7.12,4.11-1.49-.86,7.12-4.11,1.49.86Zm-3.05.31l1.01.58-5.13,2.96-1.01-.58,5.13-2.96Zm-6.24,2.15l.57-.33.12.07-.69.4-1.4-.8.12-.07,1.28.74Zm1.07-1.05c.31.18.4.36.13.52-.27.16-.59.1-.86-.05-.31-.18-.4-.36-.13-.52.27-.16.59-.1.86.05Zm-.12.07c-.22-.12-.44-.16-.62-.06-.18.1-.12.23.1.36.26.15.48.18.67.08.18-.1.12-.23-.1-.36l-.04-.02Zm1.21-.43l.28.15-.1.06-.15-.07c.02.08-.01.18-.17.27-.17.1-.37.09-.52,0-.22-.13-.13-.25,0-.35l.23-.18c-.19-.11-.32-.13-.48-.03-.17.1-.11.18.02.25l-.12.07c-.16-.09-.27-.23,0-.38.25-.15.47-.11.68.01l.35.2Zm-.35-.06l-.22.18c-.1.08-.11.15,0,.22.1.06.23.07.35,0,.17-.1.15-.2.13-.25l-.26-.15Zm1.28-.47l.28.15-.1.06-.14-.06c.03.07.01.16-.12.24-.25.14-.56.08-.82-.07-.31-.18-.42-.35-.17-.5.13-.07.27-.09.39-.08l-.59-.34.12-.07,1.16.67Zm-.56-.18c-.1-.01-.26-.02-.38.05-.17.1-.11.23.11.35.26.15.48.18.66.09.12-.07.11-.16.09-.22l-.47-.27Zm-.12-.46l.16-.09-.16-.09-.16.09.16.09Zm1.19.66l.12-.07-.95-.55-.12.07.95.55Zm-.19-1c-.16.09-.18.19-.15.27l-.15-.07-.1.06.28.15.68.39.12-.07-.71-.41c-.02-.06-.04-.15.11-.23.12-.07.26-.08.41,0l.65.37.12-.07-.66-.38c-.18-.1-.4-.12-.58-.01Zm1.13-.63l.1-.06.26.16.69.4c.21.12.27.27.01.42-.26.15-.51.11-.71,0-.02-.01.09-.08.09-.08.18.1.33.12.51.02.18-.1.15-.19-.03-.29l-.18-.1c.02.07,0,.15-.13.22-.25.14-.55.09-.79-.05-.28-.16-.38-.33-.13-.48.14-.08.29-.09.42-.07l-.11-.08Zm.21.16c-.1-.01-.25-.02-.38.05-.17.1-.12.22.07.33.24.14.45.16.62.06.13-.07.11-.16.09-.22l-.4-.23Zm1.05.21l.16-.09-.16-.09-.16.09.16.09Zm.37-.21l.16-.09-.16-.09-.16.09.16.09Zm.21-.31l.16.09.16-.09-.16-.09-.16.09Z"></path></g></g><g><g><path class="cls-73 svg-elem-86" d="m83.69,298.52c0,.2.07.34.2.39.09.03.24.07.45-.04.41-.22.74-.96.34-1.31-.1-.08-.25-.08-.42,0-.31.17-.56.6-.57.95Z"></path><path class="cls-104 svg-elem-87" d="m35.97,271.64c0-.07.01-.1.01-.13.02-.22.06-.43.12-.62.01-.04.02-.07.04-.1.06-.19.13-.36.21-.52.02-.04.04-.08.06-.12.08-.15.17-.28.26-.4.03-.04.06-.08.09-.12.12-.14.23-.26.34-.35.03-.03.07-.06.1-.09.18-.15.33-.24.37-.26.2-.1.83-.42,1.42-.1.29.15,23.55,13.59,36.76,22.26,4.43,2.88,6.4,4.37,7.63,5.41,0,0,.12.12.17.16.09.09.14.23.14.42,0,.45-.33.99-.72,1.2-.12.07-.24.09-.44.05-.02,0-.07-.01-.11-.03-.03,0-.05-.01-.09-.02-.22-.08-.48-.18-.81-.31-1.08-.43-2.82-1.21-6.25-3-3.24-1.68-7.98-4.26-15.05-8.27-10.27-5.82-23.38-13.58-23.61-13.73-.02-.01-.05-.03-.05-.03-.2-.12-.31-.29-.4-.47-.03-.06-.07-.12-.09-.19,0-.03-.01-.05-.02-.08-.02-.09-.05-.18-.06-.28,0-.06,0-.1-.01-.15,0-.05-.01-.1-.01-.15,0,0,0,0,0,0Z"></path><path class="cls-97 svg-elem-88" d="m83,296.66c.21-.12.4-.11.53-.01l1.14.91c-.1-.08-.25-.08-.42.01-.31.17-.56.6-.57.95,0,.2.07.34.19.39l-1.35-.56c-.15-.06-.25-.23-.25-.49,0-.45.33-.99.72-1.2Z"></path><path class="cls-97 svg-elem-89" d="m84.38,297.77c.14-.08.27-.07.35,0,.26.25.98.92,1.12,1.06-.03-.03-.09-.04-.15,0-.11.06-.2.21-.2.33,0,.07.03.12.08.14-.19-.06-1.14-.36-1.48-.46-.11-.03-.18-.15-.17-.31,0-.28.21-.63.46-.76Z"></path><path class="cls-73 svg-elem-90" d="m85.7,298.84c.06-.03.12-.03.15,0,.12.11.2.19.23.28.04.16-.08.23-.09.24-.11.06-.23.02-.41-.04-.05-.02-.08-.06-.07-.14,0-.13.09-.28.2-.33Z"></path></g><polygon class="cls-99 svg-elem-91" points="38.6 270.91 53.6 279.58 54.85 278.86 39.84 270.2 38.6 270.91"></polygon><g class="cls-45"><polygon class="cls-71 svg-elem-92" points="41.64 271.47 42.63 270.9 39.81 270.3 38.83 270.87 41.64 271.47"></polygon><polygon class="cls-33 svg-elem-93" points="53.72 278.74 54.71 278.16 54.71 277.88 53.72 278.45 53.72 278.74"></polygon><polygon class="cls-70 svg-elem-94" points="53.72 278.45 54.71 277.88 42.63 270.9 41.64 271.47 53.72 278.45"></polygon><polygon class="cls-35 svg-elem-95" points="41.64 271.47 38.83 270.87 42.28 272.87 42.92 272.5 53.72 278.74 53.72 278.45 41.64 271.47"></polygon></g></g><g><path class="cls-5 svg-elem-96" d="m161.04,289.25h-18.35c-5.97,0-20.03,13.63-14.8,16.2v.09c-.2,1.29.81,2.45,2.11,2.45h9.98c2.14,0,4.24-.56,6.09-1.63l.86-.5h14.11v-16.61Z"></path><g><g id="Axonometric_Cylinder"><ellipse id="Cylinder_face" class="cls-107 svg-elem-97" cx="159.44" cy="273.97" rx="14.23" ry="8.21"></ellipse><ellipse id="Cylinder_face-2" class="cls-103 svg-elem-98" cx="159.44" cy="273.97" rx="12.73" ry="7.35"></ellipse><path class="cls-82 svg-elem-99" d="m168.44,272.55c-4.97-2.87-13.03-2.87-18,0-1.65.95-2.73,2.1-3.29,3.31.56,1.21,1.64,2.36,3.29,3.31,4.97,2.87,13.03,2.87,18,0,1.65-.95,2.73-2.1,3.29-3.31-.56-1.21-1.64-2.36-3.29-3.31Z"></path><path id="Cylinder_body" class="cls-101 svg-elem-100" d="m173.66,273.9v23.73c.03,2.13-1.36,4.26-4.17,5.88-5.56,3.21-14.56,3.21-20.12,0-2.74-1.58-4.13-3.66-4.17-5.73v-23.73c.03,2.08,1.42,4.15,4.17,5.73,5.56,3.21,14.56,3.21,20.12,0,2.81-1.62,4.2-3.76,4.17-5.88Z"></path><path class="cls-60 svg-elem-101" d="m169.5,279.78c-2.37,1.37-5.37,2.15-8.45,2.35v23.73c3.09-.2,6.09-.98,8.45-2.35,2.81-1.62,4.2-3.76,4.17-5.88v-23.73c.03,2.13-1.36,4.26-4.17,5.88Z"></path><path class="cls-59 svg-elem-102" d="m171.29,278.52v23.73c1.61-1.39,2.4-3.01,2.38-4.62v-23.73c.03,1.61-.77,3.23-2.38,4.62Z"></path></g><g class="cls-45"><path class="cls-106 svg-elem-103" d="m151.11,298.62c-.13-.36-.6-.83-1.24-1.2l-.4-.23c-.76-.44-1.52-.61-1.84-.42l-.08.05-.08.05-.09.05-.09.05-.09.05-.1.06-.1.06-.1.06-.11.06-.11.06-.11.06-.11.06-.11.07-.11.07-.12.07-.12.07-.12.07-.12.07-.24.14s.05-.02.08-.02c-.03,0-.06,0-.08.02-.46.25-.84.37-1.12.34.16.03,2.84,3.52,4.1,2.8l2.61-2.14s.03-.07.04-.11c.01-.07,0-.16-.03-.25Z"></path><path class="cls-89 svg-elem-104" d="m151.11,300.81l-2.02,1.17c-2.42,1.4-4.41.27-4.42-2.52l-.02-7.61c-.2.12-1.08-.21-1.96-.72l-.4-.23c-.76-.44-1.28-.88-1.28-1.07v.76s0,.76,0,.76v.76s0,.76,0,.76v.76s0,.76,0,.76v.76s0,.76,0,.76v.76s0,.76,0,.76c.04,1.63.49,2.82,2.67,4.12l.4.23c2.41,1.39,3.71.91,4.95.25l.12-.07.12-.07.12-.07.12-.07.12-.07.12-.07.11-.07.11-.07.11-.06.11-.06.11-.06.11-.06.1-.06.1-.06.1-.06.09-.05.09-.05.09-.05.08-.05.08-.05s-.01,0-.04-.02Z"></path><path class="cls-68 svg-elem-105" d="m151.07,282.73c-.13-.36-.6-.83-1.24-1.2l-.4-.23c-.76-.44-1.52-.61-1.84-.42l-.08.05-.08.05-.09.05-.09.05-.09.05-.1.06-.1.06-.1.06-.11.06-.11.06-.11.06-.11.06-.11.07-.11.07-.12.07-.12.07-.12.07-.12.07-.12.07-.12.07q.16-.09-.01,0c-2.57,1.61-4.36,4.72-4.46,7.73,0,.19.52.63,1.28,1.07l.4.23c.88.51,1.76.84,1.96.72,0-2.79,6.41-8.77,6.41-8.77.02-.03.03-.07.04-.11.01-.07,0-.16-.03-.25Z"></path><path class="cls-83 svg-elem-106" d="m149.05,286.08c.75-.43,1.6-.92,2.06-1.19,0-.04,0-.13,0-.13v-.1s0-.1,0-.1v-.1s0-.1,0-.1v-.11s0-.11,0-.11v-.11s0-.11,0-.11v-.11s0-.11,0-.11v-.11s0-.11,0-.11v-.1s0-.1,0-.1v-.1s0-.1,0-.1v-.09s0-.09,0-.09c0,.06-.01.11-.04.16-.43.25-1.23.71-2.02,1.17-2.42,1.4-4.4,4.81-4.39,7.6,0,2.54.01,5.08.02,7.61,0,2.79,1.99,3.92,4.42,2.52.79-.46,1.59-.92,2.02-1.17.04.02.04-.06.04-.06v-.09s0-.1,0-.1v-.1s0-.1,0-.1v-.1s0-.11,0-.11v-.11s0-.11,0-.11v-.11s0-.11,0-.11v-.11s0-.11,0-.11v-.11s0-.1,0-.1v-.1s0-.1,0-.1v-.1s0-.09,0-.09v-.09c0,.06-.01.11-.04.16-.43.25-1.23.71-2.02,1.17-1.55.89-2.81.17-2.81-1.6,0-2.54-.01-5.08-.02-7.61,0-1.78,1.25-3.95,2.8-4.84Z"></path></g></g></g></g><g><g><polygon class="cls-22 svg-elem-107" points="218.81 96.25 169.33 124.82 169.33 178.2 218.85 149.61 218.81 96.25"></polygon><path class="cls-112 svg-elem-108" d="m194.28,120.78v.59l4.32-2.49v-.59l-4.32,2.49Zm4.93-2.85v.59l3.47-2.01v-.59l-3.47,2.01Zm.22,2.23v.59l6.49-3.75v-.59l-6.49,3.75Zm-7.78,6.85v.59l4.32-2.49v-.59l-4.32,2.49Zm7.17-6.5l-7.78,4.49v.59l7.78-4.49v-.59Zm1.23,1.64l-3.47,2.01v.59l3.47-2.01v-.59Zm11.07-11.1l-7.83,4.52v.59l7.83-4.52v-.59Zm-20.69,14.89v-.59l-15.69,9.06v.59l15.69-9.06Zm-7.33,1.87v-.59l-8.35,4.82v.59l8.35-4.82Zm17.56-6.02v.59l7.83-4.52v-.59l-7.83,4.52Zm5.87-5.75v.59l3.47-2.01v-.59l-3.47,2.01Zm-26.06,17.99v-.59l-5.63,3.25v.59l5.63-3.25Zm10.56-6.69l-9.95,5.74v.59l9.95-5.74v-.59Zm2.63-5.64v-.59l-9.95,5.74v.59l9.95-5.74Zm-2.02,8.81v.59l4.32-2.49v-.59l-4.32,2.49Zm-1.16,3.62v-.59l-7.68,4.43v.59l7.68-4.43Zm9.57-8.47l-3.47,2.01v.59l3.47-2.01v-.59Zm-7.88,9.26v.59l7.68-4.43v-.59l-7.68,4.43Zm8.49-9.61v.59l7.83-4.52v-.59l-7.83,4.52Zm5.92-.47l4.55-2.63v-.59l-4.55,2.63v.59Zm-6.12,5.3v.59l3.36-1.94v-.59l-3.36,1.94Zm-19.99,7.42v-.59l-5.63,3.25v.59l5.63-3.25Zm10.56-6.69l-9.95,5.74v.59l9.95-5.74v-.59Zm.06,2.32v.59l7.78-4.49v-.59l-7.78,4.49Zm14.88-8.59l-6.49,3.75v.59l6.49-3.75v-.59Zm-4.26,7.17l-4.32,2.49v.59l4.32-2.49v-.59Zm9.72-12.68l-2.34,1.35v.59l2.34-1.35v-.59Zm-9.11,12.92l3.93-2.27v-.59l-3.93,2.27v.59Zm2.11-3.57l5.04-2.91v-.59l-5.04,2.91v.59Zm-7.65,6.18l-9.95,5.74v.59l9.95-5.74v-.59Zm-13.16,7.6l-8.84,5.1v.59l8.84-5.1v-.59Zm-2.5-.91l-6.32,3.65v.59l6.32-3.65v-.59Zm5.1,0v-.59l-1.99,1.15v.59l1.99-1.15Zm-4.03-2.38v-.59l-7.37,4.26v.59l7.37-4.26Zm9.37-3.05v-.59l-9.82,5.67v.59l9.82-5.67Zm4.46,7.03l7.83-4.52v.59l-7.83,4.52v-.59Zm-1.79,3.98v-.59l-7.78,4.49v.59l7.78-4.49Zm-2.29-1.03l3.47-2.01v-.59l-3.47,2.01v.59Zm-.61.35v-.59l-4.32,2.49v.59l4.32-2.49Zm10.57-8.46l3.47-2.01v-.59l-3.47,2.01v.59Zm2.57.28v.59l7.22-4.17v-.59l-7.22,4.17Zm-18.62,13.7v-.59l-11.1,6.41v.59l11.1-6.41Zm.56-5.03l7.78-4.49v-.59l-7.78,4.49v.59Zm8.39-4.84l6.49-3.75v-.59l-6.49,3.75v.59Zm-9,5.2v-.59l-11.02,6.37v.59l11.02-6.37Zm20.19-11.66l4.93-2.85v-.59l-4.93,2.85v.59Zm-19.58,13.07l-11.68,6.74v.59l11.68-6.74v-.59Zm-11.57,2.56l3.64-2.1v-.59l-3.64,2.1v.59Zm32.27-19.22v.59l4.32-2.5v-.59l-4.32,2.5Zm-8.44,5.47l7.83-4.52v-.59l-7.83,4.52v.59Zm-4.08,2.36l3.47-2.01v-.59l-3.47,2.01v.59Zm-4.93,2.85l4.32-2.49v-.59l-4.32,2.49v.59Zm-10.56,6.1l9.95-5.74v-.59l-9.95,5.74v.59Zm20.36-1.67v.59l6.49-3.75v-.59l-6.49,3.75Zm-7.78,6.85v.59l4.32-2.49v-.59l-4.32,2.49Zm7.17-6.5l-7.78,4.49v.59l7.78-4.49v-.59Zm-8.34,10.12v-.59l-7.68,4.43v.59l7.68-4.43Zm9.57-8.47l-3.47,2.01v.59l3.47-2.01v-.59Zm-9.62,3.79v-.59l-15.69,9.06v.59l15.69-9.06Zm1.74,5.47v.59l7.68-4.43v-.59l-7.68,4.43Zm8.49-9.61v.59l7.83-4.52v-.59l-7.83,4.52Zm5.87-5.75v.59l3.47-2.01v-.59l-3.47,2.01Zm.05,5.28l4.55-2.63v-.59l-4.55,2.63v.59Zm-6.12,5.3v.59l3.36-1.94v-.59l-3.36,1.94Zm-19.99,7.42v-.59l-5.63,3.25v.59l5.63-3.25Zm10.56-6.69l-9.95,5.74v.59l9.95-5.74v-.59Zm.06,2.32v.59l7.78-4.49v-.59l-7.78,4.49Zm14.88-8.59l-6.49,3.75v.59l6.49-3.75v-.59Zm4.64-7.39v.59l2.95-1.7v-.59l-2.95,1.7Zm.82,1.88l-2.34,1.35v.59l2.34-1.35v-.59Zm-30.31,22.21l-6.32,3.65v.59l6.32-3.65v-.59Zm1.06-2.38v-.59l-7.37,4.26v.59l7.37-4.26Zm9.37-3.05v-.59l-9.82,5.67v.59l9.82-5.67Z"></path><polygon class="cls-64 svg-elem-109" points="218.81 96.25 169.33 124.82 169.33 129.6 218.81 101.03 218.81 96.25"></polygon></g><g><polygon class="cls-55 svg-elem-110" points="210.18 105.13 206.99 106.97 206.99 103.78 210.18 101.94 210.18 105.13"></polygon><polygon class="cls-55 svg-elem-111" points="214.13 102.85 210.94 104.69 210.94 101.5 214.13 99.66 214.13 102.85"></polygon><path class="cls-112 svg-elem-112" d="m211.45,101.72v2.18l2.18-1.26v-2.18l-2.18,1.26Zm1.8.76l-1.43.83v-1.43l1.43-.83v1.43Z"></path><polygon class="cls-55 svg-elem-113" points="218.09 100.57 214.9 102.41 214.9 99.22 218.09 97.38 218.09 100.57"></polygon><polygon class="cls-112 svg-elem-114" points="215.42 99.71 216.27 100.07 215.42 101.41 215.69 101.52 216.55 100.18 217.4 100.54 217.67 100.11 216.82 99.75 217.67 98.41 217.4 98.29 216.55 99.63 215.69 99.27 215.42 99.71"></polygon><polygon class="cls-112 svg-elem-115" points="209.63 104.95 207.58 106.13 207.58 105.74 209.63 104.56 209.63 104.95"></polygon></g></g><g><g><polygon class="cls-22 svg-elem-116" points="89.2 121.83 39.72 150.39 39.72 182.49 89.24 153.9 89.2 121.83"></polygon><path class="cls-112 svg-elem-117" d="m66.41,146.42l7.83-4.52v.59l-7.83,4.52v-.59Zm-1.18,3.04v.59l6.49-3.75v-.59l-6.49,3.75Zm-.61.95v-.59l-3.97,2.29v.59l3.97-2.29Zm-3.97-.06l5.15-2.97v-.59l-5.15,2.97v.59Zm11.63-9.07l3.47-2.01v-.59l-3.47,2.01v.59Zm2.57.28v.59l7.22-4.17v-.59l-7.22,4.17Zm4.62-.31l-7.13,4.12v.59l7.13-4.12v-.59Zm-18.81,6.74l3.91-2.26v-.59l-3.91,2.26v.59Zm4.52-2.61l6.49-3.75v-.59l-6.49,3.75v.59Zm11.19-6.46l4.93-2.85v-.59l-4.93,2.85v.59Zm-11.14,14.35v.59l6.49-3.75v-.59l-6.49,3.75Zm-.61.95v-.59l-3.92,2.26v.59l3.92-2.26Zm-3.91,4.02v.59l8.28-4.78v-.59l-8.28,4.78Zm8.89-5.13v.59l3.47-2.01v-.59l-3.47,2.01Zm.22,2.23v.59l6.49-3.75v-.59l-6.49,3.75Zm-9.07,7.59v.59l5.61-3.24v-.59l-5.61,3.24Zm8.46-7.24l-8.49,4.9v.59l8.49-4.9v-.59Zm1.23,1.64l-3.47,2.01v.59l3.47-2.01v-.59Zm11.07-11.1l-7.83,4.52v.59l7.83-4.52v-.59Zm-2.04-1.18l-7.13,4.12v.59l7.13-4.12v-.59Zm-8.41,11.93v.59l7.83-4.52v-.59l-7.83,4.52Zm5.87-5.75v.59l3.47-2.01v-.59l-3.47,2.01Zm3.15-6.53v.59l4.17-2.41v-.59l-4.17,2.41Zm.93,4.18v.59l2.14-1.24v-.59l-2.14,1.24Zm.82,1.88l-2.34,1.35v.59l2.34-1.35v-.59Z"></path><path class="cls-19 svg-elem-118" d="m56.6,156.46v-2.67c0-2.7-2.2-3.63-4.91-2.07s-4.91,5.03-4.91,7.74v2.64c-.92.67-1.62,1.86-1.62,2.82v6.43c0,1.06.86,1.42,1.91.81l9.07-5.24c1.06-.61,1.91-1.96,1.91-3.01v-6.43c0-.9-.62-1.29-1.46-1.01Zm-4.91-3.6c2.07-1.2,3.76-.48,3.76,1.59v2.61l-7.52,4.34v-2.61c0-2.07,1.69-4.73,3.76-5.93Zm.33,10.74v3.13l-.82.47v-3.13c-.37.06-.64-.16-.64-.59,0-.58.47-1.31,1.04-1.65.58-.33,1.04-.14,1.04.44,0,.43-.26.95-.64,1.33Z"></path><polygon class="cls-64 svg-elem-119" points="89.2 121.83 39.72 150.39 39.72 155.17 89.2 126.6 89.2 121.83"></polygon></g><g><polygon class="cls-55 svg-elem-120" points="80.56 130.75 77.37 132.59 77.37 129.4 80.56 127.56 80.56 130.75"></polygon><polygon class="cls-55 svg-elem-121" points="84.51 128.46 81.32 130.31 81.32 127.12 84.51 125.27 84.51 128.46"></polygon><path class="cls-112 svg-elem-122" d="m81.82,127.33v2.18l2.18-1.26v-2.18l-2.18,1.26Zm1.8.76l-1.43.83v-1.43l1.43-.83v1.43Z"></path><polygon class="cls-55 svg-elem-123" points="88.46 126.18 85.27 128.02 85.27 124.83 88.46 122.99 88.46 126.18"></polygon><polygon class="cls-112 svg-elem-124" points="85.79 125.32 86.65 125.68 85.79 127.02 86.07 127.14 86.92 125.8 87.77 126.16 88.05 125.72 87.19 125.36 88.05 124.02 87.77 123.9 86.92 125.25 86.07 124.89 85.79 125.32"></polygon><polygon class="cls-112 svg-elem-125" points="80 130.57 77.96 131.74 77.96 131.36 80 130.18 80 130.57"></polygon></g></g><g><path class="cls-46 svg-elem-126" d="m234.8,181.98c-.13,0-.25-.11-.25-.24v-100.47c0-.3-.16-.57-.42-.72-.26-.15-.57-.15-.83,0l-82.61,47.7c-.08.04-.17.04-.25,0-.08-.04-.12-.12-.12-.21v-47.41c0-.14.11-.24.24-.24s.24.11.24.24v46.99l82.25-47.48c.41-.24.91-.24,1.32,0,.41.24.66.67.66,1.15v100.47c0,.14-.11.24-.25.24Z"></path><path class="cls-46 svg-elem-127" d="m80.25,246.69c-.14,0-.24-.11-.24-.25v-75.38c0-1.6.86-3.08,2.24-3.88l56.39-32.55.05-62.96c0-.14.11-.24.24-.24s.24.11.24.24l-.05,63.1c0,.09-.05.17-.12.21l-56.51,32.62c-1.23.71-2,2.04-2,3.46v75.38c0,.13-.11.25-.24.25Z"></path><path class="cls-46 svg-elem-128" d="m166.67,231.82c-.13,0-.25-.11-.25-.25v-86.21c0-.91-.49-1.76-1.28-2.22l-20.22-11.67c-.08-.04-.12-.12-.12-.21v-41.5c0-.14.11-.24.24-.24s.24.11.24.24v41.36l20.1,11.6c.94.54,1.53,1.56,1.53,2.65v86.21c0,.13-.11.25-.25.25Z"></path><path class="cls-46 svg-elem-129" d="m236.31,180.86c.84.48.84,1.26,0,1.75-.84.48-2.19.48-3.03,0-.84-.48-.84-1.26,0-1.75.84-.48,2.19-.48,3.03,0Z"></path><path class="cls-46 svg-elem-130" d="m168.19,230.82c.84.48.84,1.26,0,1.75-.84.48-2.19.48-3.03,0-.84-.48-.84-1.26,0-1.75.84-.48,2.19-.48,3.03,0Z"></path><path class="cls-46 svg-elem-131" d="m81.76,245.61c.84.48.84,1.26,0,1.75-.84.48-2.19.48-3.03,0-.84-.48-.84-1.26,0-1.75s2.19-.48,3.03,0Z"></path></g><g><g><g class="cls-45"><path class="cls-35 svg-elem-132" d="m155.58,82.38l-5.67-3.28-18.86,10.96,5.67,3.28c1.27.73,2.42.8,3.26.32l18.86-10.96c-.83.48-1.99.42-3.26-.32Z"></path><path class="cls-58 svg-elem-133" d="m141.33,87.75v2.97c-.02,2.9-2.08,4.08-4.61,2.62l-5.67-3.28-2.47,3.6,8.13,4.7c4.93,2.85,8.97.56,8.98-5.11v-2.97s-4.36-2.52-4.36-2.52Z"></path></g><g class="cls-45"><path class="cls-53 svg-elem-134" d="m177.64,5.53c-3.45-2.01-8.15-1.76-13.32,1.22-2.73,1.58-5.32,3.76-7.66,6.34l19.24,11.18c2.34-2.58,4.92-4.76,7.66-6.34,5.17-2.98,9.87-3.23,13.32-1.22l-19.24-11.18Z"></path><path class="cls-51 svg-elem-135" d="m153.93,10.09c-2.31-1.34-5.45-1.18-8.92.82-.53.3-1.06.66-1.57,1.03l19.24,11.18c.52-.37,1.04-.72,1.57-1.03,3.47-2,6.61-2.17,8.92-.82l-19.24-11.18Z"></path><path class="cls-16 svg-elem-136" d="m138.59,2.48c-2.9-1.68-6.85-1.48-11.19,1.02-7.96,4.59-14.51,15.3-15.7,25.06l19.24,11.18c1.19-9.76,7.74-20.47,15.7-25.06,4.34-2.5,8.29-2.71,11.19-1.02l-19.24-11.18Z"></path><path class="cls-92 svg-elem-137" d="m116.78,14.5c-2.65,4.38-4.5,9.33-5.07,14.07l19.24,11.18c.58-4.76,2.44-9.73,5.11-14.12l-19.28-11.13Z"></path><path class="cls-48 svg-elem-138" d="m111.7,28.57c-2.01.16-4.21.87-6.52,2.21-8.9,5.12-16.14,17.53-16.72,28.29l19.24,11.18c.58-10.76,7.82-23.16,16.72-28.29,2.31-1.33,4.51-2.04,6.52-2.21l-19.24-11.18Z"></path><path class="cls-75 svg-elem-139" d="m93.68,42.86c-2.98,5.07-4.92,10.84-5.21,16.21l19.24,11.18c.29-5.38,2.25-11.17,5.24-16.26l-19.28-11.13Z"></path><path class="cls-1 svg-elem-140" d="m88.47,59.06c-1.83.19-3.82.85-5.9,2.05-8.84,5.09-15.97,17.75-15.91,28.27.03,5.33,1.9,9.09,4.9,10.83l19.24,11.18c-2.99-1.74-4.87-5.5-4.9-10.83-.05-10.53,7.07-23.18,15.91-28.27,2.08-1.2,4.08-1.85,5.9-2.05l-19.24-11.18Z"></path><path class="cls-61 svg-elem-141" d="m85.89,100.57c-.02-3.24.65-6.69,1.84-10.05l-19.26-11.12c-1.17,3.34-1.84,6.77-1.82,9.99.03,5.33,1.9,9.09,4.9,10.83l19.24,11.18c-2.99-1.74-4.87-5.5-4.9-10.83Z"></path><path class="cls-32 svg-elem-142" d="m183.56,17.94c-2.73,1.58-5.32,3.76-7.66,6.34-2.04-4.07-6.48-5.16-11.65-2.18-.53.3-1.06.66-1.57,1.03-.66-9.51-7.61-13.3-16.04-8.44-7.96,4.59-14.51,15.3-15.7,25.06-2.01.16-4.2.87-6.52,2.21-8.9,5.12-16.14,17.53-16.72,28.29-1.83.19-3.82.85-5.9,2.05-8.84,5.09-15.97,17.75-15.91,28.27.06,10.51,7.27,14.9,16.12,9.8l81.78-47.1c10.52-6.06,18.99-21.12,18.92-33.63-.06-12.53-8.63-17.76-19.15-11.7Z"></path></g><g class="cls-45"><polygon class="cls-66 svg-elem-143" points="145.71 90.34 141.32 87.79 141.24 60.58 145.63 63.13 145.71 90.34"></polygon><polygon class="cls-88 svg-elem-144" points="139.16 66.86 134.77 64.31 150.59 31.4 154.98 33.95 139.16 66.86"></polygon><path class="cls-63 svg-elem-145" d="m164.47,52.25l6.47-3.74-15.96-14.56-15.82,32.91,6.47-3.74.06,30.12c0,2.82-1.01,4.8-2.61,5.73l18.86-10.96c1.61-.93,2.6-2.92,2.61-5.73l-.08-30.04Z"></path></g></g><g><g><path class="cls-15 svg-elem-146" d="m192.54,30.7l-19.82,11.44c-.31.18-.5.12-.5-.14v-5.88c0-.24.35-.75.63-.92l19.82-11.44c.31-.18.5-.12.5.14v5.88c0,.24-.35.75-.63.92Z"></path><path class="cls-105 svg-elem-147" d="m178.87,33.72l-5.08,2.93v-.88l5.08-2.93v.88Zm8.4-5.73l-3.69,2.13v.88l3.69-2.13v-.88Zm-10.09,7.53l-3.39,1.96v.88l3.39-1.96v-.88Zm7.15-4.13l-5.81,3.35v.88l5.81-3.35v-.88Zm-2.1-.49l-2.03,1.17v.88l2.03-1.17v-.88Z"></path></g><g><g class="cls-96"><circle class="cls-17 svg-elem-148" cx="185.42" cy="29.5" r="29.49" transform="translate(-2.33 28.56) rotate(-8.75)"></circle></g><g class="cls-43"><circle class="cls-21 svg-elem-149" cx="181.7" cy="33.51" r="29.49" transform="translate(110.14 203.85) rotate(-77.66)"></circle></g><g class="cls-78"><circle class="cls-26 svg-elem-150" cx="176.33" cy="34.75" r="29.49" transform="translate(9.14 100.67) rotate(-32.67)"></circle></g></g></g></g><g><g><g><path class="cls-14 svg-elem-151" d="m271.7,196.2l-16.02,9.25c-.82.48-2.16.48-2.99,0-.82-.48-.82-1.25,0-1.73l16.02-9.25c.82-.48,2.16-.48,2.99,0,.83.48.83,1.25,0,1.72Z"></path><path class="cls-14 svg-elem-152" d="m276.91,199.21l-16.02,9.25c-.82.48-2.16.48-2.99,0-.83-.48-.83-1.25,0-1.72l16.02-9.25c.82-.48,2.16-.48,2.99,0,.83.48.83,1.25,0,1.72Z"></path><path class="cls-56 svg-elem-153" d="m276,205.69l-4.54,2.62c-.83.48-2.16.48-2.99,0s-.82-1.25,0-1.72l4.54-2.62c.82-.48,2.16-.48,2.99,0,.82.48.82,1.25,0,1.72Z"></path></g><path class="cls-69 svg-elem-154" d="m259.73,207.4c.2.12.2.31,0,.42-.2.12-.53.12-.73,0-.2-.12-.2-.31,0-.42.2-.12.53-.12.73,0Z"></path><path class="cls-69 svg-elem-155" d="m261.24,206.53c.2.12.2.31,0,.42-.2.12-.53.12-.73,0-.2-.12-.2-.31,0-.42.2-.12.53-.12.73,0Z"></path><path class="cls-69 svg-elem-156" d="m262.75,205.66c.2.12.2.31,0,.42-.2.12-.53.12-.73,0-.2-.12-.2-.31,0-.42.2-.12.53-.12.73,0Z"></path><path class="cls-69 svg-elem-157" d="m264.26,204.79c.2.12.2.31,0,.42-.2.12-.53.12-.73,0-.2-.12-.2-.31,0-.42.2-.12.53-.12.73,0Z"></path><path class="cls-69 svg-elem-158" d="m265.77,203.92c.2.12.2.31,0,.42-.2.12-.53.12-.73,0-.2-.12-.2-.31,0-.42.2-.12.53-.12.73,0Z"></path><path class="cls-69 svg-elem-159" d="m267.28,203.05c.2.12.2.31,0,.42-.2.12-.53.12-.73,0-.2-.12-.2-.31,0-.42.2-.12.53-.12.73,0Z"></path><path class="cls-69 svg-elem-160" d="m268.79,202.18c.2.12.2.31,0,.42-.2.12-.53.12-.73,0-.2-.12-.2-.31,0-.42.2-.12.53-.12.73,0Z"></path><path class="cls-69 svg-elem-161" d="m270.29,201.31c.2.12.2.31,0,.42-.2.12-.53.12-.73,0-.2-.12-.2-.31,0-.42.2-.12.53-.12.73,0Z"></path><polygon class="cls-91 svg-elem-162" points="274.09 205.57 271.23 207.22 270.36 206.72 273.21 205.07 274.09 205.57"></polygon></g><g><path class="cls-69 svg-elem-163" d="m253.32,204.47l.88.51c.19.11.4.1.57,0,.21-.12.2-.25.17-.33l-.96-.56.18-.1.92.53.38.2-.15.08-.21-.09c.04.11-.01.25-.24.38-.27.15-.58.13-.82,0l-.9-.52.17-.1Z"></path><path class="cls-69 svg-elem-164" d="m256.25,203.86c-.18-.1-.32-.06-.6.07-.39.19-.61.18-.81.07-.24-.14-.2-.33.11-.51.36-.21.68-.18.93-.04.01,0-.16.11-.16.11-.18-.11-.37-.13-.62.01-.2.12-.24.23-.1.31.13.08.27.08.58-.07.36-.18.6-.21.83-.07.24.14.21.33-.12.52-.38.22-.73.17-.92.06-.01,0,.17-.11.17-.11.14.08.35.12.61-.03.22-.12.24-.24.1-.33Z"></path><path class="cls-69 svg-elem-165" d="m256.66,203.37c.29.16.59.19.85.03s.22-.31.08-.39l.17-.1c.21.12.27.35-.11.57-.4.23-.86.17-1.22-.04l-.05-.03c-.36-.21-.47-.47-.08-.7.39-.23.85-.16,1.2.05l.1.06-.94.54Zm-.14-.08l.77-.44c-.29-.16-.59-.19-.84-.04-.25.15-.2.32.07.48Z"></path><path class="cls-69 svg-elem-166" d="m257.72,201.9l.16.09c-.24.14-.22.26-.2.34l.95.55-.18.1-.92-.53-.38-.2.15-.08.2.08c-.04-.1,0-.23.17-.33.02-.01.04-.02.04-.02Z"></path><path class="cls-69 svg-elem-167" d="m260.14,202.02l-.88-.51c-.19-.11-.4-.1-.57,0-.21.12-.2.25-.17.33l.96.56-.18.1-.92-.53-.38-.2.15-.08.21.09c-.04-.11,0-.25.24-.38.26-.15.58-.13.82,0l.9.52-.18.1Z"></path><path class="cls-69 svg-elem-168" d="m261.26,201.17c.02.12-.03.26-.26.39-.24.14-.53.14-.74.02-.3-.18-.16-.35.02-.49l.34-.27c-.26-.15-.44-.17-.68-.03-.25.15-.17.26,0,.36l-.17.1c-.22-.12-.36-.31.03-.54.37-.21.68-.17.96,0l.47.27.38.2-.15.08-.21-.09Zm-.16-.07l-.35-.2-.33.26c-.14.12-.16.22-.02.31.14.08.32.1.49,0,.25-.14.23-.28.2-.35Z"></path><path class="cls-69 svg-elem-169" d="m263.45,200.11l-.91-.52c-.2-.11-.36-.08-.51,0-.19.11-.17.22-.14.3l.97.56-.18.1-.91-.52c-.2-.11-.36-.08-.51,0-.19.11-.17.22-.14.3l.97.56-.18.1-.92-.53-.38-.2.15-.08.2.09c-.04-.11,0-.23.21-.35.18-.1.37-.13.56-.08-.05-.11,0-.24.21-.37.24-.14.51-.14.75,0l.93.54-.18.1Z"></path><path class="cls-69 svg-elem-170" d="m263.51,199.41c.29.16.59.19.85.03.27-.15.22-.31.08-.39l.17-.1c.21.12.27.35-.11.57-.4.23-.86.17-1.22-.04l-.05-.03c-.36-.21-.47-.47-.08-.7.39-.23.85-.16,1.2.05l.1.06-.94.54Zm-.14-.08l.77-.44c-.29-.16-.59-.19-.84-.04-.25.15-.2.32.07.48Z"></path></g></g><g><g><g><polygon class="cls-22 svg-elem-171" points="277.17 120.92 241.5 141.51 241.5 179.12 277.2 158.51 277.17 120.92"></polygon><path class="cls-112 svg-elem-172" d="m264.37,144.98v.44l4.86-2.81v-.44l-4.86,2.81Zm-5.83,5.13v.44l3.24-1.87v-.44l-3.24,1.87Zm5.38-4.87l-5.83,3.36v.45l5.83-3.37v-.44Zm.92,1.23l-2.6,1.5v.44l2.6-1.5v-.44Zm-7.21,2.84v-.44l-11.75,6.79v.44l11.75-6.79Zm7.67-3.11v.44l5.87-3.39v-.44l-5.87,3.39Zm4.4-4.31v.44l2.6-1.5v-.44l-2.6,1.5Zm-19.53,13.48v-.44l-4.22,2.44v.44l4.22-2.44Zm7.91-5.01l-7.46,4.3v.44l7.46-4.3v-.44Zm.46,2.38v.44l3.24-1.87v-.44l-3.24,1.87Zm-.87,2.71v-.44l-5.76,3.32v.44l5.76-3.32Zm7.17-6.35l-2.6,1.5v.44l2.6-1.5v-.44Zm-5.91,6.94v.44l5.76-3.32v-.44l-5.76,3.32Zm6.36-7.2v.44l5.87-3.39v-.44l-5.87,3.39Zm4.44-.35l3.41-1.97v-.44l-3.41,1.97v.44Zm-4.59,3.97v.44l2.52-1.46v-.44l-2.52,1.46Zm-14.98,5.56v-.44l-4.22,2.44v.45l4.22-2.44Zm7.91-5.01l-7.46,4.3v.44l7.46-4.3v-.44Zm.04,1.74v.44l5.83-3.37v-.44l-5.83,3.37Zm11.15-6.44l-4.86,2.81v.44l4.86-2.81v-.44Zm-3.19,5.37l-3.24,1.87v.44l3.24-1.87v-.44Zm7.29-9.5l-1.75,1.01v.44l1.75-1.01v-.44Zm-6.83,9.68l2.95-1.7v-.44l-2.95,1.7v.44Zm1.58-2.68l3.78-2.18v-.44l-3.78,2.18v.44Zm-5.74,4.63l-7.46,4.3v.44l7.46-4.3v-.44Zm-9.86,5.69l-6.62,3.82v.44l6.62-3.82v-.44Zm-1.87-.68l-4.74,2.73v.44l4.74-2.73v-.44Zm3.82,0v-.44l-1.49.86v.44l1.49-.86Zm-3.02-1.79v-.44l-5.52,3.19v.44l5.52-3.19Zm7.02-2.29v-.44l-7.36,4.25v.44l7.36-4.25Zm.28,7.48l2.6-1.5v-.44l-2.6,1.5v.44Zm-.46.26v-.44l-3.24,1.87v.44l3.24-1.87Zm7.92-6.34l2.6-1.5v-.44l-2.6,1.5v.44Zm-11.61,6.7l5.83-3.36v-.44l-5.83,3.36v.44Zm6.29-3.63l4.86-2.81v-.44l-4.86,2.81v.44Zm-6.74,3.89v-.44l-8.26,4.77v.44l8.26-4.77Zm15.13-8.73l3.7-2.13v-.44l-3.7,2.13v.44Zm-14.67,9.79l-8.75,5.05v.45l8.75-5.05v-.44Zm-8.67,1.92l2.73-1.57v-.44l-2.73,1.57v.44Zm24.18-14.4v.44l3.24-1.87v-.44l-3.24,1.87Zm-6.32,4.1l5.87-3.39v-.44l-5.87,3.39v.44Zm-3.06,1.77l2.6-1.5v-.44l-2.6,1.5v.44Zm-3.7,2.13l3.24-1.87v-.44l-3.24,1.87v.44Zm-7.91,4.57l7.46-4.3v-.44l-7.46,4.3v.44Z"></path><polygon class="cls-64 svg-elem-173" points="277.17 120.92 241.5 141.51 241.5 145.02 277.17 124.43 277.17 120.92"></polygon></g><g id="_2"><path class="cls-19 svg-elem-174" d="m267.81,135.99s-.05-.06-.1-.07l-1.17-.24c-.11-.02-.24,0-.38.09l-7.69,4.43c-.28.16-.54.2-.74.12l-.11-.05c-.12-.05-.28-.02-.45.07l-.82.47c-.62-.6-1.69-.62-2.91.09-1.92,1.1-3.47,3.55-3.47,5.47,0,1.92,1.55,2.58,3.46,1.47,1.31-.75,2.45-2.13,3.04-3.54l.97-.56c.05-.03.1-.08.14-.13l.56-.84c.07-.11.17-.2.26-.25.05-.03.11-.06.18-.1.14-.08.31-.17.49-.27.18-.1.36-.2.53-.29.25-.14.46-.26.54-.31.1-.07.49-.44.71-.65.11-.1.22-.16.32-.19.21-.05.57-.13.79-.17.03,0,.06-.02.09-.04.03-.02.06-.04.09-.07.09-.09.22-.23.31-.32.05-.05.18-.11.33-.16.15-.05.32-.1.45-.15.09-.03.16-.06.19-.09.08-.06.27-.23.47-.42.05-.05.1-.09.16-.14.16-.14.31-.28.41-.38.09-.08.19-.13.27-.14.06,0,.14-.01.23-.02.09,0,.18-.02.28-.02.19-.02.37-.03.47-.04.05,0,.11-.02.17-.06.06-.03.12-.08.17-.14l1.57-1.69c.22-.26.27-.53.17-.66Zm-16.05,10.4c-.58.33-1.04.13-1.04-.44,0-.58.47-1.31,1.04-1.65.58-.33,1.04-.13,1.04.44,0,.58-.47,1.31-1.04,1.65Z"></path></g></g><g><polygon class="cls-55 svg-elem-175" points="271.02 127.28 268.75 128.59 268.75 126.32 271.02 125.01 271.02 127.28"></polygon><polygon class="cls-55 svg-elem-176" points="273.84 125.65 271.57 126.97 271.57 124.7 273.84 123.38 273.84 125.65"></polygon><path class="cls-40 svg-elem-177" d="m271.93,124.85v1.55l1.55-.9v-1.55l-1.55.9Zm1.29.54l-1.02.59v-1.02l1.02-.59v1.02Z"></path><polygon class="cls-55 svg-elem-178" points="276.65 124.03 274.38 125.34 274.38 123.07 276.65 121.76 276.65 124.03"></polygon><polygon class="cls-40 svg-elem-179" points="274.75 123.42 275.36 123.67 274.75 124.63 274.95 124.71 275.55 123.76 276.16 124.01 276.36 123.7 275.75 123.45 276.36 122.49 276.16 122.41 275.55 123.37 274.95 123.11 274.75 123.42"></polygon><polygon class="cls-40 svg-elem-180" points="270.63 127.15 269.17 127.99 269.17 127.71 270.63 126.87 270.63 127.15"></polygon></g></g><g><g><g><path class="cls-14 svg-elem-181" d="m136.56,180.31l-17.08,9.91c-.88.51-1.78.16-2.01-.78-.23-.94.29-2.12,1.17-2.63l17.07-9.93c.88-.51,1.78-.16,2.01.79.23.94-.29,2.12-1.17,2.64Z"></path><path class="cls-14 svg-elem-182" d="m138.03,186.28l-17.08,9.89c-.88.51-1.78.16-2.01-.78s.29-2.12,1.17-2.63l17.08-9.9c.88-.51,1.78-.16,2.01.79s-.29,2.12-1.17,2.63Z"></path><path class="cls-56 svg-elem-183" d="m133.25,195.88l-4.85,2.8c-.88.51-1.78.16-2.01-.79s.29-2.12,1.17-2.63l4.85-2.8c.88-.51,1.78-.16,2.01.79.23.94-.29,2.12-1.17,2.63Z"></path></g><path class="cls-69 svg-elem-184" d="m120.89,194.26c.06.23-.07.52-.29.64s-.44.04-.49-.19c-.06-.23.07-.52.29-.64.22-.12.44-.04.49.19Z"></path><path class="cls-69 svg-elem-185" d="m122.5,193.32c.06.23-.07.52-.29.64-.22.12-.44.04-.49-.19-.06-.23.07-.52.29-.64.22-.12.44-.04.49.19Z"></path><path class="cls-69 svg-elem-186" d="m124.11,192.39c.06.23-.07.52-.29.64-.22.12-.44.04-.49-.19s.07-.52.29-.64c.22-.12.44-.04.49.19Z"></path><path class="cls-69 svg-elem-187" d="m125.72,191.46c.06.23-.07.52-.29.64s-.44.04-.49-.19.07-.52.29-.64c.22-.12.44-.04.49.19Z"></path><path class="cls-69 svg-elem-188" d="m127.32,190.53c.06.23-.07.52-.29.64-.22.12-.44.04-.49-.19-.06-.23.07-.52.29-.64s.44-.04.49.19Z"></path><path class="cls-69 svg-elem-189" d="m128.93,189.6c.06.23-.07.52-.29.64s-.44.04-.49-.19c-.06-.23.07-.52.29-.64.22-.12.44-.04.49.19Z"></path><path class="cls-69 svg-elem-190" d="m130.54,188.66c.06.23-.07.52-.29.64s-.44.04-.49-.19c-.06-.23.07-.52.29-.64.22-.12.44-.04.49.19Z"></path><path class="cls-69 svg-elem-191" d="m132.15,187.73c.06.23-.07.52-.29.64s-.44.04-.49-.19c-.06-.23.07-.52.29-.64.22-.12.44-.04.49.19Z"></path><polygon class="cls-91 svg-elem-192" points="132.03 195.2 128.99 196.96 128.74 195.96 131.79 194.2 132.03 195.2"></polygon></g><g><path class="cls-69 svg-elem-193" d="m118.57,188.11l.25,1c.05.22.2.25.39.14.22-.13.3-.32.34-.46l-.27-1.1.19-.11.26,1.05.12.41-.16.09-.08-.19c-.05.18-.18.37-.42.51-.28.17-.48.05-.55-.22l-.25-1.03.18-.11Z"></path><path class="cls-69 svg-elem-194" d="m120.96,187.94c-.05-.2-.17-.18-.46-.05-.39.19-.54.12-.59-.1-.07-.27.09-.55.42-.74.39-.23.58-.1.65.18,0,.01-.18.12-.18.12-.05-.21-.16-.29-.43-.14-.21.12-.32.29-.28.45.04.15.13.2.44.04.36-.18.54-.16.61.11.07.27-.09.56-.44.76-.4.23-.61.07-.66-.15,0-.01.18-.12.18-.12.04.16.16.27.44.11.23-.13.33-.31.29-.47Z"></path><path class="cls-69 svg-elem-195" d="m121.56,187.3c.09.32.27.44.55.27.28-.17.36-.41.32-.57l.18-.1c.06.24-.06.61-.46.84-.43.25-.69.03-.8-.38l-.02-.06c-.1-.41,0-.84.42-1.08.42-.24.68-.02.78.39l.03.11-1.01.58Zm-.04-.16l.82-.47c-.09-.31-.27-.44-.54-.28-.27.16-.35.43-.28.76Z"></path><path class="cls-69 svg-elem-196" d="m123.28,185.34l.05.19c-.25.15-.33.33-.36.46l.27,1.09-.19.11-.26-1.05-.12-.41.16-.09.07.18c.04-.17.15-.35.34-.46.02-.01.04-.02.04-.02Z"></path><path class="cls-69 svg-elem-197" d="m124.82,186.16l-.25-1c-.05-.22-.2-.25-.39-.15-.22.13-.3.32-.34.45l.27,1.1-.19.11-.26-1.05-.12-.41.16-.09.08.19c.05-.18.17-.37.42-.52.28-.16.48-.05.55.22l.25,1.03-.19.11Z"></path><path class="cls-69 svg-elem-198" d="m126.16,185.15c-.06.18-.2.38-.44.53-.26.15-.45.07-.51-.16-.09-.35.13-.57.35-.74l.41-.32c-.07-.29-.18-.38-.43-.23-.27.16-.29.35-.24.54l-.18.1c-.06-.25-.03-.57.38-.81.39-.23.57-.08.65.25l.13.54.12.41-.16.09-.08-.19Zm-.06-.16l-.1-.4-.4.31c-.17.14-.26.29-.22.46.04.15.15.23.34.12.26-.15.35-.37.38-.49Z"></path><path class="cls-69 svg-elem-199" d="m128.36,184.1l-.26-1.04c-.06-.22-.18-.22-.34-.13-.2.12-.26.3-.3.43l.27,1.11-.19.11-.26-1.04c-.06-.22-.18-.22-.34-.13-.2.12-.26.3-.3.43l.27,1.1-.19.11-.26-1.05-.12-.41.16-.09.08.18c.05-.17.16-.36.38-.49.19-.11.34-.1.43.03.04-.18.16-.37.39-.5.26-.15.44-.07.5.21l.26,1.07-.19.11Z"></path><path class="cls-69 svg-elem-200" d="m128.87,183.06c.09.32.27.44.55.28.28-.16.36-.41.32-.57l.18-.1c.06.24-.06.61-.46.84-.43.25-.7.03-.8-.38l-.02-.06c-.1-.41,0-.84.42-1.09.42-.24.68-.02.78.39l.03.11-1.01.58Zm-.04-.16l.82-.47c-.09-.31-.27-.44-.54-.29-.27.16-.35.43-.28.76Z"></path></g></g><g class="cls-86"><circle class="cls-20 svg-elem-201" cx="166.67" cy="231.41" r="29.49" transform="translate(-53.85 50.58) rotate(-14.88)"></circle></g><g class="cls-76"><circle class="cls-18 svg-elem-202" cx="234.8" cy="181.38" r="29.49" transform="translate(-39.42 68.09) rotate(-15.24)"></circle></g><g class="cls-28"><circle class="cls-25 svg-elem-203" cx="80.25" cy="246.3" r="29.49" transform="translate(-61.75 29.64) rotate(-15.19)"></circle></g></g></g></g></g></svg>