<?xml version="1.0" encoding="UTF-8"?>
<!DOCTYPE svg PUBLIC "-//W3C//DTD SVG 1.1//EN" "http://www.w3.org/Graphics/SVG/1.1/DTD/svg11.dtd">
<!-- Creator: CorelDRAW X7 -->
<svg xmlns="http://www.w3.org/2000/svg" xml:space="preserve" width="39.6238mm" height="67.8178mm" version="1.1" style="shape-rendering:geometricPrecision; text-rendering:geometricPrecision; image-rendering:optimizeQuality; fill-rule:evenodd; clip-rule:evenodd"
viewBox="0 0 3962 6782"
 xmlns:xlink="http://www.w3.org/1999/xlink">
 <defs>
  <style type="text/css">
   <![CDATA[
    .fil0 {fill:black;fill-rule:nonzero;fill-opacity:0.058824}
   ]]>
  </style>
 </defs>
 <g id="Layer_x0020_1">
  <metadata id="CorelCorpID_0Corel-Layer"/>
  <path class="fil0" d="M1215 6781l0 -364c-369,-47 -369,-114 -369,-373l0 -5536 1135 1073 1135 -1073 0 5536c0,259 0,326 -369,373l0 364 1216 0 0 -364c-396,-47 -396,-95 -396,-373l0 -5306c0,-278 0,-335 396,-374l0 -364 -883 0 -1099 1006 -1099 -1006 -883 0 0 364c397,39 397,96 397,374l0 5306c0,278 0,326 -397,373l0 364 1216 0z"/>
 </g>
</svg>
