<?xml version="1.0" encoding="UTF-8"?>
<!DOCTYPE svg PUBLIC "-//W3C//DTD SVG 1.1//EN" "http://www.w3.org/Graphics/SVG/1.1/DTD/svg11.dtd">
<!-- Creator: CorelDRAW X7 -->
<svg xmlns="http://www.w3.org/2000/svg" xml:space="preserve" width="26.5852mm" height="67.8178mm" version="1.1" style="shape-rendering:geometricPrecision; text-rendering:geometricPrecision; image-rendering:optimizeQuality; fill-rule:evenodd; clip-rule:evenodd"
viewBox="0 0 2659 6782"
 xmlns:xlink="http://www.w3.org/1999/xlink">
 <defs>
  <style type="text/css">
   <![CDATA[
    .fil0 {fill:#3793BA;fill-rule:nonzero;fill-opacity:0.200000}
   ]]>
  </style>
 </defs>
 <g id="Layer_x0020_1">
  <metadata id="CorelCorpID_0Corel-Layer"/>
  <path class="fil0" d="M820 1140l0 -718 820 0c297,0 541,105 541,354 0,278 -181,364 -541,364l-820 0zm0 422l802 0c721,0 1036,-269 1036,-776 0,-450 -234,-786 -1018,-786l-1640 0 0 364c370,39 370,96 370,374l0 5306c0,278 0,326 -370,373l0 364 1190 0 0 -364c-370,-47 -370,-114 -370,-373l0 -4482z"/>
 </g>
</svg>
