<?xml version="1.0" encoding="UTF-8"?>
<!DOCTYPE svg PUBLIC "-//W3C//DTD SVG 1.1//EN" "http://www.w3.org/Graphics/SVG/1.1/DTD/svg11.dtd">
<!-- Creator: CorelDRAW X7 -->
<svg xmlns="http://www.w3.org/2000/svg" xml:space="preserve" width="30.9032mm" height="67.8178mm" version="1.1" style="shape-rendering:geometricPrecision; text-rendering:geometricPrecision; image-rendering:optimizeQuality; fill-rule:evenodd; clip-rule:evenodd"
viewBox="0 0 3090 6782"
 xmlns:xlink="http://www.w3.org/1999/xlink">
 <defs>
  <style type="text/css">
   <![CDATA[
    .fil0 {fill:black;fill-rule:nonzero;fill-opacity:0.501961}
   ]]>
  </style>
 </defs>
 <g id="Layer_x0020_1">
  <metadata id="CorelCorpID_0Corel-Layer"/>
  <path class="fil0" d="M1189 6781l0 -364c-369,-47 -369,-114 -369,-373l0 -4482 865 0c0,957 81,3017 369,4166 117,469 234,776 352,1053l684 0 0 -364c-306,-47 -459,-258 -621,-919 -226,-891 -334,-3027 -334,-3965 424,-125 523,-450 523,-747 0,-450 -234,-786 -1018,-786l-1640 0 0 364c369,39 369,96 369,374l0 5306c0,278 0,326 -369,373l0 364 1189 0zm-369 -5641l0 -718 820 0c297,0 540,105 540,354 0,278 -180,364 -540,364l-820 0z"/>
 </g>
</svg>
