<?xml version="1.0" encoding="UTF-8"?>
<!DOCTYPE svg PUBLIC "-//W3C//DTD SVG 1.1//EN" "http://www.w3.org/Graphics/SVG/1.1/DTD/svg11.dtd">
<!-- Creator: CorelDRAW X7 -->
<svg xmlns="http://www.w3.org/2000/svg" xml:space="preserve" width="110.5992mm" height="130.8506mm" version="1.1" style="shape-rendering:geometricPrecision; text-rendering:geometricPrecision; image-rendering:optimizeQuality; fill-rule:evenodd; clip-rule:evenodd"
viewBox="0 0 1160 3285"
 xmlns:xlink="http://www.w3.org/1999/xlink">
 <defs>
  <style type="text/css">
   <![CDATA[
    .fil0 {fill:#4D4D4D;fill-rule:nonzero;fill-opacity:0.200000}
   ]]>
  </style>
 </defs>
 <g id="Layer_x0020_1">
  <metadata id="CorelCorpID_0Corel-Layer"/>
  <path class="fil0" d="M809 401l-150 -402 -125 0 -75 57c-33,-4 -62,-9 -95,-9 -179,0 -292,115 -292,314 0,222 187,478 475,1054 195,376 403,827 403,1212 0,248 -166,447 -387,447 -262,0 -354,-203 -428,-380l-134 53 59 486 108 0 75 -48c79,53 208,101 320,101 317,0 596,-247 596,-694 0,-430 -246,-938 -446,-1323 -258,-505 -433,-726 -433,-881 0,-66 42,-128 121,-128 79,0 133,66 271,194l137 -53z"/>
 </g>
</svg>
