<?xml version="1.0" encoding="UTF-8"?>
<!DOCTYPE svg PUBLIC "-//W3C//DTD SVG 1.1//EN" "http://www.w3.org/Graphics/SVG/1.1/DTD/svg11.dtd">
<!-- Creator: CorelDRAW X7 -->
<svg xmlns="http://www.w3.org/2000/svg" xml:space="preserve" width="59.1818mm" height="52.0698mm" version="1.1" style="shape-rendering:geometricPrecision; text-rendering:geometricPrecision; image-rendering:optimizeQuality; fill-rule:evenodd; clip-rule:evenodd"
viewBox="0 0 5918 5207"
 xmlns:xlink="http://www.w3.org/1999/xlink">
 <defs>
  <style type="text/css">
   <![CDATA[
    .fil2 {fill:#FEFEFE;fill-rule:nonzero}
    .fil32 {fill:#F3A2AA;fill-rule:nonzero}
    .fil34 {fill:#F18D93;fill-rule:nonzero}
    .fil15 {fill:#F0F8F8;fill-rule:nonzero}
    .fil14 {fill:#F0F8F7;fill-rule:nonzero}
    .fil13 {fill:#ECF6F7;fill-rule:nonzero}
    .fil12 {fill:#EAF5F3;fill-rule:nonzero}
    .fil3 {fill:#E7E7E6;fill-rule:nonzero}
    .fil28 {fill:#E0E0E0;fill-rule:nonzero}
    .fil20 {fill:#E0F0EF;fill-rule:nonzero}
    .fil9 {fill:#D8ECEC;fill-rule:nonzero}
    .fil8 {fill:#D5EBE9;fill-rule:nonzero}
    .fil18 {fill:#BCE0E1;fill-rule:nonzero}
    .fil11 {fill:#A0D5D8;fill-rule:nonzero}
    .fil10 {fill:#9DD3CE;fill-rule:nonzero}
    .fil21 {fill:#9BD2CB;fill-rule:nonzero}
    .fil16 {fill:#82CACD;fill-rule:nonzero}
    .fil23 {fill:#7C888B;fill-rule:nonzero}
    .fil31 {fill:#76C6C7;fill-rule:nonzero}
    .fil19 {fill:#5CBEB9;fill-rule:nonzero}
    .fil24 {fill:#57BEC0;fill-rule:nonzero}
    .fil17 {fill:#53BCBC;fill-rule:nonzero}
    .fil27 {fill:#3EB8B4;fill-rule:nonzero}
    .fil22 {fill:#40AFA4;fill-rule:nonzero}
    .fil6 {fill:#3F5E69;fill-rule:nonzero}
    .fil4 {fill:#354A53;fill-rule:nonzero}
    .fil25 {fill:#31444B;fill-rule:nonzero}
    .fil36 {fill:#314148;fill-rule:nonzero}
    .fil0 {fill:#00A8A1;fill-rule:nonzero}
    .fil5 {fill:#29383E;fill-rule:nonzero}
    .fil1 {fill:#00A49B;fill-rule:nonzero}
    .fil26 {fill:#273439;fill-rule:nonzero}
    .fil29 {fill:#00A396;fill-rule:nonzero}
    .fil33 {fill:#1D1D1E;fill-rule:nonzero}
    .fil35 {fill:#009F8D;fill-rule:nonzero}
    .fil30 {fill:#009D8B;fill-rule:nonzero}
    .fil7 {fill:#008876;fill-rule:nonzero}
   ]]>
  </style>
 </defs>
 <g id="Layer_x0020_1">
  <metadata id="CorelCorpID_0Corel-Layer"/>
  <g id="_2694439224720">
   <path class="fil0" d="M5262 4082c-17,-118 27,-566 127,-736 99,-171 265,-350 408,-323 134,25 144,193 6,326 -138,133 -349,305 -389,506l-109 342 -43 -115z"/>
   <path class="fil1" d="M5305 4197l-43 -115c-2,-17 -3,-40 -3,-68 0,-171 44,-522 130,-668 93,-159 243,-326 379,-326 10,0 20,1 29,3 69,12 105,63 105,128 0,61 -32,134 -99,198 -138,133 -349,305 -389,506l-109 342z"/>
   <path class="fil2" d="M5294 4045c4,-1 6,-4 7,-8 6,-414 270,-797 450,-903 5,-3 6,-8 4,-12 -3,-4 -8,-6 -12,-3 -184,108 -454,498 -460,918 0,4 4,8 9,8l2 0z"/>
   <path class="fil0" d="M5359 4261c9,-69 57,-188 166,-305 134,-145 356,-224 386,-308 37,-100 -47,-169 -191,-123 -194,62 -410,303 -407,614l46 122z"/>
   <path class="fil2" d="M5320 4196c3,-1 6,-4 6,-7 73,-362 366,-557 485,-590 5,-2 7,-7 6,-11 -1,-5 -6,-8 -11,-6 -132,37 -422,234 -497,604 -1,4 3,9 7,10l4 0z"/>
   <path class="fil3" d="M1469 339l-106 61c0,-5 0,-10 0,-14l0 -31c0,-55 -38,-77 -85,-50 -20,12 -37,29 -52,50 -7,-69 -61,-95 -127,-57 -71,41 -128,141 -128,222l0 47c0,21 4,39 11,53l-89 51c-26,15 -47,52 -47,82 0,31 21,43 47,28l576 -333c26,-15 47,-52 47,-82 0,-30 -21,-43 -47,-27z"/>
   <path class="fil3" d="M128 777l59 -45 0 -129c0,-102 81,-221 170,-272 88,-51 160,-10 160,92l0 19c20,-31 46,-58 75,-74 63,-37 115,-7 115,66l0 9 82 -47c42,-25 76,-5 76,44 0,48 -34,107 -76,131l-661 382c-42,24 -76,4 -76,-44 0,-49 34,-108 76,-132z"/>
   <path class="fil4" d="M119 4041c0,39 29,87 64,107l1806 1043c35,20 93,20 129,0l2675 -1545c35,-20 64,-68 64,-107 0,-38 -29,-86 -64,-107l-1805 -1042c-36,-21 -94,-21 -129,0l-2676 1544c-35,21 -64,69 -64,107z"/>
   <path class="fil5" d="M2053 5067l0 139c-23,0 -47,-5 -64,-15l-1806 -1043c-35,-20 -64,-68 -64,-107 0,-36 25,-80 58,-102 -29,20 -27,51 6,70l1806 1042c17,10 41,16 64,16z"/>
   <path class="fil6" d="M59 3937c-34,-20 -61,-69 -61,-110l0 -2154c0,-41 29,-91 65,-111l2675 -1545c36,-20 91,-21 125,-2 33,19 60,68 60,109l0 2154c0,41 -29,91 -64,112l-2676 1544c-35,21 -91,22 -124,3z"/>
   <path class="fil5" d="M176 3938c-36,17 -86,17 -117,-1 -34,-20 -61,-69 -61,-110l0 -2154c0,-20 7,-43 19,-63l121 69 0 0c-12,21 -19,43 -19,64l0 2154c0,38 25,55 57,41z"/>
   <path class="fil4" d="M119 1743l0 2154c0,41 29,58 64,37l2676 -1544c35,-21 64,-71 64,-112l0 -2154c0,-41 -29,-58 -64,-37l-2676 1544c-35,21 -64,71 -64,112z"/>
   <path class="fil6" d="M183 4009l1806 1042c35,21 93,21 129,0l2675 -1544c35,-21 35,-54 0,-75l-1805 -1042c-36,-21 -94,-21 -129,0l-2676 1544c-35,21 -35,54 0,75z"/>
   <path class="fil0" d="M218 1714l2587 -1493c21,-12 39,-2 39,22l0 1988c0,25 -18,55 -39,67l-2587 1493c-21,12 -39,2 -39,-22l0 -1988c0,-25 18,-55 39,-67z"/>
   <path class="fil7" d="M201 3796c-13,0 -22,-10 -22,-27l0 -1988c0,-25 18,-55 39,-67l2587 -1493c6,-3 12,-5 17,-5 13,0 22,10 22,27l0 1988c0,25 -18,55 -39,67l-443 256c10,-27 20,-52 29,-77 54,-159 69,-280 69,-388l0 0c0,-160 -30,-221 -53,-286 -18,-52 -31,-112 -31,-196 0,-186 67,-343 67,-343l0 0 -126 -195c0,0 0,0 0,0l0 0 0 0 0 0 -200 -116c0,1 0,1 -1,1 -127,114 -244,159 -343,159 -43,0 -82,-8 -118,-23l-70 -40 0 0c-119,230 -310,461 -532,518l-126 341 0 0c0,0 67,79 67,265 0,85 -13,159 -31,232 -23,92 -53,188 -53,347l0 0c0,108 15,213 69,308 33,58 81,106 146,143 10,6 31,18 55,32l-962 555c-6,4 -12,5 -17,5zm958 -659c-39,-84 -49,-176 -49,-269 0,-68 5,-125 13,-175 -8,50 -13,107 -13,175l0 0c0,93 10,185 49,269zm22 -700c8,-47 13,-95 13,-148l0 0c0,-186 -68,-264 -68,-264l104 -281 -104 281 0 0c0,0 68,78 68,265 0,52 -5,100 -13,147zm791 -1209c-26,0 -51,-3 -74,-9 23,6 48,9 74,9 0,0 0,0 0,0l0 0c0,0 0,0 0,0 24,0 49,-2 76,-8 -27,6 -52,8 -76,8zm-208 -24c7,-13 14,-26 21,-39l0 0c-7,13 -14,26 -21,39z"/>
   <path class="fil4" d="M393 3953l2498 -1442c18,-10 47,-10 64,0l118 68c18,10 18,27 0,37l-2499 1442c-17,10 -46,10 -64,0l-117 -68c-18,-10 -18,-27 0,-37z"/>
   <path class="fil5" d="M695 4127l2498 -1442c18,-10 47,-10 65,0l721 417c18,10 18,27 0,37l-2495 1440c-18,11 -47,11 -65,0l-724 -414c-18,-11 -18,-27 0,-38z"/>
   <path class="fil6" d="M2016 3494c3,1 8,1 12,-1l78 -45c4,-2 4,-5 1,-7l-83 -48c-4,-2 -9,-2 -12,0l-79 46c-3,2 -3,5 0,7l83 48zm939 -578c3,2 8,2 12,0l78 -45c4,-2 4,-5 0,-7l-22 -13c-3,-2 -8,-2 -12,0l-78 46c-4,2 -4,5 -1,7l23 12zm657 240l78 -45c4,-2 4,-5 0,-7l-83 -48c-3,-2 -8,-2 -12,0l-78 45c-4,2 -4,5 0,7l83 48c3,2 8,2 12,0zm-253 -272c3,2 8,2 12,0l78 -45c4,-2 4,-5 1,-7l-83 -48c-4,-2 -9,-2 -12,0l-79 46c-3,1 -3,5 0,6l83 48zm-175 -100c4,2 9,2 12,0l79 -46c3,-2 3,-5 0,-7l-22 -12c-3,-2 -9,-2 -12,0l-79 45c-3,2 -3,5 0,7l22 13zm-344 199c3,2 8,2 12,0l78 -46c4,-2 4,-5 0,-7l-22 -12c-3,-2 -8,-2 -12,0l-78 45c-4,2 -4,5 0,7l22 13zm-594 378c3,2 8,2 12,0l78 -46c4,-2 4,-5 0,-7l-83 -47c-3,-2 -8,-2 -12,0l-78 45c-4,2 -4,5 0,7l83 48zm-115 66c3,2 8,2 12,0l78 -45c4,-2 4,-5 1,-7l-83 -48c-4,-2 -9,-2 -12,0l-79 45c-3,2 -4,5 0,7l83 48zm485 -280c3,2 9,2 12,0l79 -45c3,-2 3,-5 0,-7l-83 -48c-4,-2 -9,-2 -12,0l-79 45c-3,2 -3,5 0,7l83 48zm-255 147c3,2 8,2 12,0l78 -45c4,-2 4,-5 0,-7l-83 -48c-3,-2 -8,-2 -12,0l-78 46c-4,2 -4,5 0,7l83 47zm370 -213c3,2 9,2 12,0l79 -46c3,-2 3,-5 0,-7l-83 -48c-4,-2 -9,-1 -12,0l-79 46c-3,2 -3,5 0,7l83 48zm-230 132c3,2 9,2 12,0l79 -45c3,-2 3,-5 0,-7l-83 -48c-4,-2 -9,-2 -12,0l-79 46c-3,2 -3,5 0,6l83 48zm569 -363c3,2 8,2 11,0l79 -45c3,-2 4,-5 0,-7l-22 -13c-3,-2 -8,-2 -12,0l-78 45c-4,2 -4,5 -1,7l23 13zm-578 952l79 -45c3,-2 3,-5 0,-7l-83 -48c-3,-2 -9,-2 -12,0l-79 45c-3,2 -3,5 0,7l83 48c4,2 9,2 12,0zm-230 133l79 -45c3,-2 4,-5 0,-7l-83 -48c-3,-2 -8,-2 -12,0l-78 45c-4,2 -4,5 -1,7l83 48c4,2 9,2 12,0zm115 -66l79 -46c3,-2 3,-5 0,-7l-83 -48c-3,-2 -8,-2 -12,0l-78 46c-4,2 -4,5 -1,7l83 48c4,2 9,2 12,0zm-459 265l78 -45c4,-2 4,-5 0,-7l-83 -48c-3,-2 -8,-2 -12,0l-78 45c-4,2 -4,5 0,7l83 48c3,2 8,2 12,0zm230 -133l78 -45c3,-2 4,-5 0,-7l-83 -48c-3,-2 -8,-2 -12,0l-78 46c-4,1 -4,5 0,6l83 48c3,2 8,2 12,0zm-115 67l78 -46c4,-2 4,-5 0,-7l-83 -48c-3,-1 -8,-1 -12,1l-78 45c-4,2 -4,5 0,7l83 48c3,2 8,2 12,0zm1083 -632c3,1 8,1 12,-1l78 -45c4,-2 4,-5 0,-7l-83 -48c-3,-2 -8,-2 -12,0l-78 46c-4,2 -4,5 0,7l83 48zm-509 300l79 -46c3,-1 3,-5 0,-6l-83 -48c-3,-2 -9,-2 -12,0l-79 45c-3,2 -3,5 0,7l83 48c4,2 9,2 12,0zm656 -516l79 -45c3,-2 3,-5 0,-7l-83 -48c-3,-2 -9,-2 -12,0l-79 46c-3,1 -3,5 0,6l83 48c3,2 9,2 12,0zm107 69c3,2 8,2 12,0l78 -46c4,-2 4,-5 0,-7l-83 -47c-3,-2 -8,-2 -12,0l-78 45c-3,2 -4,5 0,7l83 48zm-648 380l230 -132c3,-2 4,-5 0,-7l-83 -48c-3,-2 -8,-2 -12,0l-230 133c-3,2 -3,5 0,7l83 48c4,1 9,1 12,-1zm283 -437l79 -45c3,-2 3,-5 0,-7l-83 -48c-3,-2 -8,-2 -12,0l-78 45c-4,2 -4,5 -1,7l83 48c4,2 9,2 12,0zm492 -10l78 -45c4,-2 4,-5 0,-7l-83 -48c-3,-2 -8,-2 -12,0l-78 46c-4,2 -4,5 0,7l83 47c3,2 8,2 12,0zm-255 182c-3,-2 -9,-2 -12,0l-79 45c-3,2 -3,5 0,7l83 48c3,2 9,2 12,0l79 -45c3,-2 3,-6 0,-7l-83 -48zm-411 237c-4,-2 -9,-2 -12,0l-97 56c-4,2 -4,5 0,7l83 48c3,2 8,2 12,0l96 -56c4,-2 4,-5 1,-7l-83 -48zm-1217 702c-3,-2 -8,-2 -11,0l-97 56c-4,2 -4,5 0,7l83 48c3,2 8,2 12,0l96 -56c4,-2 4,-5 1,-7l-84 -48zm950 -548c-3,-2 -8,-2 -12,0l-96 56c-4,2 -4,5 -1,7l83 48c4,2 9,2 12,0l97 -56c4,-2 4,-5 0,-7l-83 -48zm-816 471c-4,-1 -9,-1 -12,0l-97 56c-4,2 -4,5 0,7l83 48c3,2 8,2 12,0l96 -56c4,-2 4,-5 1,-7l-83 -48zm683 -394c-3,-2 -8,-2 -12,0l-647 374c-3,1 -3,5 0,6l83 48c3,2 8,2 12,0l647 -373c3,-2 4,-5 0,-7l-83 -48zm557 -322c-3,-2 -9,-1 -12,0l-121 70c-3,2 -4,5 0,7l83 48c3,2 8,2 12,0l121 -70c3,-2 3,-5 0,-7l-83 -48zm-291 168c-3,-2 -8,-2 -12,0l-96 56c-4,2 -4,5 0,7l83 48c3,2 8,2 12,0l96 -56c4,-2 4,-5 0,-7l-83 -48zm1227 -612l-202 -117c-3,-1 -8,-1 -12,0l-78 46c-4,2 -4,5 0,7l201 116c3,2 9,2 12,0l79 -45c3,-2 3,-5 0,-7zm-198 18c-3,-2 -9,-2 -12,0l-79 46c-3,2 -3,5 0,7l83 48c3,1 9,1 12,-1l79 -45c3,-2 3,-5 0,-7l-83 -48zm-599 346c-3,-2 -9,-2 -12,0l-79 46c-3,1 -3,5 0,6l83 48c4,2 9,2 12,0l79 -45c3,-2 3,-5 0,-7l-83 -48zm-1324 730l78 -45c4,-2 4,-5 0,-7l-83 -48c-3,-2 -8,-2 -12,0l-78 46c-4,2 -4,5 0,7l83 48c3,1 8,1 12,-1zm1554 -863c-3,-2 -9,-2 -12,0l-79 46c-3,2 -3,5 0,7l83 48c3,2 9,1 12,0l79 -46c3,-2 3,-5 0,-7l-83 -48zm254 -146c-3,-2 -9,-2 -12,0l-194 111c-3,2 -3,5 0,7l83 48c4,2 9,2 12,0l194 -112c3,-1 3,-5 0,-6l-83 -48zm-2385 759c3,1 9,1 12,-1l79 -45c3,-2 3,-5 0,-7l-83 -48c-3,-2 -9,-2 -12,0l-79 46c-3,2 -3,5 0,7l83 48zm115 -67c3,2 9,2 12,0l79 -45c3,-2 3,-5 0,-7l-83 -48c-3,-2 -9,-2 -12,0l-79 45c-3,2 -3,5 0,7l83 48zm140 537c-3,-2 -8,-2 -12,0l-121 70c-3,2 -3,5 0,7l83 48c4,2 9,2 12,0l121 -70c4,-2 4,-5 0,-7l-83 -48zm25 -632c3,2 9,2 12,0l79 -46c3,-2 3,-5 0,-6l-83 -48c-4,-2 -9,-2 -12,0l-79 45c-3,2 -3,5 0,7l83 48zm230 -133c3,2 9,2 12,0l79 -45c3,-2 3,-5 0,-7l-83 -48c-4,-2 -9,-2 -12,0l-79 45c-3,2 -3,5 0,7l83 48zm-625 361c3,2 9,2 12,0l79 -46c3,-2 3,-5 0,-7l-83 -47c-3,-2 -9,-2 -12,0l-79 45c-3,2 -3,5 0,7l83 48zm510 -294c3,1 9,1 12,-1l79 -45c3,-2 3,-5 0,-7l-83 -48c-4,-2 -9,-2 -12,0l-79 46c-3,2 -3,5 0,7l83 48zm230 -133c3,2 8,2 12,0l78 -46c4,-2 4,-5 1,-7l-83 -48c-4,-1 -9,-1 -12,1l-79 45c-3,2 -3,5 0,7l83 48zm-429 825l-83 -48c-4,-2 -9,-2 -12,0l-97 56c-4,2 -4,5 0,7l83 47c3,2 8,2 12,0l97 -56c3,-1 3,-5 0,-6zm-65 -100l-83 -48c-3,-2 -8,-2 -11,0l-152 87c-3,2 -3,5 0,7l83 48c3,2 9,2 12,0l151 -87c4,-2 4,-5 0,-7zm-361 -232c3,2 9,2 12,0l79 -45c3,-2 3,-5 0,-7l-83 -48c-3,-2 -9,-2 -12,0l-79 45c-3,2 -3,5 0,7l83 48zm-74 43l-83 -48c-3,-2 -9,-2 -12,0l-97 56c-3,2 -3,5 0,7l83 48c3,2 9,2 12,0l97 -56c3,-2 3,-5 0,-7zm287 138l-83 -48c-4,-2 -9,-2 -12,0l-121 70c-4,2 -4,5 0,7l83 48c3,1 8,1 12,-1l121 -69c3,-2 3,-5 0,-7zm-161 -44l-83 -48c-4,-2 -9,-2 -12,0l-79 45c-3,2 -3,5 0,7l83 48c3,2 9,2 12,0l79 -45c3,-2 3,-5 0,-7zm640 48l78 -46c4,-2 4,-5 0,-7l-83 -47c-3,-2 -8,-2 -12,0l-78 45c-4,2 -4,5 0,7l83 48c3,2 8,2 12,0zm115 -450l-78 45c-4,2 -4,5 0,7l83 48c3,2 8,2 12,0l78 -46c4,-2 4,-5 0,-7l-83 -47c-3,-2 -8,-2 -12,0zm-115 66l-78 45c-4,2 -4,5 0,7l83 48c3,2 8,2 12,0l78 -45c4,-2 4,-5 0,-7l-83 -48c-3,-2 -8,-2 -12,0zm460 -265l-78 45c-4,2 -4,5 -1,7l83 48c4,2 9,2 12,0l79 -46c3,-2 3,-5 0,-7l-83 -48c-3,-1 -8,-1 -12,1zm-230 132l-78 46c-4,2 -4,5 0,7l83 47c3,2 8,2 12,0l78 -45c4,-2 4,-5 0,-7l-83 -48c-3,-2 -8,-2 -12,0zm115 -66l-78 45c-4,2 -4,5 0,7l83 48c3,2 8,2 11,0l79 -45c3,-2 4,-5 0,-7l-83 -48c-3,-2 -8,-2 -12,0zm-460 265l-78 46c-4,2 -4,5 0,7l83 48c3,1 8,1 12,0l78 -46c4,-2 4,-5 0,-7l-83 -48c-3,-2 -8,-2 -12,0zm-114 67l-79 45c-3,2 -4,5 0,7l83 48c3,2 8,2 12,0l78 -46c4,-1 4,-5 1,-6l-83 -48c-4,-2 -9,-2 -12,0zm394 18l79 -45c3,-2 4,-5 0,-7l-83 -48c-3,-2 -8,-2 -12,0l-78 45c-4,2 -4,5 -1,7l83 48c4,2 9,2 12,0zm-114 67l78 -46c4,-2 4,-5 0,-7l-83 -48c-3,-2 -8,-2 -12,0l-78 46c-4,2 -4,5 0,7l83 48c3,1 8,1 12,0zm-115 66l78 -46c4,-1 4,-5 0,-6l-83 -48c-3,-2 -8,-2 -12,0l-78 45c-4,2 -4,5 0,7l83 48c3,2 8,2 12,0zm-280 -85l-79 45c-3,2 -3,6 0,7l83 48c3,2 8,2 12,0l78 -45c4,-2 4,-5 1,-7l-83 -48c-4,-2 -9,-2 -12,0zm153 151c3,2 8,2 12,0l78 -45c4,-2 4,-5 0,-7l-83 -48c-3,-2 -8,-2 -12,0l-78 45c-4,2 -4,6 0,7l83 48zm881 -748l-79 45c-3,2 -3,5 0,7l83 48c4,2 9,2 12,0l79 -45c3,-2 3,-5 0,-7l-83 -48c-3,-2 -9,-2 -12,0zm988 -331c3,2 9,2 12,0l79 -45c3,-2 3,-5 0,-7l-83 -48c-3,-2 -9,-2 -12,0l-79 45c-3,2 -3,5 0,7l83 48zm-1103 397l-78 46c-4,1 -4,5 -1,6l83 48c4,2 9,2 12,0l79 -45c3,-2 3,-5 0,-7l-83 -48c-3,-2 -8,-2 -12,0zm865 -499l-78 45c-4,2 -4,5 0,7l83 48c3,2 8,2 12,0l78 -46c4,-2 4,-5 0,-6l-83 -48c-3,-2 -8,-2 -12,0zm266 -147l202 116c3,2 9,2 12,0l79 -45c3,-2 3,-5 0,-7l-202 -117c-3,-1 -8,-1 -12,1l-78 45c-4,2 -4,5 -1,7zm-24 14c-3,-2 -8,-2 -12,0l-78 45c-4,2 -4,5 -1,7l83 48c4,2 9,2 12,0l79 -45c3,-2 3,-5 0,-7l-83 -48zm-111 166l79 -45c3,-2 4,-5 0,-7l-83 -48c-3,-2 -8,-2 -12,0l-78 46c-4,2 -4,5 0,7l83 48c3,1 8,1 11,-1zm234 3l79 -46c3,-2 3,-5 0,-7l-83 -48c-3,-2 -9,-2 -12,0l-79 46c-3,2 -3,5 0,7l83 48c3,2 9,1 12,0zm-1410 813l79 -45c3,-2 3,-5 0,-7l-83 -48c-3,-2 -8,-2 -12,0l-78 46c-4,2 -4,5 -1,7l83 47c4,2 9,2 12,0zm1169 -1051c-4,-1 -9,-1 -12,0l-79 46c-3,2 -3,5 0,7l83 48c3,2 9,2 12,0l79 -46c3,-2 3,-5 0,-7l-83 -48zm-743 669l79 -46c3,-2 3,-5 0,-7l-83 -48c-3,-2 -9,-2 -12,0l-79 46c-3,2 -3,5 0,7l83 48c4,2 9,2 12,0zm616 -602l-79 45c-3,2 -3,5 0,7l83 48c3,2 9,2 12,0l79 -45c3,-2 3,-5 0,-7l-83 -48c-4,-2 -9,-2 -12,0zm-254 147l-79 45c-3,2 -3,5 0,7l83 48c3,2 8,2 12,0l78 -46c4,-2 4,-5 1,-7l-83 -48c-4,-1 -9,-1 -12,1zm139 -81l-79 46c-3,2 -3,5 0,7l83 47c3,2 9,2 12,0l79 -45c3,-2 3,-5 0,-7l-83 -48c-4,-2 -9,-2 -12,0zm-1042 985l79 -46c3,-2 3,-5 0,-7l-83 -47c-3,-2 -8,-2 -12,0l-78 45c-4,2 -4,5 -1,7l83 48c4,2 9,2 12,0zm-555 -63l-79 46c-3,2 -3,5 0,7l83 48c3,1 8,1 12,0l78 -46c4,-2 4,-5 1,-7l-83 -48c-4,-2 -9,-2 -12,0zm115 -66l-79 45c-3,2 -4,5 0,7l83 48c3,2 8,2 12,0l78 -45c4,-2 4,-5 0,-7l-83 -48c-3,-2 -8,-2 -11,0zm114 -66l-78 45c-4,2 -4,5 0,7l83 48c3,2 8,2 12,0l78 -46c4,-2 4,-5 0,-7l-83 -47c-3,-2 -8,-2 -12,0zm230 -133l-78 45c-4,2 -4,5 0,7l83 48c3,2 8,2 12,0l78 -45c4,-2 4,-5 0,-7l-83 -48c-3,-2 -8,-2 -12,0zm-574 332l-79 45c-3,2 -3,5 0,7l83 48c3,2 8,2 12,0l78 -46c4,-1 4,-5 1,-6l-83 -48c-4,-2 -9,-2 -12,0zm459 -266l-78 46c-4,2 -4,5 0,7l83 47c3,2 8,2 12,0l78 -45c4,-2 4,-5 0,-7l-83 -48c-3,-2 -8,-2 -12,0zm-574 332l-79 45c-3,2 -3,6 0,7l83 48c3,2 9,2 12,0l79 -45c3,-2 3,-5 0,-7l-83 -48c-4,-2 -9,-2 -12,0zm263 362c3,1 8,1 12,0l78 -46c4,-2 4,-5 1,-7l-83 -48c-4,-2 -9,-2 -12,0l-79 46c-3,2 -3,5 0,7l83 48zm127 -67l78 -45c4,-2 4,-5 1,-7l-83 -48c-4,-2 -9,-2 -12,0l-79 45c-3,2 -3,5 0,7l83 48c3,2 8,2 12,0zm-340 -84c3,2 9,2 12,0l78 -46c4,-2 4,-5 1,-7l-83 -48c-4,-2 -9,-1 -12,0l-79 46c-3,2 -3,5 0,7l83 48zm-165 -145l-79 46c-3,2 -3,5 0,7l83 48c3,2 9,2 12,0l79 -46c3,-2 3,-5 0,-7l-83 -48c-4,-2 -9,-1 -12,0zm314 196c3,2 8,2 12,0l78 -46c4,-2 4,-5 0,-7l-83 -48c-3,-2 -8,-1 -12,0l-78 46c-4,2 -4,5 0,7l83 48zm605 -726l-78 45c-4,2 -4,5 0,7l83 48c3,2 8,2 12,0l78 -46c4,-2 4,-5 0,-7l-83 -48c-3,-1 -8,-1 -12,1zm115 -67l-78 46c-4,1 -4,5 -1,6l83 48c4,2 9,2 12,0l79 -45c3,-2 4,-5 0,-7l-83 -48c-3,-2 -8,-2 -12,0zm556 63l176 -102c3,-2 3,-5 0,-7l-202 -116c-3,-2 -9,-2 -12,0l-91 52c-3,2 -3,5 0,7l107 62c3,2 3,5 0,7l-73 42c-3,2 -3,5 0,7l83 48c3,2 9,2 12,0zm117 -205l79 -46c3,-1 4,-5 0,-6l-83 -48c-3,-2 -8,-2 -12,0l-78 45c-4,2 -4,5 0,7l83 48c3,2 8,2 11,0zm-577 470l79 -45c3,-2 3,-5 0,-7l-83 -48c-3,-2 -9,-2 -12,0l-79 45c-3,2 -3,5 0,7l83 48c4,2 9,2 12,0zm115 -66l79 -46c3,-2 3,-5 0,-7l-83 -48c-3,-1 -9,-1 -12,1l-79 45c-3,2 -3,5 0,7l83 48c4,2 9,2 12,0zm115 -67l79 -45c3,-2 3,-5 0,-7l-83 -48c-3,-2 -9,-2 -12,0l-79 46c-3,1 -3,5 0,6l83 48c4,2 9,2 12,0zm115 -66l79 -45c3,-2 3,-5 0,-7l-83 -48c-3,-2 -9,-2 -12,0l-79 45c-3,2 -3,5 0,7l83 48c3,2 9,2 12,0zm-326 -195l-78 45c-4,2 -4,5 -1,7l83 48c4,2 9,2 12,0l79 -45c3,-2 3,-5 0,-7l-83 -48c-3,-2 -8,-2 -12,0zm115 -67l-78 46c-4,2 -4,5 -1,7l83 48c4,2 9,2 12,0l79 -46c3,-2 3,-5 0,-7l-83 -48c-3,-2 -9,-2 -12,0zm309 -178l-79 46c-3,2 -3,5 0,7l83 48c3,1 9,1 12,-1l79 -45c3,-2 3,-5 0,-7l-83 -48c-4,-2 -9,-2 -12,0zm-139 81l-134 76c-3,2 -3,5 0,7l83 48c4,2 9,2 12,0l133 -77c4,-2 4,-5 1,-7l-83 -47c-4,-2 -9,-2 -12,0zm254 -147l-79 45c-3,2 -3,5 0,7l83 48c3,2 9,2 12,0l79 -45c3,-2 3,-5 0,-7l-83 -48c-4,-2 -9,-2 -12,0zm134 169l79 -46c3,-2 3,-5 0,-7l-83 -48c-3,-2 -8,-2 -12,0l-78 46c-4,2 -4,5 -1,7l83 48c4,1 9,1 12,0z"/>
   <path class="fil5" d="M2437 4169l708 -409c22,-12 56,-12 78,0l406 235c21,12 21,32 0,44l-709 409c-21,13 -56,13 -77,0l-406 -234c-22,-12 -22,-32 0,-45z"/>
   <path class="fil0" d="M2317 1069c-221,198 -413,188 -532,96 -120,230 -311,461 -532,518l-127 342c0,0 68,78 68,264 0,85 -13,159 -31,232 -24,92 -53,188 -53,347 0,108 14,213 69,309 31,55 77,102 138,138 -41,-23 -161,-93 -192,-111 -65,-37 -113,-85 -146,-143 -54,-95 -69,-200 -69,-308 0,-159 30,-255 53,-347 18,-73 31,-147 31,-232 0,-186 -67,-265 -67,-265l126 -341c222,-57 413,-288 532,-518 120,92 311,102 532,-97l200 116z"/>
   <path class="fil8" d="M1972 1228c0,0 0,0 0,0 0,0 0,0 0,0l0 0zm0 0c29,0 59,-4 91,-12 -5,2 -10,3 -15,4 -27,6 -52,8 -76,8zm-199 -115c-43,0 -82,-8 -117,-22l-1 -1c36,15 75,23 118,23 99,0 216,-45 343,-159 -127,114 -244,159 -343,159z"/>
   <path class="fil9" d="M1972 1228c0,0 0,0 0,0 -30,0 -58,-4 -85,-11 -38,-11 -72,-29 -102,-52 0,0 0,0 0,0 0,0 0,0 0,0l0 0 -129 -74c35,14 74,22 117,22 99,0 216,-45 343,-159 1,0 1,0 1,-1l200 116c-91,81 -176,127 -254,147 -32,8 -62,12 -91,12 0,0 0,0 0,0zm345 -159l0 0 0 0 0 0 0 0z"/>
   <path class="fil10" d="M1656 1091c-24,-10 -47,-23 -67,-39 20,16 42,28 66,38l-70 -40 70 40c0,0 0,0 0,0l1 1zm-67 -39c0,0 -1,0 -1,0 0,0 1,0 1,0zm-1 0c0,0 0,0 0,0 0,0 0,0 0,0zm-2 -2c-1,0 -1,0 -1,0l0 0c0,0 0,0 1,0z"/>
   <path class="fil11" d="M1253 1683l-200 -115c222,-57 413,-288 532,-518l0 0c0,0 0,0 1,0 0,1 1,1 2,2 0,0 0,0 0,0 0,0 0,0 0,0 0,0 1,0 1,0 0,0 0,0 0,0 20,16 43,29 67,39l129 74c-7,13 -14,26 -21,39 -121,217 -303,425 -511,479l0 0z"/>
   <path class="fil12" d="M1655 1090c-24,-10 -46,-22 -66,-38 0,0 0,0 0,0 0,0 -1,0 -1,0 0,0 0,0 0,0 0,0 0,0 0,0 -1,-1 -2,-1 -2,-2 -1,0 -1,0 -1,0l0 0 70 40z"/>
   <path class="fil13" d="M1589 1052c0,0 0,0 0,0 0,0 0,0 0,0zm-1 0c0,0 0,0 0,0 0,0 0,0 0,0zm0 0c-1,-1 -2,-1 -2,-2 0,1 1,1 2,2z"/>
   <path class="fil14" d="M1656 1091l0 0 -1 -1c0,0 0,0 0,0l1 1z"/>
   <polygon class="fil15" points="1785,1165 1656,1091 1656,1091 "/>
   <polygon class="fil16" points="1126,2025 927,1909 927,1909 1053,1568 1253,1683 1230,1744 1126,2025 "/>
   <path class="fil17" d="M1315 3314c-29,-16 -89,-51 -135,-78 -24,-14 -45,-26 -55,-32 -65,-37 -113,-85 -146,-143 -54,-95 -69,-200 -69,-308 0,-159 30,-255 53,-347 18,-73 31,-147 31,-232l0 0c0,-186 -67,-265 -67,-265l199 116c0,0 68,78 68,264 0,53 -5,101 -13,148 -5,29 -12,56 -18,84 -14,53 -29,106 -40,172 -8,50 -13,107 -13,175l0 0c0,93 10,185 49,269 6,13 12,27 20,40 31,54 76,100 136,137z"/>
   <path class="fil0" d="M1785 3410c-331,4 -521,-83 -606,-233 -55,-96 -69,-201 -69,-309 0,-159 29,-255 53,-347 18,-73 31,-147 31,-231 0,-187 -68,-265 -68,-265l127 -342c221,-57 412,-288 532,-518 119,92 310,102 532,-96l126 195c0,0 -67,157 -67,343 0,84 13,144 31,196 23,65 53,126 53,286 0,108 -15,229 -69,388 -86,249 -276,555 -606,933z"/>
   <path class="fil18" d="M1765 3411c-23,0 -45,-1 -67,-2 -111,-4 -204,-21 -281,-47 -114,-40 -192,-104 -238,-185 -55,-96 -69,-201 -69,-309 0,-159 29,-255 53,-347 18,-73 31,-147 31,-231l0 0c0,-187 -68,-265 -68,-265l127 -342c221,-57 412,-288 532,-518 50,39 114,63 187,63 100,0 217,-45 345,-159l126 195c0,0 -67,157 -67,343l0 0c0,84 13,144 31,196 23,65 53,126 53,286 0,108 -15,229 -69,388 -86,249 -276,555 -606,933 -7,1 -14,1 -20,1zm-19 -86l0 0c289,-336 479,-631 564,-876 44,-129 64,-240 64,-360l0 0c0,-127 -20,-179 -40,-235 -3,-8 -5,-15 -8,-23 -25,-71 -36,-140 -36,-224 0,-143 36,-269 58,-333l0 0 -51 -78 0 0 -29 20 0 0 0 0 0 0c-98,64 -195,97 -291,98 0,0 0,0 0,0 -1,0 -1,0 -1,0 0,0 0,0 0,0 0,0 0,0 0,0 0,0 -1,0 -1,0 0,0 0,0 0,0 0,0 0,0 0,0 0,0 0,0 -1,0 0,0 0,0 0,0 0,0 0,0 0,0 0,0 0,0 0,0 -1,0 -1,0 -1,0 0,0 0,0 0,0 0,0 0,0 0,0 -1,0 -1,0 -1,0 -54,0 -106,-10 -155,-31 -18,32 -41,67 -66,104 -22,31 -46,63 -72,95 -93,111 -213,219 -358,270l0 0c0,0 -1,0 -1,0 0,0 0,0 0,0 0,0 0,0 -1,1 0,0 0,0 0,0 0,0 0,0 -1,0l0 0 -97 262 0 0c26,49 59,138 59,275 0,80 -11,158 -34,252 -3,10 -5,21 -8,31 -21,81 -42,164 -42,295l0 0c0,114 17,196 57,266l0 0c0,0 0,0 0,0 0,0 0,0 0,0 71,123 236,187 491,191 0,0 0,0 0,0 1,0 1,0 2,0z"/>
   <path class="fil19" d="M1746 3325l0 0 -68 -39c0,0 0,0 1,0l0 0c289,-336 479,-630 564,-876 44,-129 64,-240 64,-360 0,-126 -19,-179 -40,-235 -3,-7 -5,-15 -8,-22 -25,-71 -36,-141 -36,-224 0,-143 36,-269 58,-333l-13 -20 0 0 13 20 67 38c-22,64 -58,190 -58,333l0 0c0,84 11,153 36,224 3,8 5,15 8,23 20,56 40,108 40,235 0,120 -20,231 -64,360 -85,245 -275,540 -564,876zm0 0c-1,0 -1,0 -2,0 1,0 1,0 2,0zm-2 0c-255,-4 -420,-68 -491,-191 20,34 47,64 81,89 88,65 226,99 410,102zm-491 -191c0,0 0,0 0,0 0,0 0,0 0,0zm498 -1747c25,-37 48,-72 66,-104 49,21 101,31 155,31 0,0 0,0 1,0 -1,0 -1,0 -1,0 -54,0 -106,-10 -155,-31 -18,32 -41,67 -66,104l0 0zm222 -73c0,0 0,0 0,0 0,0 0,0 0,0zm1 0c0,0 0,0 0,0 0,0 0,0 0,0zm0 0c0,0 0,0 0,0 0,0 0,0 0,0zm1 0c0,0 0,0 0,0 0,0 0,0 0,0zm0 0c0,0 1,0 1,0 0,0 -1,0 -1,0zm1 0c0,0 0,0 0,0 0,0 0,0 0,0zm1 0c0,0 0,0 0,0 0,0 0,0 0,0z"/>
   <path class="fil15" d="M1744 3325c0,0 0,0 0,0 0,0 0,0 0,0z"/>
   <path class="fil20" d="M1746 3325l0 0c-1,0 -1,0 -2,0 0,0 0,0 0,0 -184,-3 -322,-37 -410,-102 1,0 2,1 3,2 85,39 199,59 341,61l68 39z"/>
   <path class="fil21" d="M2268 1216l0 0 29 -20c-10,7 -20,13 -29,20z"/>
   <path class="fil22" d="M2348 1274l-67 -38 -13 -20c9,-7 19,-13 29,-20l0 0 51 78 0 0z"/>
   <path class="fil6" d="M2259 1793c-25,-71 -36,-141 -36,-224 0,-143 36,-269 58,-333l-13 -20c-99,65 -198,98 -296,98 -54,0 -106,-10 -155,-31 -90,153 -262,387 -499,470l-97 262c26,49 59,138 59,275 0,80 -11,158 -34,252 -3,10 -5,21 -8,31 -21,81 -42,164 -42,295 0,114 17,196 57,266 20,35 48,65 84,91 85,39 199,59 342,61 289,-336 479,-630 564,-876 44,-129 64,-240 64,-360 0,-126 -19,-179 -40,-235 -3,-7 -5,-15 -8,-22z"/>
   <path class="fil4" d="M1318 1753l-97 262c26,49 59,138 59,275 0,80 -11,158 -34,252 -3,10 -5,21 -8,31 -21,81 -42,164 -42,295 0,114 17,196 57,266 20,35 48,65 84,91 85,39 199,59 342,61l0 -966 138 -42 0 -995c-38,66 -84,132 -138,199 -93,111 -214,220 -361,271z"/>
   <path class="fil5" d="M1595 1944c0,-88 60,-198 131,-239 24,-14 46,-18 60,-10 16,10 26,36 26,71l0 163 -120 69 -97 56 0 -110zm419 19c-2,-2 -4,-5 -6,-7l0 -1c-4,-4 -9,-8 -15,-12l-46 -26c-8,-5 -17,-8 -27,-11 -5,-1 -11,-2 -17,-2l0 -138c0,-69 -26,-123 -71,-150 -44,-25 -97,-21 -151,10 -100,57 -177,197 -177,318l0 163 -93 53c-3,2 -5,3 -8,5l-2 2 -1 1c-8,7 -13,16 -13,25l0 557c0,2 1,4 1,7 3,8 8,16 18,22 2,1 3,3 5,4l23 13 24 14c8,5 19,8 30,10 28,6 61,3 84,-11l421 -243c16,-9 24,-21 24,-33l0 -557c0,-4 -1,-8 -3,-13z"/>
   <path class="fil0" d="M2066 2001c0,-12 -8,-24 -24,-33l-46 -27c-32,-18 -83,-18 -114,0l-422 244c-16,9 -23,21 -23,33l0 556c0,12 7,24 23,33l47 27c31,18 82,18 114,0l421 -243c16,-9 24,-21 24,-33l0 -557z"/>
   <path class="fil23" d="M1437 2218c-1,-9 4,-19 13,-27 -9,8 -13,17 -13,27l0 0zm13 -27c0,0 0,0 0,0 0,0 0,0 0,0zm0 0c0,0 0,0 0,0 0,0 0,0 0,0z"/>
   <path class="fil24" d="M1564 2291l0 0c-9,0 -18,-1 -26,-2 -11,-3 -22,-6 -31,-12l-39 -22 -8 -5c0,0 -1,0 -1,0 -9,-6 -16,-13 -19,-19 -2,-5 -3,-9 -3,-14l0 2c0,0 0,-1 0,-1l0 0c0,-10 4,-19 13,-27 0,0 0,0 0,0 0,0 0,0 0,0 0,0 0,0 0,0 0,0 0,0 0,0 3,-2 7,-4 10,-6l422 -244c15,-9 36,-13 57,-13 20,0 41,4 57,13l46 27c32,18 32,48 0,66l-421 243c-16,9 -36,14 -57,14z"/>
   <path class="fil25" d="M1533 2844c-9,-2 -18,-5 -26,-10l-22 -12 22 12c8,5 17,8 26,10z"/>
   <path class="fil26" d="M1456 2805c-10,-7 -16,-15 -19,-24 3,9 9,17 19,24zm-19 -24l0 0 0 0z"/>
   <path class="fil1" d="M1564 2848c-11,0 -21,-1 -31,-4 -9,-2 -18,-5 -26,-10l-22 -12 -25 -15c-1,-1 -3,-2 -4,-2 -10,-7 -16,-15 -19,-24 0,0 0,0 0,0l0 0c0,-2 0,-5 0,-7l0 -555c0,4 1,8 3,12 3,7 10,13 19,19 0,0 1,0 1,0l8 5 39 22c9,6 20,9 31,12 8,1 17,2 26,2 0,0 0,0 0,0l0 557z"/>
   <path class="fil27" d="M1564 2291c-9,0 -18,-1 -26,-2 8,1 17,2 26,2l0 0c0,0 0,0 0,0zm-96 -36l-8 -5c0,0 -1,0 -1,0 0,0 1,0 1,0l8 5zm-28 -24c-2,-4 -3,-8 -3,-12l0 -2c0,5 1,9 3,14z"/>
   <path class="fil6" d="M1871 2566l-101 58 16 -182c-13,-6 -20,-22 -20,-44 0,-40 24,-87 54,-104 30,-17 55,1 55,41 0,22 -8,47 -20,67l16 164z"/>
   <polygon class="fil4" points="1871,2566 1779,2514 1770,2624 "/>
   <path class="fil4" d="M1820 2294c-19,11 -37,35 -46,61l81 47 0 0c12,-20 20,-45 20,-67 0,-40 -25,-58 -55,-41z"/>
   <path class="fil28" d="M1952 2013l0 0 0 0 0 -222c0,-69 -26,-124 -71,-150 -44,-25 -97,-22 -151,10 -100,57 -177,197 -177,318l0 224 0 0c0,6 4,13 13,18 18,10 47,10 64,0 9,-5 14,-12 14,-18l0 0 0 -224c0,-89 60,-198 131,-240 24,-14 46,-17 60,-9 16,9 26,36 26,71l0 223 0 0c0,6 5,13 13,18 18,10 47,10 65,0 9,-5 13,-12 13,-18l0 0 0 -1z"/>
   <polygon class="fil0" points="2494,2992 2555,2956 2579,2927 2518,2962 "/>
   <polygon class="fil7" points="2494,2992 2512,2970 2518,2962 2518,2962 2531,2970 "/>
   <polygon class="fil0" points="2661,3088 2722,3053 2773,3007 2712,3043 "/>
   <path class="fil7" d="M2661 3088l0 0 0 0 0 0zm0 0l37 -33 14 -12 0 0 13 7 -3 3 -20 11 -41 24z"/>
   <path class="fil0" d="M3325 3212c-21,-140 -96,-279 -186,-331 -43,-25 -83,-26 -115,-7 -10,5 -44,25 -58,33l-3 2c-3,1 -5,3 -8,5 -4,3 -9,7 -13,11l-2 2c-2,1 -4,3 -5,5 -3,3 -5,5 -7,8 -4,5 -7,11 -11,17 -2,3 -3,7 -5,10l-504 -291 -62 35 0 39 6 3 4 3 0 8 -10 6 0 23 74 157 74 42 24 -30 65 39 37 64 41 23 51 -45 63 36 21 87 105 61c6,23 13,44 20,66 1,2 2,4 3,7 35,92 91,170 153,207 8,4 16,8 24,11 5,2 9,3 13,5 4,1 8,2 12,2 13,3 26,2 37,0 2,0 4,-1 6,-1 2,-1 4,-1 7,-2 2,-1 3,-2 5,-2 2,-1 4,-2 6,-3 2,-1 3,-2 5,-3l3 -1 1 -1c14,-8 48,-28 58,-33 46,-27 77,-96 77,-192 0,-25 -2,-50 -6,-75zm-143 -1c14,17 24,42 26,66 -14,-17 -24,-42 -26,-66z"/>
   <path class="fil0" d="M3264 3248c-21,-141 -97,-280 -187,-332 -41,-24 -80,-25 -111,-9l-3 2c-3,1 -5,3 -8,5 -4,3 -9,7 -13,11l-2 2c-2,1 -4,3 -5,5 -3,3 -5,5 -7,8 -4,5 -7,11 -11,17 -2,3 -3,7 -5,10 -8,17 -15,37 -19,59l-547 -315 0 39 6 3 4 3 0 8 -10 6 0 23 74 157 74 42 24 -30 65 39 37 64 41 23 51 -45 63 36 21 87 105 61c6,23 13,44 20,66 1,2 2,4 3,7 35,92 91,170 153,207 8,4 16,8 24,11 5,2 9,3 13,5 4,1 8,2 12,2 13,3 26,2 37,0 2,0 4,-1 6,-1 2,-1 4,-1 7,-2 2,-1 3,-2 5,-2 2,-1 4,-2 6,-3 2,-1 3,-2 5,-3l3 -1 1 -1c45,-28 73,-95 73,-190 0,-24 -2,-49 -5,-74zm-100 81c-24,-14 -44,-55 -44,-93 0,-37 20,-56 44,-42 24,14 44,56 44,93 0,37 -20,56 -44,42z"/>
   <path class="fil7" d="M3180 3334c-5,0 -10,-2 -16,-5 -6,-3 -12,-9 -17,-15 -16,-20 -27,-50 -27,-78 0,-22 7,-38 18,-44 3,-1 7,-2 11,-2 4,0 9,1 14,4 1,0 1,0 1,0 5,3 9,6 13,10 2,2 3,4 5,7 2,24 12,49 26,66 0,2 0,3 0,4 0,2 0,4 0,6 0,29 -12,47 -28,47z"/>
   <path class="fil7" d="M3147 3314c-16,-20 -27,-50 -27,-78 0,-22 7,-38 18,-44 -11,6 -18,22 -18,44 0,28 11,58 27,78zm61 -27c0,-2 0,-4 0,-6 0,2 0,4 0,6 0,0 0,0 0,0zm-31 -83c-4,-4 -8,-7 -13,-10 0,0 0,0 -1,0 1,0 1,0 1,0 5,3 9,6 13,10z"/>
   <path class="fil23" d="M3138 2881c-23,-14 -46,-20 -66,-20 20,0 43,6 66,20z"/>
   <path class="fil24" d="M3269 3311c0,-21 -2,-42 -5,-63 -21,-141 -97,-280 -187,-332 -23,-13 -46,-20 -67,-20 -16,0 -31,4 -44,11 14,-8 48,-28 58,-33l0 0c0,0 0,0 0,-1 15,-8 31,-12 48,-12 0,0 0,0 0,0 0,0 0,0 0,0 20,0 43,6 66,20 0,0 1,0 1,0 90,52 165,191 186,331 4,25 6,50 6,75l0 0c0,-4 -1,-7 -1,-11 -21,12 -42,25 -61,35z"/>
   <path class="fil0" d="M3269 3322c0,95 -28,162 -73,190 14,-8 48,-28 58,-33 46,-27 77,-96 77,-192 0,-4 -1,-7 -1,-11 -21,12 -42,25 -61,36 0,3 0,7 0,10z"/>
   <path class="fil1" d="M3196 3512c45,-28 73,-95 73,-190l0 0c0,-3 0,-7 0,-10 19,-11 40,-24 61,-36 0,4 1,7 1,11 0,22 -2,42 -5,61 -4,25 -10,47 -18,66 -4,7 -8,15 -12,21 -11,20 -26,34 -42,44 -6,3 -19,10 -32,18 -10,6 -20,12 -26,15z"/>
   <polygon class="fil29" points="2895,3075 2356,2764 2356,2764 2346,2770 2356,2764 2356,2756 2895,3067 "/>
   <polygon class="fil30" points="2895,3087 2346,2770 2356,2764 2356,2764 2895,3075 "/>
   <path class="fil29" d="M3134 3479c0,0 0,0 0,0 -19,0 -39,-5 -59,-17 -46,-27 -86,-78 -115,-140 -29,-61 -47,-134 -47,-203l0 0c0,-53 11,-97 30,-127 18,-31 46,-48 78,-48 0,0 0,0 0,0 19,0 39,6 59,17 45,27 86,78 115,140 29,62 47,134 47,203 0,53 -11,97 -30,127 -19,31 -46,48 -78,48zm-211 -360c0,67 18,138 46,199 29,61 68,110 111,135 19,11 37,16 54,16 28,0 52,-15 70,-43 17,-29 28,-70 28,-122 0,-67 -18,-138 -46,-199 -29,-60 -68,-110 -111,-135 -19,-11 -37,-16 -54,-16 -28,0 -52,15 -70,43 -17,29 -28,70 -28,122z"/>
   <path class="fil31" d="M2893 3026l-547 -315 62 -35 504 291c-8,17 -15,37 -19,59z"/>
   <path class="fil5" d="M4995 4509c2,19 4,73 101,86 97,13 159,-19 184,-65 26,-47 20,-85 24,-128 5,-44 40,-67 51,-89 15,-33 -7,-84 -7,-84l-353 280z"/>
   <path class="fil5" d="M4287 4357c-4,3 -5,33 6,47 7,9 75,55 155,42 81,-13 120,-36 165,-65 46,-30 79,-35 127,-37 47,-1 81,-11 84,-24 7,-21 7,-35 -4,-34l-533 71z"/>
   <path class="fil32" d="M5325 4154c-12,89 -184,82 -170,11l-30 -215 194 6 6 198z"/>
   <path class="fil4" d="M5002 4465c8,-16 33,-39 44,-53 58,-75 94,-163 101,-258 1,-5 1,-15 6,-18 6,-3 11,1 16,4l1 -1 0 1c7,3 16,6 30,8 34,3 72,-5 81,-4 6,1 8,22 8,44 12,-7 16,-23 27,-32 6,-5 9,-5 9,-13 0,-5 -1,-9 -1,-15 9,-2 16,32 24,57 8,30 18,64 7,94 -7,17 -18,32 -28,47 -17,26 -32,55 -35,86 -1,14 0,28 -2,41 -7,47 -39,84 -85,99 -59,18 -148,15 -200,-26 -18,-15 -12,-45 -3,-61z"/>
   <path class="fil32" d="M4781 4139c-47,37 -104,58 -162,32l-13 -362 194 36 -19 294z"/>
   <path class="fil4" d="M4326 4295c13,-4 25,-9 38,-14 35,-14 69,-31 102,-51 14,-8 28,-17 42,-27 14,-10 28,-21 41,-32 7,-6 14,-14 20,-22 12,-14 21,-30 29,-47 2,-4 4,-8 7,-9 5,-3 10,0 14,2 4,3 7,6 11,8 4,1 7,3 11,4 12,5 25,9 38,10 50,4 51,-6 53,10 1,4 1,10 1,18 26,-4 46,-13 47,-23l4 -31c26,-2 27,44 36,96 7,42 17,73 5,104 -39,34 -108,26 -148,32 -55,9 -81,51 -159,77 -125,44 -203,-6 -227,-28 -15,-28 -18,-60 35,-77z"/>
   <path class="fil5" d="M5270 2002c10,153 28,378 34,555 12,333 8,712 8,712 0,0 32,119 35,214 8,212 7,690 7,690 0,0 -88,89 -220,19 0,0 -117,-670 -150,-879 -31,-200 -92,-600 -92,-600l-28 567c0,0 33,116 21,273 -7,97 -63,579 -63,579 -50,47 -198,21 -230,-17 0,0 -52,-711 -58,-813 -12,-223 -45,-1051 -29,-1179 17,-129 765,-121 765,-121z"/>
   <path class="fil33" d="M4892 2713l-39 -257c0,0 -106,-20 -184,-77 0,0 30,68 148,117l38 239 9 545 28 -567z"/>
   <path class="fil5" d="M5208 924c-7,1 -13,0 -18,-1 -4,-1 -22,-11 -13,-15 7,-3 19,4 25,9 2,2 4,5 6,7zm29 -58c-10,3 -19,2 -27,-4 -6,-4 -13,-10 -2,-10 11,-1 21,6 29,14zm-128 108c7,28 57,24 78,19 26,-7 46,-31 43,-58 11,-3 21,-9 28,-17 12,-14 10,-33 2,-48 18,-13 28,-35 24,-56 -2,-16 -12,-30 -24,-40 -10,-7 -29,-17 -42,-15 -5,1 -10,10 -3,11 9,1 24,8 31,14 8,6 18,15 21,26 6,19 -1,37 -15,48 -3,-3 -5,-6 -8,-8 -10,-9 -23,-14 -36,-13 -9,1 -20,5 -23,14 -3,11 8,21 16,25 13,7 27,8 41,4l3 -1c0,1 1,3 2,4 7,20 -5,32 -21,38 -10,-20 -37,-35 -58,-25 -13,7 -14,20 -5,30 8,9 21,12 33,13 5,0 11,0 17,0 1,8 -1,18 -6,25 -9,13 -26,16 -41,17 -19,2 -33,-4 -48,-15 -4,-3 -10,3 -9,8z"/>
   <path class="fil5" d="M5143 434c0,0 4,1 9,2 -4,-19 5,-39 23,-47 21,-9 47,1 57,24l-63 29c17,7 38,19 48,41 18,35 -5,111 -28,205 -23,93 -36,134 -51,173 -11,27 -30,28 -30,28l0 -93 4 -78c0,0 -49,-67 -55,-123 -7,-72 8,-101 8,-101l78 -60z"/>
   <path class="fil5" d="M4800 354c87,0 157,71 157,158 0,87 -71,157 -158,157 -87,0 -157,-71 -157,-158 0,-87 71,-157 158,-157z"/>
   <path class="fil32" d="M5109 706c19,16 34,-26 50,-42 16,-16 67,-38 92,15 26,55 -23,130 -62,147 -56,26 -81,-30 -81,-30l0 233c-59,107 -186,82 -247,97 -11,-43 -6,-60 0,-84l0 -76c0,0 -46,9 -77,4 -51,-8 -78,-50 -93,-105 -25,-89 -30,-238 4,-410 57,-44 250,-37 370,39 -9,153 26,196 44,212z"/>
   <path class="fil34" d="M4861 966c0,0 114,-22 154,-43 27,-14 49,-39 55,-55 0,0 -7,34 -31,65 -29,37 -178,64 -178,64l0 -31z"/>
   <path class="fil5" d="M4652 621c2,-2 5,-4 9,-6l1 0c1,-1 2,-1 4,-2l2 -1 2 0 2 0 0 -1 2 0c3,0 6,-1 9,-1 1,0 3,0 4,0l3 -1 2 0c2,0 4,0 6,0l2 0 2 1c5,0 11,0 17,1 26,5 53,17 60,28 7,11 5,33 1,53 -1,3 -2,8 -3,12l-1 1 0 2 -1 1 0 1 -2 3 -1 3 -1 1 -1 2 -1 1 0 0c-9,14 -26,26 -55,24 -11,0 -20,-3 -27,-7 -26,-14 -32,-43 -35,-56 -4,-18 -8,-52 0,-59zm216 22c2,-3 6,-6 11,-9l2 -1 1 -1c1,0 3,-1 5,-2 2,-1 3,-1 5,-2 5,-2 11,-3 16,-5 3,0 5,-1 7,-1 5,-1 11,-2 17,-2 1,0 2,-1 4,-1 36,-2 59,7 67,15 9,8 4,42 0,59l0 1 0 1c-1,3 -1,5 -2,7 0,2 -1,3 -1,5l0 0c-1,2 -2,5 -3,7l-1 2 -1 2 0 1 -1 3 -2 2 -1 2 -2 3c-9,13 -25,23 -52,23 -26,-1 -43,-10 -53,-22 -11,-12 -15,-25 -17,-35 -5,-19 -7,-42 1,-52zm-251 -29c1,10 7,20 11,24 1,3 3,6 4,9 4,17 6,48 14,66 7,18 23,46 69,48 10,0 17,0 24,-2l2 0c8,-1 14,-4 20,-7l1 -1 2 -1 2 -1 2 -2 2 -1 2 -2c2,-1 3,-3 4,-4 7,-7 12,-16 16,-25 11,-22 9,-55 26,-58l2 0 2 0c23,1 19,36 32,61 12,25 33,50 82,51 2,1 4,1 6,1 2,0 4,-1 5,-1 5,0 9,-1 12,-1 2,-1 3,-1 4,-1l4 -1 2 -1c5,-1 9,-3 13,-6 2,-1 3,-1 5,-3 3,-2 5,-4 8,-6 7,-8 12,-16 15,-23 8,-17 11,-49 15,-65 1,-4 2,-7 4,-9 3,-5 11,-13 11,-23 1,-11 -6,-20 -13,-21 -4,-1 -8,-1 -12,-2 -39,-6 -90,-9 -120,-1 -38,10 -52,22 -73,21 -20,-1 -33,-14 -69,-27 -28,-9 -76,-10 -112,-7 -4,0 -8,0 -11,0 -7,1 -13,10 -13,21z"/>
   <path class="fil5" d="M5025 609l166 38c0,0 -20,3 -38,25l-129 -25 1 -38z"/>
   <path class="fil4" d="M4652 680c3,13 9,42 35,56 7,4 16,7 27,7 29,2 46,-10 55,-24l0 0 1 -1 1 -2 1 -1 1 -3 2 -3 0 -1 1 -1 0 -2 1 -1c1,-4 2,-9 3,-12 4,-20 6,-42 -1,-53 -7,-11 -34,-23 -60,-28 -6,-1 -12,-1 -17,-1l-2 -1 -2 0c-2,0 -4,0 -6,0l-2 0 -3 1c-1,0 -3,0 -4,0 -3,0 -6,1 -9,1l-2 0 0 1 -2 0 -2 0 -2 1c-2,1 -3,1 -4,2l-1 0c-4,2 -7,4 -9,6 -8,7 -4,41 0,59z"/>
   <path class="fil4" d="M4867 695c2,10 6,23 17,35 10,12 27,21 53,22 27,0 43,-10 52,-23l2 -3 1 -2 2 -2 1 -3 0 -1 1 -2 1 -2c1,-2 2,-5 3,-7l0 0c0,-2 1,-3 1,-5 1,-2 1,-4 2,-7l0 -1 0 -1c4,-17 9,-51 0,-59 -8,-8 -31,-17 -67,-15 -2,0 -3,1 -4,1 -6,0 -12,1 -17,2 -2,0 -4,1 -7,1 -5,2 -11,3 -16,5 -2,1 -3,1 -5,2 -2,1 -4,2 -5,2l-1 1 -2 1c-5,3 -9,6 -11,9 -8,10 -6,33 -1,52z"/>
   <path class="fil5" d="M4657 333c0,-1 0,-3 0,-5 1,-4 2,-8 4,-10 8,-8 23,12 29,17 5,4 10,8 16,12 2,2 15,8 15,9 -2,-18 -5,-38 0,-57 2,-12 6,-42 21,-45 10,-2 18,6 25,13 62,58 143,31 218,33 63,2 139,28 167,89 13,28 15,57 -10,77 -17,12 -33,12 -42,31 -3,5 -17,65 -8,64 -32,2 -63,-16 -70,-48 -2,-6 -5,-18 -7,-25 -2,-9 -10,-12 -18,-10 -19,4 -31,11 -49,16 -49,14 -109,20 -158,10 -37,-8 -73,-26 -100,-54 -28,-30 -38,-76 -33,-117z"/>
   <path class="fil5" d="M4902 579l55 8c2,-16 -9,-30 -24,-33 -16,-2 -29,9 -31,25z"/>
   <path class="fil34" d="M4889 835l-47 12c3,13 16,21 29,18 13,-4 21,-17 18,-30z"/>
   <path class="fil5" d="M4693 582l55 -6c-1,-16 -14,-27 -29,-26 -16,2 -27,16 -26,32z"/>
   <path class="fil34" d="M4829 658l-8 130 -73 -18 73 -113c2,0 5,0 8,1z"/>
   <path class="fil5" d="M5139 749c0,18 16,34 34,34 19,0 34,-16 34,-34 0,-19 -15,-34 -34,-34 -18,0 -34,15 -34,34z"/>
   <path class="fil5" d="M5136 687c3,-10 8,-21 15,-28 6,-6 18,-10 27,-9l0 2c-4,2 -6,3 -10,6 -4,2 -8,5 -10,8 -3,4 -5,7 -7,11 -2,4 -4,10 -4,14 0,10 0,15 3,23 2,4 4,7 7,10 2,3 6,5 7,9 2,4 -4,11 -8,9 -9,-5 -15,-14 -19,-24 -4,-10 -5,-21 -1,-31z"/>
   <path class="fil6" d="M4653 1150c-48,31 -113,71 -129,114 -15,44 -61,297 -66,379 0,0 68,33 132,37l63 -530z"/>
   <path class="fil4" d="M5209 1029c120,66 238,164 263,201 0,0 -70,233 -132,343 -61,110 -94,436 -94,436 0,0 -420,140 -552,151 -132,11 -149,-45 -149,-45 0,0 -2,-365 28,-608 30,-244 24,-316 80,-357 36,-27 191,-94 191,-94 0,0 0,32 0,70 86,1 365,-97 365,-97z"/>
   <path class="fil0" d="M4812 1163c0,0 -12,-20 -9,-51l35 -25 1 44 -27 32z"/>
   <path class="fil35" d="M4812 1163c0,0 -9,-16 -9,-42 0,-3 0,-6 0,-9l35 -25 1 44 -27 32z"/>
   <polygon class="fil0" points="4880,1136 4971,1084 5039,1138 4901,1195 "/>
   <polygon class="fil35" points="4901,1195 4880,1136 4971,1084 5039,1138 "/>
   <path class="fil6" d="M5108 931l0 18c-3,17 -37,58 -124,97 -88,39 -123,80 -123,80 0,0 33,0 69,12 39,14 105,64 124,64 18,0 44,-52 93,-104 41,-43 62,-69 62,-69 0,0 -67,-98 -101,-98z"/>
   <path class="fil6" d="M4861 1126c-31,3 -60,25 -68,13 -8,-11 19,-116 68,-148l0 135z"/>
   <path class="fil34" d="M4558 1676c0,0 -4,65 -5,87 -1,22 36,405 36,405l-131 55c0,0 -16,-147 -21,-229 -6,-82 1,-183 11,-253 10,-70 14,-96 14,-96 35,16 68,24 96,31z"/>
   <path class="fil32" d="M4468 2410c0,0 0,6 0,28 1,22 14,88 22,109 8,20 28,65 38,71 12,6 20,7 33,5 20,-2 42,9 62,0 7,-4 15,-9 23,-11 12,-3 26,1 37,-6 7,-4 11,-11 18,-15 10,-6 23,-4 34,-9 9,-4 15,-12 18,-21 6,-19 0,-39 -4,-58 0,0 9,-10 10,-31 0,-21 -4,-57 -9,-71 -4,-13 -100,-68 -100,-68l-19 -12c0,0 -61,-17 -117,19 -55,35 -46,70 -46,70z"/>
   <path class="fil34" d="M4494 2407c-25,42 -10,117 -10,118 -8,-28 -16,-70 -16,-87 0,-22 0,-28 0,-28 0,0 -9,-35 46,-70 56,-36 117,-19 117,-19 0,0 -112,44 -137,86z"/>
   <path class="fil34" d="M4749 2503c-8,-26 -30,-65 -40,-75 -11,-10 -20,-22 -9,-18 10,4 25,7 31,-1 6,-7 7,6 0,16 -6,10 -1,18 7,34 8,17 9,35 11,44z"/>
   <path class="fil32" d="M5435 1235c40,14 45,123 37,220 -9,98 -85,328 -120,409 -39,90 -62,142 -88,170 -26,29 -80,52 -150,88 -63,32 -106,49 -213,82 -120,37 -167,40 -193,58 -25,18 -32,57 -58,71l-19 -12c-32,6 -87,28 -120,50 -30,20 -43,39 -43,39l0 28c0,0 -30,13 -56,-42 -26,-55 -38,-137 -8,-172 30,-36 124,-85 200,-109 77,-25 115,-49 205,-104 95,-57 161,-95 208,-121 18,-11 31,-24 39,-57 6,-26 25,-104 37,-162 19,-97 61,-391 342,-436z"/>
   <path class="fil6" d="M5472 1230c0,0 18,4 21,81 2,77 -1,159 -11,218 -10,60 -69,235 -69,235 0,0 -171,56 -346,-11 0,0 41,-252 56,-319 16,-67 232,-274 349,-204z"/>
   <path class="fil0" d="M4866 1235c-9,63 -23,212 -23,422 0,52 -75,157 -93,154 -18,-2 -50,-100 -55,-157 7,-139 91,-353 128,-427l43 8z"/>
   <path class="fil36" d="M4864 1253c1,-6 1,-12 2,-18l0 0 -2 18zm-42 -25c0,0 1,0 1,-1 0,1 -1,1 -1,1z"/>
   <path class="fil29" d="M4864 1254c-18,-1 -38,-14 -44,-21 1,-2 2,-4 2,-5 0,0 1,0 1,-1l0 0 43 8c-1,6 -1,12 -2,18l0 1z"/>
   <path class="fil0" d="M4880 1136c-19,-5 -41,-5 -41,-5 0,0 -17,12 -27,32 0,0 -2,39 11,64 0,0 16,14 43,8 0,0 26,-16 35,-40 3,-21 -12,-52 -21,-59z"/>
  </g>
 </g>
</svg>
