<?xml version="1.0" encoding="UTF-8"?>
<!DOCTYPE svg PUBLIC "-//W3C//DTD SVG 1.1//EN" "http://www.w3.org/Graphics/SVG/1.1/DTD/svg11.dtd">
<!-- Creator: CorelDRAW X7 -->
<svg xmlns="http://www.w3.org/2000/svg" xml:space="preserve" width="32.2578mm" height="68.9186mm" version="1.1" style="shape-rendering:geometricPrecision; text-rendering:geometricPrecision; image-rendering:optimizeQuality; fill-rule:evenodd; clip-rule:evenodd"
viewBox="0 0 3226 6892"
 xmlns:xlink="http://www.w3.org/1999/xlink">
 <defs>
  <style type="text/css">
   <![CDATA[
    .fil0 {fill:#1C8AB5;fill-rule:nonzero;fill-opacity:0.168627}
   ]]>
  </style>
 </defs>
 <g id="Layer_x0020_1">
  <metadata id="CorelCorpID_0Corel-Layer"/>
  <path class="fil0" d="M2883 735c0,-277 0,-335 343,-373l0 -364 -1145 0 0 364c352,38 352,96 352,373l0 4397c0,862 -162,1302 -829,1302 -649,0 -811,-440 -811,-1302l0 -4397c0,-277 0,-335 351,-373l0 -364 -1144 0 0 364c343,38 343,96 343,373l0 4358c0,1131 225,1801 1243,1801 1063,0 1297,-670 1297,-1801l0 -4358z"/>
 </g>
</svg>
